SplineFontDB: 3.0
FontName: Neuton-Regular
FullName: Neuton Regular
FamilyName: Neuton
Weight: Regular
Copyright: Copyright (c) 2010, 2011 Brian M Zick (http://21326.info/),\nwith Reserved Font Name "Neuton".\nMinor cleanup by Wallace Smith and William Zick.\n\nThis Font Software is licensed under the SIL Open Font License, Version 1.1.\nThis license is available with a FAQ at: http://scripts.sil.org/OFL\n   WITHOUT WARRANTIES OR CONDITIONS OF ANY KIND, either express or implied.\n   See the License for the specific language governing permissions and\n   limitations under the License.
Version: 1.41
ItalicAngle: 0
UnderlinePosition: -361
UnderlineWidth: 0
Ascent: 1638
Descent: 410
LayerCount: 2
Layer: 0 0 "Back"  1
Layer: 1 0 "Fore"  0
NeedsXUIDChange: 1
FSType: 0
OS2Version: 1
OS2_WeightWidthSlopeOnly: 0
OS2_UseTypoMetrics: 0
CreationTime: 1305772905
ModificationTime: 1311358071
PfmFamily: 17
TTFWeight: 500
TTFWidth: 5
LineGap: 0
VLineGap: 0
OS2TypoAscent: 1927
OS2TypoAOffset: 0
OS2TypoDescent: -418
OS2TypoDOffset: 0
OS2TypoLinegap: 0
OS2WinAscent: 1927
OS2WinAOffset: 0
OS2WinDescent: 418
OS2WinDOffset: 0
HheadAscent: 1927
HheadAOffset: 0
HheadDescent: -418
HheadDOffset: 0
OS2SubXSize: 1095
OS2SubYSize: 1179
OS2SubXOff: 0
OS2SubYOff: 235
OS2SupXSize: 1095
OS2SupYSize: 1179
OS2SupXOff: 0
OS2SupYOff: 809
OS2StrikeYSize: 84
OS2StrikeYPos: 4436
OS2Vendor: 'PfEd'
OS2CodePages: a00000b3.00000000
Lookup: 1 0 0 "'sups' Superscript lookup 0"  {"'sups' Superscript lookup 0 subtable" ("superior" ) } ['sups' ('DFLT' <'dflt' > ) ]
Lookup: 258 0 0 "'kern' Horizontal Kerning in Latin lookup 0"  {"'kern' Horizontal Kerning in Latin lookup 0 per glyph data 0"  "'kern' Horizontal Kerning in Latin lookup 0 kerning class 1" [410,0,0] } ['kern' ('latn' <'dflt' > ) ]
MarkAttachClasses: 1
DEI: 91125
KernClass2: 89+ 74 "'kern' Horizontal Kerning in Latin lookup 0 kerning class 1" 
 9 ampersand
 8 asterisk
 2 at
 9 backslash
 5 comma
 10 exclamdown
 4 four
 8 four.osf

StartChar: .notdef
Encoding: 65536 -1 0
Width: 563
VWidth: 0
Flags: HW
HStem: 0 55<96 427> 1050 55<96 427>
VStem: 41 55<55 1050> 427 55<55 1050>
LayerCount: 2
Fore
SplineSet
41 0 m 1
 41 1105 l 1
 482 1105 l 1
 482 0 l 1
 41 0 l 1
96 55 m 1
 427 55 l 1
 427 1050 l 1
 96 1050 l 1
 96 55 l 1
EndSplineSet
Colour: ffffff
EndChar

StartChar: A
Encoding: 65 65 1
Width: 1234
VWidth: 0
Flags: HW
HStem: 0 80<406.761 431 725 754.091 1211.04 1228> 432 102<406 758>
DStem2: 121 129 256 124 0.367625 0.929974<44.9795 372.586 481.413 481.413> 710 1268 592 1034 0.322674 -0.94651<183.408 710.227 816.128 1138.09>
LayerCount: 2
Fore
SplineSet
-37 0 m 1
 -28 74 l 1
 121 129 l 1
 559 1237 l 1
 710 1268 l 1
 1100 124 l 1
 1237 80 l 1
 1228 0 l 1
 713 0 l 1
 725 74 l 1
 896 129 l 1
 787 432 l 1
 368 432 l 1
 256 124 l 1
 442 80 l 1
 431 0 l 1
 -37 0 l 1
406 534 m 1
 758 534 l 1
 592 1034 l 1
 406 534 l 1
EndSplineSet
Colour: ffffff
EndChar

StartChar: AE
Encoding: 198 198 2
Width: 1684
VWidth: 0
Flags: HW
HStem: 0 96<998 1462> 0 74<650 700.939> 472 96<510 817> 586 93<998 1241> 1152 92<998 1436> 1168 76<534 597.045>
VStem: 817 181<121 472 568 586 679 1058> 1275 85<424 483.632> 1478 86<940 1012.36>
DStem2: 105 131 240 126 0.536766 0.843731<68.2447 477.191 586.101 1165.39>
LayerCount: 2
Fore
SplineSet
-40 1 m 1x7380
 -31 76 l 1
 105 131 l 1
 738 1126 l 1
 524 1168 l 1
 534 1244 l 1
 1596 1244 l 1x7780
 1564 927 l 1
 1478 940 l 1
 1436 1152 l 1
 998 1152 l 1
 998 679 l 1
 1257 679 l 1
 1299 802 l 1
 1394 810 l 1
 1360 424 l 1
 1275 409 l 1
 1241 586 l 1
 998 586 l 1
 998 96 l 1
 1462 96 l 1xbb80
 1563 329 l 1
 1643 313 l 1
 1613 0 l 1
 642 0 l 1
 650 74 l 1
 817 121 l 1
 817 472 l 1
 458 472 l 1
 240 126 l 1
 428 83 l 1
 415 1 l 1
 -40 1 l 1x7380
510 568 m 1
 817 568 l 1
 817 1058 l 1
 510 568 l 1
EndSplineSet
Colour: ffffff
EndChar

StartChar: Aacute
Encoding: 193 193 3
Width: 1234
VWidth: 0
Flags: HW
HStem: 0 80<406.761 431 725 754.091 1211.04 1228> 432 102<406 758>
DStem2: 121 129 256 124 0.351777 0.936084<42.8094 370.522 479.37 1012.84> 710 1268 592 1034 0.322674 -0.94651<183.408 710.227 816.128 1138.09>
LayerCount: 2
Fore
SplineSet
-37 0 m 1
 -28 74 l 1
 121 129 l 1
 559 1237 l 1
 710 1268 l 1
 1100 124 l 1
 1237 80 l 1
 1228 0 l 1
 713 0 l 1
 725 74 l 1
 896 129 l 1
 787 432 l 1
 368 432 l 1
 256 124 l 1
 442 80 l 1
 431 0 l 1
 -37 0 l 1
406 534 m 1
 758 534 l 1
 592 1034 l 1
 406 534 l 1
593 1385 m 1
 716 1710 l 1
 827 1670 l 1
 643 1354 l 1
 593 1385 l 1
EndSplineSet
Colour: ffffff
EndChar

StartChar: Abreve
Encoding: 258 258 4
Width: 1234
VWidth: 0
Flags: HW
HStem: 0 80<406.761 431 725 754.091 1211.04 1228> 432 102<406 758> 1379 108<536.56 748.173> 1569 20G<469.121 506 783 820.586>
VStem: 451 55<1534.56 1566.28> 783 44<1545.23 1568.11>
DStem2: 121 129 256 124 0.367625 0.929974<44.9795 372.586 481.413 481.413> 710 1268 592 1034 0.322674 -0.94651<183.408 710.227 816.128 1138.09>
LayerCount: 2
Fore
SplineSet
-37 0 m 1
 -28 74 l 1
 121 129 l 1
 559 1237 l 1
 710 1268 l 1
 1100 124 l 1
 1237 80 l 1
 1228 0 l 1
 713 0 l 1
 725 74 l 1
 896 129 l 1
 787 432 l 1
 368 432 l 1
 256 124 l 1
 442 80 l 1
 431 0 l 1
 -37 0 l 1
406 534 m 1
 758 534 l 1
 592 1034 l 1
 406 534 l 1
451 1556 m 1
 497 1589 l 1
 506 1572 l 1
 525 1532 573 1487 640 1487 c 0
 710 1487 756 1530 783 1573 c 1
 793 1590 l 1
 833 1561 l 1
 827 1542 l 2
 799 1462 739 1379 640 1379 c 0
 535 1379 476 1459 457 1536 c 2
 451 1556 l 1
EndSplineSet
Colour: ffffff
EndChar

StartChar: Acaron
Encoding: 461 461 5
Width: 1234
VWidth: 0
Flags: HW
HStem: 0 80<406.761 431 725 754.091 1211.04 1228> 432 102<406 758> 1569 20G<483.194 529.694 772.429 820>
DStem2: 121 129 256 124 0.367625 0.929974<44.9795 372.586 481.413 481.413> 509 1589 429 1527 0.733231 -0.67998<0 207.168> 710 1268 592 1034 0.322674 -0.94651<183.408 710.227 816.128 1138.09> 667 1445 663 1376 0.692867 0.721065<0 186.172>
LayerCount: 2
Fore
SplineSet
-37 0 m 1
 -28 74 l 1
 121 129 l 1
 559 1237 l 1
 710 1268 l 1
 1100 124 l 1
 1237 80 l 1
 1228 0 l 1
 713 0 l 1
 725 74 l 1
 896 129 l 1
 787 432 l 1
 368 432 l 1
 256 124 l 1
 442 80 l 1
 431 0 l 1
 -37 0 l 1
406 534 m 1
 758 534 l 1
 592 1034 l 1
 406 534 l 1
429 1527 m 1
 509 1589 l 1
 658 1445 l 1
 667 1445 l 1
 790 1585 l 1
 835 1555 l 1
 663 1376 l 1
 608 1361 l 1
 429 1527 l 1
EndSplineSet
Colour: ffffff
EndChar

StartChar: Acircumflex
Encoding: 194 194 6
Width: 1234
VWidth: 0
Flags: HW
HStem: 0 80<406.761 431 725 754.091 1211.04 1228> 432 102<406 758> 1565 20G<611 685.243>
DStem2: 121 129 256 124 0.367625 0.929974<44.9795 372.586 481.413 481.413> 710 1268 592 1034 0.322674 -0.94651<183.408 710.227 816.128 1138.09>
LayerCount: 2
Fore
SplineSet
-37 0 m 1
 -28 74 l 1
 121 129 l 1
 559 1237 l 1
 710 1268 l 1
 1100 124 l 1
 1237 80 l 1
 1228 0 l 1
 713 0 l 1
 725 74 l 1
 896 129 l 1
 787 432 l 1
 368 432 l 1
 256 124 l 1
 442 80 l 1
 431 0 l 1
 -37 0 l 1
406 534 m 1
 758 534 l 1
 592 1034 l 1
 406 534 l 1
443 1392 m 1
 611 1572 l 1
 666 1585 l 1
 844 1400 l 1
 794 1364 l 1
 632 1472 l 1
 621 1472 l 1
 480 1361 l 1
 443 1392 l 1
EndSplineSet
Colour: ffffff
EndChar

StartChar: Adieresis
Encoding: 196 196 7
Width: 1234
VWidth: 0
Flags: HW
HStem: 0 80<406.761 431 725 754.091 1211.04 1228> 432 102<406 758> 1373 157<431.24 583.859 698.24 852.511>
VStem: 423 169<1382.55 1519.89> 690 171<1383.46 1519.66>
DStem2: 121 129 256 124 0.367625 0.929974<44.9795 372.586 481.413 481.413> 710 1268 592 1034 0.322674 -0.94651<183.408 710.227 816.128 1138.09>
LayerCount: 2
Fore
SplineSet
-37 0 m 1
 -28 74 l 1
 121 129 l 1
 559 1237 l 1
 710 1268 l 1
 1100 124 l 1
 1237 80 l 1
 1228 0 l 1
 713 0 l 1
 725 74 l 1
 896 129 l 1
 787 432 l 1
 368 432 l 1
 256 124 l 1
 442 80 l 1
 431 0 l 1
 -37 0 l 1
406 534 m 1
 758 534 l 1
 592 1034 l 1
 406 534 l 1
423 1453 m 0
 423 1500 466 1530 506 1530 c 0
 550 1530 592 1499 592 1453 c 0
 592 1404 550 1373 506 1373 c 0
 463 1373 423 1404 423 1453 c 0
690 1453 m 0
 690 1500 733 1530 773 1530 c 0
 817 1530 861 1499 861 1453 c 0
 861 1404 817 1373 773 1373 c 0
 730 1373 690 1404 690 1453 c 0
EndSplineSet
Colour: ffffff
EndChar

StartChar: Agrave
Encoding: 192 192 8
Width: 1234
VWidth: 0
Flags: HW
HStem: 0 80<406.761 431 725 754.091 1211.04 1228> 432 102<406 758>
DStem2: 121 129 256 124 0.367625 0.929974<44.9795 372.586 481.413 481.413> 710 1268 592 1034 0.328056 -0.944658<182.339 709.126 814.995 1136.98>
LayerCount: 2
Fore
SplineSet
-37 0 m 1
 -28 74 l 1
 121 129 l 1
 559 1237 l 1
 710 1268 l 1
 1100 124 l 1
 1237 80 l 1
 1228 0 l 1
 713 0 l 1
 725 74 l 1
 896 129 l 1
 787 432 l 1
 368 432 l 1
 256 124 l 1
 442 80 l 1
 431 0 l 1
 -37 0 l 1
406 534 m 1
 758 534 l 1
 592 1034 l 1
 406 534 l 1
436 1664 m 1
 552 1702 l 1
 684 1368 l 1
 627 1334 l 1
 436 1664 l 1
EndSplineSet
Colour: ffffff
EndChar

StartChar: Amacron
Encoding: 256 256 9
Width: 1234
VWidth: 0
Flags: HW
HStem: 0 80<406.761 431 725 754.091 1211.04 1228> 432 102<406 758> 1383 101<429 856>
DStem2: 121 129 256 124 0.367625 0.929974<44.9795 372.586 481.413 481.413> 710 1268 592 1034 0.322674 -0.94651<183.408 710.227 816.128 1138.09>
LayerCount: 2
Fore
SplineSet
-37 0 m 1
 -28 74 l 1
 121 129 l 1
 559 1237 l 1
 710 1268 l 1
 1100 124 l 1
 1237 80 l 1
 1228 0 l 1
 713 0 l 1
 725 74 l 1
 896 129 l 1
 787 432 l 1
 368 432 l 1
 256 124 l 1
 442 80 l 1
 431 0 l 1
 -37 0 l 1
406 534 m 1
 758 534 l 1
 592 1034 l 1
 406 534 l 1
415 1383 m 1
 429 1484 l 1
 869 1484 l 1
 856 1383 l 1
 415 1383 l 1
EndSplineSet
Colour: ffffff
EndChar

StartChar: Aogonek
Encoding: 260 260 10
Width: 1234
VWidth: 0
Flags: HW
HStem: -386 51<1240.29 1250.56> 0 80<406.761 431 725 754.091 1211.04 1228> 432 102<406 758>
VStem: 1002 149<-266.112 -94.1131>
DStem2: 121 129 256 124 0.367625 0.929974<44.9795 372.586 481.413 481.413> 710 1268 592 1034 0.322674 -0.94651<183.408 710.227 816.128 1138.09>
LayerCount: 2
Fore
SplineSet
-37 0 m 1
 -28 74 l 1
 121 129 l 1
 559 1237 l 1
 710 1268 l 1
 1100 124 l 1
 1237 80 l 1
 1228 0 l 1
 1211 0 l 1
 1154 -95 1151 -130 1151 -148 c 0
 1151 -210 1185 -282 1275 -335 c 1
 1241 -386 l 1
 1097 -371 1002 -294 1002 -208 c 0
 1002 -156 1020 -104 1137 0 c 1
 713 0 l 1
 725 74 l 1
 896 129 l 1
 787 432 l 1
 368 432 l 1
 256 124 l 1
 442 80 l 1
 431 0 l 1
 -37 0 l 1
406 534 m 1
 758 534 l 1
 592 1034 l 1
 406 534 l 1
EndSplineSet
Colour: ffffff
EndChar

StartChar: Aring
Encoding: 197 197 11
Width: 1234
VWidth: 0
Flags: HW
HStem: 0 80<406.761 431 725 754.091 1211.04 1228> 432 102<406 758> 1367 48<590.96 705.046> 1656 48<582.623 692.73>
VStem: 480 72<1441.47 1635.12> 734 70<1435.73 1625.3>
DStem2: 121 129 256 124 0.367625 0.929974<44.9795 372.586 481.413 481.413> 710 1268 592 1034 0.322674 -0.94651<183.408 710.227 816.128 1138.09>
LayerCount: 2
Fore
SplineSet
-37 0 m 1
 -28 74 l 1
 121 129 l 1
 559 1237 l 1
 710 1268 l 1
 1100 124 l 1
 1237 80 l 1
 1228 0 l 1
 713 0 l 1
 725 74 l 1
 896 129 l 1
 787 432 l 1
 368 432 l 1
 256 124 l 1
 442 80 l 1
 431 0 l 1
 -37 0 l 1
406 534 m 1
 758 534 l 1
 592 1034 l 1
 406 534 l 1
480 1532 m 0
 480 1624 556 1704 649 1704 c 0
 745 1704 804 1635 804 1542 c 0
 804 1452 738 1367 636 1367 c 0
 544 1367 480 1430 480 1532 c 0
552 1543 m 0
 552 1482 583 1415 647 1415 c 0
 701 1415 734 1456 734 1529 c 0
 734 1591 698 1656 636 1656 c 0
 577 1656 552 1599 552 1543 c 0
EndSplineSet
Colour: ffffff
EndChar

StartChar: Atilde
Encoding: 195 195 12
Width: 1234
VWidth: 0
Flags: HW
HStem: 0 80<406.761 431 725 754.091 1211.04 1228> 432 102<406 758> 1391 105<658.391 821.713> 1423 103<453.382 610.127>
DStem2: 121 129 256 124 0.367625 0.929974<44.9795 372.586 481.413 481.413> 764 1496 507 1423 0.990475 -0.137689<-247.472 -6.52904> 710 1268 592 1034 0.322674 -0.94651<183.408 710.227 816.128 1138.09>
LayerCount: 2
Fore
SplineSet
-37 0 m 1xc0
 -28 74 l 1
 121 129 l 1
 559 1237 l 1
 710 1268 l 1
 1100 124 l 1
 1237 80 l 1
 1228 0 l 1
 713 0 l 1
 725 74 l 1
 896 129 l 1
 787 432 l 1
 368 432 l 1
 256 124 l 1
 442 80 l 1
 431 0 l 1
 -37 0 l 1xc0
406 534 m 1
 758 534 l 1
 592 1034 l 1
 406 534 l 1
406 1383 m 1
 406 1383 440 1526 529 1526 c 0
 533 1526 539 1527 543 1526 c 2xd0
 764 1496 l 1
 768 1496 l 2
 793 1496 825 1536 825 1536 c 1
 872 1535 l 1
 872 1535 835 1391 743 1391 c 0xe0
 739 1391 734 1391 730 1392 c 2
 507 1423 l 1
 504 1423 l 2xd0
 476 1423 445 1376 445 1376 c 1
 406 1383 l 1
EndSplineSet
Colour: ffffff
EndChar

StartChar: B
Encoding: 66 66 13
Width: 1147
VWidth: 0
Flags: HW
HStem: 0 96<420 794.252> 0 74<61 111.939> 605 83<420 738.649> 1134 77<67 138.715> 1171 86<424.555 691.603>
VStem: 228 192<121 605 688 1104> 808 188<805.865 1062.52> 904 196<207.223 492.691>
LayerCount: 2
Fore
SplineSet
50 0 m 1x65
 61 74 l 1
 228 121 l 1
 228 1104 l 1
 57 1134 l 1
 67 1211 l 1x75
 212 1232 382 1257 559 1257 c 0
 869 1257 996 1118 996 967 c 0x2e
 996 863 947 736 790 679 c 1
 790 672 l 1
 995 661 1100 512 1100 380 c 0
 1100 192 970 0 568 0 c 2xad
 50 0 l 1x65
420 96 m 1xa5
 640 96 l 2
 814 96 904 218 904 347 c 0
 904 471 818 605 643 605 c 2
 420 605 l 1
 420 96 l 1xa5
420 688 m 1
 678 688 l 1
 764 724 808 795 808 909 c 0
 808 1033 743 1171 500 1171 c 0x2e
 476 1171 447 1168 420 1164 c 1
 420 688 l 1
EndSplineSet
Colour: ffffff
EndChar

StartChar: C
Encoding: 67 67 14
Width: 1153
VWidth: 0
Flags: HW
HStem: -24 135<537.429 875.421> 1174 95<488.101 833.395>
VStem: 61 214<412.033 836.024> 947 88<850 925.093>
LayerCount: 2
Fore
SplineSet
61 589 m 0
 61 884 246 1269 704 1269 c 0
 836 1269 970 1242 1066 1169 c 1
 1035 837 l 1
 947 850 l 1
 905 1070 l 1
 859 1129 776 1174 647 1174 c 0
 439 1174 275 980 275 658 c 0
 275 299 491 111 728 111 c 0
 862 111 992 182 1078 261 c 1
 1113 185 l 1
 1034 89 859 -24 651 -24 c 0
 344 -24 61 190 61 589 c 0
EndSplineSet
Colour: ffffff
EndChar

StartChar: Cacute
Encoding: 262 262 15
Width: 1153
VWidth: 0
Flags: HW
HStem: -24 135<537.429 875.421> 1174 95<488.101 833.395>
VStem: 61 214<412.033 836.024> 947 88<850 925.093>
LayerCount: 2
Fore
SplineSet
61 589 m 0
 61 884 246 1269 704 1269 c 0
 836 1269 970 1242 1066 1169 c 1
 1035 837 l 1
 947 850 l 1
 905 1070 l 1
 859 1129 776 1174 647 1174 c 0
 439 1174 275 980 275 658 c 0
 275 299 491 111 728 111 c 0
 862 111 992 182 1078 261 c 1
 1113 185 l 1
 1034 89 859 -24 651 -24 c 0
 344 -24 61 190 61 589 c 0
604 1385 m 1
 726 1710 l 1
 838 1670 l 1
 654 1354 l 1
 604 1385 l 1
EndSplineSet
Colour: ffffff
EndChar

StartChar: Ccaron
Encoding: 268 268 16
Width: 1153
VWidth: 0
Flags: HW
HStem: -24 135<537.429 875.421> 1174 95<488.101 833.395> 1569 20G<526.194 572.694 817.429 864.333>
VStem: 61 214<412.033 836.024> 947 88<850 925.093>
DStem2: 552 1589 472 1527 0.733231 -0.67998<0 207.168> 712 1445 706 1376 0.694953 0.719055<0 186.147>
LayerCount: 2
Fore
SplineSet
61 589 m 0
 61 884 246 1269 704 1269 c 0
 836 1269 970 1242 1066 1169 c 1
 1035 837 l 1
 947 850 l 1
 905 1070 l 1
 859 1129 776 1174 647 1174 c 0
 439 1174 275 980 275 658 c 0
 275 299 491 111 728 111 c 0
 862 111 992 182 1078 261 c 1
 1113 185 l 1
 1034 89 859 -24 651 -24 c 0
 344 -24 61 190 61 589 c 0
472 1527 m 1
 552 1589 l 1
 701 1445 l 1
 712 1445 l 1
 835 1585 l 1
 879 1555 l 1
 706 1376 l 1
 651 1361 l 1
 472 1527 l 1
EndSplineSet
Colour: ffffff
EndChar

StartChar: Ccedilla
Encoding: 199 199 17
Width: 1153
VWidth: 0
Flags: HW
HStem: -389 58<587.057 623.738> -24 135<538.463 663> 1174 95<488.562 834.1>
VStem: 61 214<412.033 836.024> 658 134<-311.962 -166.386> 947 88<850 926.925>
LayerCount: 2
Fore
SplineSet
61 589 m 0
 61 884 247 1269 705 1269 c 0
 837 1269 970 1242 1066 1169 c 1
 1035 837 l 1
 947 850 l 1
 906 1070 l 1
 860 1129 776 1174 647 1174 c 0
 439 1174 275 980 275 658 c 0
 275 299 492 111 729 111 c 0
 863 111 992 182 1078 261 c 1
 1114 185 l 1
 1047 104 910 9 743 -18 c 1
 703 -76 l 1
 740 -109 792 -160 792 -227 c 0
 792 -306 708 -355 592 -389 c 1
 572 -331 l 1
 629 -312 658 -278 658 -248 c 0
 658 -214 621 -172 585 -138 c 1
 663 -24 l 1
 652 -24 l 2
 345 -24 61 190 61 589 c 0
EndSplineSet
Colour: ffffff
EndChar

StartChar: D
Encoding: 68 68 19
Width: 1364
VWidth: 0
Flags: HW
HStem: 0 104<424 801.539> 0 74<61 105.833> 1133 76<70 143.193> 1155 103<425.064 781.027>
VStem: 233 191<129 1103> 1093 211<420.255 838.07>
LayerCount: 2
Fore
SplineSet
47 0 m 1x4c
 61 74 l 1
 233 129 l 1
 233 1103 l 1
 61 1133 l 1
 70 1209 l 1x6c
 267 1240 438 1258 583 1258 c 0
 1145 1258 1304 961 1304 653 c 0
 1304 311 1053 0 541 0 c 2x9c
 47 0 l 1x4c
424 104 m 1x9c
 569 104 l 2
 924 104 1093 331 1093 598 c 0
 1093 905 914 1155 546 1155 c 0
 506 1155 464 1155 424 1151 c 1
 424 104 l 1x9c
EndSplineSet
Colour: ffffff
EndChar

StartChar: Dcaron
Encoding: 270 270 20
Width: 1364
VWidth: 0
Flags: HW
HStem: 0 104<424 801.539> 0 74<61 105.833> 1133 76<70 143.193> 1155 103<425.064 781.027> 1569 20G<502.194 548.556 793.143 839>
VStem: 233 191<129 1103> 1093 211<420.255 838.07>
DStem2: 528 1589 448 1527 0.733231 -0.67998<0 206.435> 686 1445 682 1376 0.690764 0.72308<0 187.577>
LayerCount: 2
Fore
SplineSet
47 0 m 1x4e
 61 74 l 1
 233 129 l 1
 233 1103 l 1
 61 1133 l 1
 70 1209 l 1x6e
 267 1240 438 1258 583 1258 c 0
 1145 1258 1304 961 1304 653 c 0
 1304 311 1053 0 541 0 c 2x9e
 47 0 l 1x4e
424 104 m 1x9e
 569 104 l 2
 924 104 1093 331 1093 598 c 0
 1093 905 914 1155 546 1155 c 0
 506 1155 464 1155 424 1151 c 1
 424 104 l 1x9e
448 1527 m 1
 528 1589 l 1
 676 1445 l 1
 686 1445 l 1
 811 1585 l 1
 853 1555 l 1
 682 1376 l 1
 627 1361 l 1
 448 1527 l 1
EndSplineSet
Colour: ffffff
EndChar

StartChar: Dcroat
Encoding: 272 272 21
Width: 1383
VWidth: 0
Flags: HW
HStem: 0 104<433 856.766> 0 74<70 114.833> 1134 77<78 152.193> 1157 103<437.746 791.932>
VStem: 242 191<129 569 672 1104> 1112 214<433.515 840.602>
DStem2: 74 647 62 555 0.997111 0.075955<0 161.59 359.862 599.834>
LayerCount: 2
Fore
SplineSet
62 555 m 1x4c
 74 647 l 1
 242 660 l 1
 242 1104 l 1
 70 1134 l 1
 78 1211 l 1x6c
 275 1242 447 1260 592 1260 c 0
 1154 1260 1326 966 1326 658 c 0
 1326 332 1062 0 568 0 c 2x9c
 57 0 l 1
 70 74 l 1
 242 129 l 1
 242 569 l 1
 62 555 l 1x4c
433 104 m 1x9c
 645 104 l 2
 974 104 1112 342 1112 598 c 0
 1112 905 927 1157 555 1157 c 0
 515 1157 473 1155 433 1151 c 1
 433 672 l 1
 691 693 l 1
 679 602 l 1
 433 581 l 1
 433 104 l 1x9c
EndSplineSet
Colour: ffffff
EndChar

StartChar: E
Encoding: 69 69 22
Width: 1142
VWidth: 0
Flags: HW
HStem: 0 96<426 921> 0 74<65 115.939> 583 93<426 700> 1152 92<426 897> 1168 76<61 112.123>
VStem: 232 194<121 583 676 1126> 734 85<421 481.788> 938 87<937 1012.18>
LayerCount: 2
Fore
SplineSet
50 1168 m 1x6f
 61 1244 l 1
 1056 1244 l 1x6f
 1025 924 l 1
 938 937 l 1
 897 1152 l 1
 426 1152 l 1
 426 676 l 1
 716 676 l 1
 758 796 l 1
 853 810 l 1
 819 421 l 1
 734 408 l 1
 700 583 l 1
 426 583 l 1
 426 96 l 1
 921 96 l 1xb7
 1019 326 l 1
 1102 313 l 1
 1072 0 l 1
 57 0 l 1
 65 74 l 1
 232 121 l 1
 232 1126 l 1
 50 1168 l 1x6f
EndSplineSet
Colour: ffffff
EndChar

StartChar: Eacute
Encoding: 201 201 23
Width: 1142
VWidth: 0
Flags: HW
HStem: 0 96<426 921> 0 74<65 115.939> 583 93<426 700> 1152 92<426 897> 1168 76<61 112.123>
VStem: 232 194<121 583 676 1126> 734 85<421 481.788> 938 87<937 1012.18>
LayerCount: 2
Fore
SplineSet
50 1168 m 1x6f
 61 1244 l 1
 1056 1244 l 1x6f
 1025 924 l 1
 938 937 l 1
 897 1152 l 1
 426 1152 l 1
 426 676 l 1
 716 676 l 1
 758 796 l 1
 853 810 l 1
 819 421 l 1
 734 408 l 1
 700 583 l 1
 426 583 l 1
 426 96 l 1
 921 96 l 1xb7
 1019 326 l 1
 1102 313 l 1
 1072 0 l 1
 57 0 l 1
 65 74 l 1
 232 121 l 1
 232 1126 l 1
 50 1168 l 1x6f
517 1385 m 1
 640 1710 l 1
 751 1670 l 1
 568 1354 l 1
 517 1385 l 1
EndSplineSet
Colour: ffffff
EndChar

StartChar: Ecaron
Encoding: 282 282 24
Width: 1142
VWidth: 0
Flags: HW
HStem: 0 96<426 921> 0 74<65 115.939> 583 93<426 700> 1152 92<426 897> 1168 76<61 112.123> 1569 20G<440.194 486.694 730.286 777.333>
VStem: 232 194<121 583 676 1126> 734 85<421 481.788> 938 87<937 1012.18>
DStem2: 466 1589 386 1527 0.733231 -0.67998<0 207.168> 624 1445 620 1376 0.692867 0.721065<0 186.865>
LayerCount: 2
Fore
SplineSet
50 1168 m 1x6f80
 61 1244 l 1
 1056 1244 l 1x6f80
 1025 924 l 1
 938 937 l 1
 897 1152 l 1
 426 1152 l 1
 426 676 l 1
 716 676 l 1
 758 796 l 1
 853 810 l 1
 819 421 l 1
 734 408 l 1
 700 583 l 1
 426 583 l 1
 426 96 l 1
 921 96 l 1xb780
 1019 326 l 1
 1102 313 l 1
 1072 0 l 1
 57 0 l 1
 65 74 l 1
 232 121 l 1
 232 1126 l 1
 50 1168 l 1x6f80
386 1527 m 1
 466 1589 l 1
 615 1445 l 1
 624 1445 l 1
 748 1585 l 1
 792 1555 l 1
 620 1376 l 1
 565 1361 l 1
 386 1527 l 1
EndSplineSet
Colour: ffffff
EndChar

StartChar: Edieresis
Encoding: 203 203 26
Width: 1142
VWidth: 0
Flags: HW
HStem: 0 96<426 921> 0 74<65 115.939> 583 93<426 700> 1152 92<426 897> 1168 76<61 112.123> 1373 157<388.24 540.859 655.24 809.511>
VStem: 232 194<121 583 676 1126> 380 169<1382.55 1519.89> 647 171<1383.46 1519.66> 734 85<421 481.788> 938 87<937 1012.18>
LayerCount: 2
Fore
SplineSet
50 1168 m 1x6e60
 61 1244 l 1
 1056 1244 l 1x6e60
 1025 924 l 1
 938 937 l 1
 897 1152 l 1
 426 1152 l 1
 426 676 l 1
 716 676 l 1
 758 796 l 1
 853 810 l 1
 819 421 l 1
 734 408 l 1
 700 583 l 1
 426 583 l 1
 426 96 l 1
 921 96 l 1xb660
 1019 326 l 1
 1102 313 l 1
 1072 0 l 1
 57 0 l 1
 65 74 l 1
 232 121 l 1
 232 1126 l 1
 50 1168 l 1x6e60
380 1453 m 0x2520
 380 1500 423 1530 463 1530 c 0
 507 1530 549 1499 549 1453 c 0
 549 1404 507 1373 463 1373 c 0
 420 1373 380 1404 380 1453 c 0x2520
647 1453 m 0x24a0
 647 1500 690 1530 730 1530 c 0
 774 1530 818 1499 818 1453 c 0
 818 1404 774 1373 730 1373 c 0
 687 1373 647 1404 647 1453 c 0x24a0
EndSplineSet
Colour: ffffff
EndChar

StartChar: Edotaccent
Encoding: 278 278 27
Width: 1142
VWidth: 0
Flags: HW
HStem: 0 96<426 921> 0 74<65 115.939> 583 93<426 700> 1152 92<426 897> 1168 76<61 112.123> 1356 214<512.218 684.581>
VStem: 232 194<121 583 676 1126> 491 215<1377.06 1548.78> 734 85<421 481.788> 938 87<937 1012.18>
LayerCount: 2
Fore
SplineSet
50 1168 m 1x6fc0
 61 1244 l 1
 1056 1244 l 1x6fc0
 1025 924 l 1
 938 937 l 1
 897 1152 l 1
 426 1152 l 1
 426 676 l 1
 716 676 l 1
 758 796 l 1
 853 810 l 1
 819 421 l 1
 734 408 l 1
 700 583 l 1
 426 583 l 1
 426 96 l 1
 921 96 l 1xb7c0
 1019 326 l 1
 1102 313 l 1
 1072 0 l 1
 57 0 l 1
 65 74 l 1
 232 121 l 1
 232 1126 l 1
 50 1168 l 1x6fc0
491 1464 m 0
 491 1522 539 1570 597 1570 c 0
 656 1570 706 1523 706 1464 c 0
 706 1403 658 1356 597 1356 c 0
 538 1356 491 1405 491 1464 c 0
EndSplineSet
Colour: ffffff
EndChar

StartChar: Egrave
Encoding: 200 200 28
Width: 1142
VWidth: 0
Flags: HW
HStem: 0 96<426 921> 0 74<65 115.939> 583 93<426 700> 1152 92<426 897> 1168 76<61 112.123>
VStem: 232 194<121 583 676 1126> 734 85<421 481.788> 938 87<937 1012.18>
LayerCount: 2
Fore
SplineSet
50 1168 m 1x6f
 61 1244 l 1
 1056 1244 l 1x6f
 1025 924 l 1
 938 937 l 1
 897 1152 l 1
 426 1152 l 1
 426 676 l 1
 716 676 l 1
 758 796 l 1
 853 810 l 1
 819 421 l 1
 734 408 l 1
 700 583 l 1
 426 583 l 1
 426 96 l 1
 921 96 l 1xb7
 1019 326 l 1
 1102 313 l 1
 1072 0 l 1
 57 0 l 1
 65 74 l 1
 232 121 l 1
 232 1126 l 1
 50 1168 l 1x6f
443 1664 m 1
 559 1702 l 1
 691 1368 l 1
 633 1334 l 1
 443 1664 l 1
EndSplineSet
Colour: ffffff
EndChar

StartChar: Emacron
Encoding: 274 274 29
Width: 1142
VWidth: 0
Flags: HW
HStem: 0 96<426 921> 0 74<65 115.939> 583 93<426 700> 1152 92<426 897> 1168 76<61 112.123> 1383 101<386 813>
VStem: 232 194<121 583 676 1126> 734 85<421 481.788> 938 87<937 1012.18>
LayerCount: 2
Fore
SplineSet
50 1168 m 1x6f80
 61 1244 l 1
 1056 1244 l 1x6f80
 1025 924 l 1
 938 937 l 1
 897 1152 l 1
 426 1152 l 1
 426 676 l 1
 716 676 l 1
 758 796 l 1
 853 810 l 1
 819 421 l 1
 734 408 l 1
 700 583 l 1
 426 583 l 1
 426 96 l 1
 921 96 l 1xb780
 1019 326 l 1
 1102 313 l 1
 1072 0 l 1
 57 0 l 1
 65 74 l 1
 232 121 l 1
 232 1126 l 1
 50 1168 l 1x6f80
372 1383 m 1
 386 1484 l 1
 826 1484 l 1
 813 1383 l 1
 372 1383 l 1
EndSplineSet
Colour: ffffff
EndChar

StartChar: Eng
Encoding: 330 330 30
Width: 1390
VWidth: 0
Flags: HW
HStem: 0 80<65 98.9539 498.133 532> 1168 76<61 101.16 881 932.147 1280 1343>
VStem: 232 128<121 961> 1054 122<271 1126>
DStem2: 412 1244 360 961 0.550735 -0.83468<207.576 1165.72>
LayerCount: 2
Fore
SplineSet
50 1168 m 1
 61 1244 l 1
 412 1244 l 1
 1054 271 l 1
 1054 1126 l 1
 869 1168 l 1
 881 1244 l 1
 1356 1244 l 1
 1343 1168 l 1
 1176 1130 l 1
 1176 151 l 2
 1176 -131 1030 -274 879 -359 c 2
 836 -383 l 1
 786 -295 l 1
 871 -233 958 -149 992 15 c 1
 360 961 l 1
 360 114 l 1
 543 80 l 1
 532 0 l 1
 57 0 l 1
 65 74 l 1
 232 121 l 1
 232 1117 l 1
 50 1168 l 1
EndSplineSet
Colour: ffffff
EndChar

StartChar: Eogonek
Encoding: 280 280 31
Width: 1142
VWidth: 0
Flags: HW
HStem: -386 51<1040.29 1050.56> 0 96<426 921> 0 74<65 115.939> 583 93<426 700> 1152 92<426 897> 1168 76<61 112.123>
VStem: 232 194<121 583 676 1126> 734 85<421 481.788> 804 147<-266.112 -91.1777> 938 87<937 1012.18>
LayerCount: 2
Fore
SplineSet
50 1168 m 1xb680
 61 1244 l 1
 1056 1244 l 1xb680
 1025 924 l 1
 938 937 l 1
 897 1152 l 1
 426 1152 l 1
 426 676 l 1
 716 676 l 1
 758 796 l 1
 853 810 l 1
 819 421 l 1
 734 408 l 1
 700 583 l 1
 426 583 l 1
 426 96 l 1
 921 96 l 1xdb40
 1019 326 l 1
 1102 313 l 1
 1072 0 l 1
 1011 0 l 1
 954 -95 951 -130 951 -148 c 0
 951 -210 985 -282 1075 -335 c 1
 1041 -386 l 1
 897 -371 804 -294 804 -208 c 0
 804 -156 820 -104 937 0 c 1
 57 0 l 1
 65 74 l 1
 232 121 l 1
 232 1126 l 1
 50 1168 l 1xb680
EndSplineSet
Colour: ffffff
EndChar

StartChar: Eth
Encoding: 208 208 32
Width: 1374
VWidth: 0
Flags: HW
HStem: 0 104<424 847.766> 0 74<61 105.833> 1134 77<70 143.193> 1157 103<425.064 782.932>
VStem: 233 191<129 569 672 1104> 1103 214<433.515 840.602>
DStem2: 64 647 53 555 0.997241 0.0742283<0 162.744 360.863 600.988>
LayerCount: 2
Fore
SplineSet
53 555 m 1x4c
 64 647 l 1
 233 660 l 1
 233 1104 l 1
 61 1134 l 1
 70 1211 l 1x6c
 267 1242 438 1260 583 1260 c 0
 1145 1260 1317 966 1317 658 c 0
 1317 332 1054 0 560 0 c 2x9c
 47 0 l 1
 61 74 l 1
 233 129 l 1
 233 569 l 1
 53 555 l 1x4c
424 104 m 1x9c
 636 104 l 2
 965 104 1103 342 1103 598 c 0
 1103 905 918 1157 546 1157 c 0
 506 1157 464 1155 424 1151 c 1
 424 672 l 1
 682 693 l 1
 670 602 l 1
 424 581 l 1
 424 104 l 1x9c
EndSplineSet
Colour: ffffff
EndChar

StartChar: Euro
Encoding: 8364 8364 33
Width: 1161
VWidth: 0
Flags: HW
HStem: -24 107<592.062 888.544> 468 99<-4 828> 651 99<6 877> 1174 95<540.533 858.919>
VStem: 142 212<477.893 869.269> 960 88<850 925.093> 977 88<325.319 401>
LayerCount: 2
Back
SplineSet
-43.7471 649.094 m 1
 -41.7129 732.52 l 1
 956.344 732.52 l 1
 940.065 649.094 l 1
 -43.7471 649.094 l 1
-35.6084 868.849 m 1
 -33.5742 951.257 l 1
 1014.33 951.257 l 1
 998.057 868.849 l 1
 -35.6084 868.849 l 1
178.043 732.52 m 0
 178.043 1205.6 394.746 1594.25 861.727 1594.25 c 0
 1028.58 1594.25 1124.21 1560.67 1245.28 1469.11 c 1
 1204.59 1045.87 l 1
 1149.65 1056.05 l 1
 1112 1381.61 l 1
 1062.15 1466.05 998.057 1512.85 856.641 1512.85 c 0
 515.814 1512.85 331.669 1227.99 331.669 772.196 c 0
 331.669 289.956 536.163 53.9219 854.604 53.9219 c 0
 933.961 53.9219 1047.91 100.722 1131.33 215.686 c 1
 1170 542.268 l 1
 1225.95 549.389 l 1
 1265.63 129.209 l 1
 1118.11 24.417 996.022 -31.5391 790.509 -31.5391 c 0
 431.372 -31.5391 178.043 269.607 178.043 732.52 c 0
EndSplineSet
Fore
SplineSet
-14 468 m 1xf8
 -4 567 l 1
 849 567 l 1
 828 468 l 1
 -14 468 l 1xf8
-4 651 m 1
 6 750 l 1
 898 750 l 1
 877 651 l 1
 -4 651 l 1
142 636 m 0
 142 917 347 1269 750 1269 c 0
 882 1269 983 1242 1079 1169 c 1
 1048 837 l 1
 960 850 l 1xfc
 918 1070 l 1
 872 1129 822 1174 693 1174 c 0
 467 1174 354 965 354 666 c 3
 354 343 497 83 750 83 c 0
 812 83 887 108 934 174 c 1
 977 401 l 1
 1065 414 l 1xfa
 1096 111 l 1
 970 12 864 -24 700 -24 c 0
 362 -24 142 234 142 636 c 0
EndSplineSet
Colour: ffffff
EndChar

StartChar: F
Encoding: 70 70 34
Width: 1064
VWidth: 0
Flags: HW
HStem: 0 74<65 115.939 589.917 648> 578 92<426 700> 1152 92<426 891> 1168 76<61 112.123>
VStem: 232 194<122 578 670 1126> 730 88<412 484.016> 925 88<936 1027.08>
LayerCount: 2
Fore
SplineSet
50 1168 m 1xde
 61 1244 l 1
 1054 1244 l 1xde
 1013 922 l 1
 925 936 l 1
 891 1152 l 1
 426 1152 l 1xee
 426 670 l 1
 713 670 l 1
 755 790 l 1
 845 804 l 1
 818 412 l 1
 730 398 l 1
 700 578 l 1
 426 578 l 1
 423 122 l 1
 661 83 l 1
 648 0 l 1
 57 0 l 1
 65 74 l 1
 232 121 l 1
 232 1126 l 1
 50 1168 l 1xde
EndSplineSet
Colour: ffffff
EndChar

StartChar: G
Encoding: 71 71 35
Width: 1299
VWidth: 0
Flags: HW
HStem: -31 108<569.542 940.164> 472 83<719 796.034> 1161 99<500.459 881.047>
VStem: 61 215<408.636 831.902> 943 196<99.5464 434> 1028 87<856 932.06>
LayerCount: 2
Fore
SplineSet
61 578 m 0xf8
 61 1007 385 1260 717 1260 c 0
 894 1260 1040 1222 1139 1163 c 1xf8
 1115 841 l 1
 1028 856 l 1xf4
 992 1047 l 1
 946 1093 824 1161 667 1161 c 0
 470 1161 276 1013 276 647 c 0
 276 350 454 77 771 77 c 0
 851 77 915 103 943 119 c 1
 943 434 l 1
 707 472 l 1
 719 555 l 1
 1275 555 l 1
 1263 480 l 1
 1139 439 l 1
 1139 79 l 1
 1007 0 858 -31 658 -31 c 0
 256 -31 61 237 61 578 c 0xf8
EndSplineSet
Colour: ffffff
EndChar

StartChar: Gbreve
Encoding: 286 286 36
Width: 1299
VWidth: 0
Flags: HW
HStem: -31 108<569.542 940.164> 472 83<719 796.034> 1161 99<500.459 881.047> 1379 108<645.858 857.81> 1569 20G<579.121 615 892 930.276>
VStem: 61 215<408.636 831.902> 561 54<1534.56 1566.28> 892 45<1543.32 1567.91> 943 196<99.5464 434> 1028 87<856 932.06>
LayerCount: 2
Fore
SplineSet
61 578 m 0xff80
 61 1007 385 1260 717 1260 c 0
 894 1260 1040 1222 1139 1163 c 1xff80
 1115 841 l 1
 1028 856 l 1xff40
 992 1047 l 1
 946 1093 824 1161 667 1161 c 0
 470 1161 276 1013 276 647 c 0
 276 350 454 77 771 77 c 0
 851 77 915 103 943 119 c 1
 943 434 l 1
 707 472 l 1
 719 555 l 1
 1275 555 l 1
 1263 480 l 1
 1139 439 l 1
 1139 79 l 1
 1007 0 858 -31 658 -31 c 0
 256 -31 61 237 61 578 c 0xff80
561 1556 m 1
 607 1589 l 1
 615 1572 l 1
 634 1532 683 1487 750 1487 c 0
 820 1487 865 1530 892 1573 c 1
 902 1590 l 1
 943 1561 l 1
 937 1542 l 2
 909 1462 849 1379 750 1379 c 0
 645 1379 584 1459 565 1536 c 2
 561 1556 l 1
EndSplineSet
Colour: ffffff
EndChar

StartChar: Gcommaaccent
Encoding: 290 290 37
Width: 1299
VWidth: 0
Flags: HW
HStem: -389 52<627.313 670.759> -31 108<569.542 940.164> 472 83<719 796.034> 1161 99<500.459 881.047>
VStem: 61 215<408.636 831.902> 707 110<-311.121 -185.933> 943 196<99.5464 434> 1028 87<856 932.06>
LayerCount: 2
Fore
SplineSet
61 578 m 0xfe
 61 1007 385 1260 717 1260 c 0
 894 1260 1040 1222 1139 1163 c 1xfe
 1115 841 l 1
 1028 856 l 1xfd
 992 1047 l 1
 946 1093 824 1161 667 1161 c 0
 470 1161 276 1013 276 647 c 0
 276 350 454 77 771 77 c 0
 851 77 915 103 943 119 c 1
 943 434 l 1
 707 472 l 1
 719 555 l 1
 1275 555 l 1
 1263 480 l 1
 1139 439 l 1
 1139 79 l 1
 1007 0 858 -31 658 -31 c 0
 256 -31 61 237 61 578 c 0xfe
615 -337 m 1
 685 -319 707 -282 707 -246 c 0
 707 -213 650 -170 628 -168 c 1
 637 -125 669 -85 716 -85 c 0
 756 -85 817 -114 817 -203 c 0
 817 -257 780 -354 632 -389 c 1
 615 -337 l 1
EndSplineSet
Colour: ffffff
EndChar

StartChar: Germandbls
Encoding: 7838 7838 39
Width: 1283
VWidth: 0
Flags: HW
HStem: -24 100<702.625 995.805> 0 73<34 85.111> 1161 89<519.168 762.414>
VStem: 198 191<119 999.963> 494 108<288.501 361> 521 170<808.078 1002.2> 1049 120<969.805 1010.73> 1050 182<144.133 353.679>
LayerCount: 2
Fore
SplineSet
26 0 m 1x75
 34 73 l 1
 198 119 l 1
 198 751 l 2
 198 1102 393 1250 689 1250 c 0
 874 1250 1169 1208 1169 1032 c 0
 1169 956 1127 923 1049 897 c 1
 1013 1001 976 1112 862 1112 c 0
 778 1112 691 1028 691 928 c 0x76
 691 637 1232 680 1232 316 c 0
 1232 90 1050 -24 826 -24 c 0
 684 -24 549 30 494 121 c 1
 507 376 l 1
 602 361 l 1
 637 184 l 1
 673 127 757 76 849 76 c 0xb9
 953 76 1050 110 1050 250 c 0
 1050 503 521 468 521 829 c 0
 521 992 621 1123 761 1155 c 1
 763 1158 l 1
 744 1160 695 1161 676 1161 c 0
 481 1161 387 1027 387 774 c 2
 389 0 l 1
 26 0 l 1x75
EndSplineSet
Colour: ffffff
EndChar

StartChar: Germandbls.alt
Encoding: 65537 -1 40
Width: 1283
VWidth: 0
Flags: HW
HStem: -24 100<715.589 985.297> 0 73<33 84.4226> 1161 89<509.391 902.969>
VStem: 198 190<119 973.19> 506 101<308.996 377> 1049 183<158.444 376.894>
DStem2: 586 687 835 751 0.589924 0.807459<198.568 542.443>
LayerCount: 2
Fore
SplineSet
25 0 m 1x7c
 33 73 l 1x7c
 198 119 l 1
 198 678 l 2
 198 1115 392 1250 688 1250 c 0
 851 1250 1076 1232 1134 1213 c 1
 1135 1142 l 1
 835 751 l 1
 922 689 1232 595 1232 332 c 0
 1232 106 1049 -24 825 -24 c 0
 683 -24 548 38 493 129 c 1
 506 392 l 1
 607 377 l 1
 646 192 l 1
 682 135 756 76 848 76 c 0xbc
 952 76 1049 126 1049 266 c 0
 1049 432 772 545 609 639 c 1
 586 687 l 1
 906 1125 l 1
 906 1130 l 1
 864 1148 694 1161 675 1161 c 0
 480 1161 386 1053 386 700 c 1
 388 0 l 1
 25 0 l 1x7c
EndSplineSet
Colour: ffffff
EndChar

StartChar: Germandbls.alt2
Encoding: 65538 -1 41
Width: 1283
VWidth: 0
Flags: HW
HStem: -24 100<708.911 995.805> 0 73<34 85.111> 1161 89<519.168 759.971>
VStem: 198 191<119 999.963> 507 101<300.996 369> 521 170<823.905 1012.7> 1028 97<884 982.698> 1050 182<144.133 354.331>
LayerCount: 2
Fore
SplineSet
26 0 m 1x75
 34 73 l 1
 198 119 l 1
 198 751 l 2
 198 1102 393 1250 689 1250 c 0
 874 1250 1051 1211 1145 1151 c 1
 1125 873 l 1
 1028 884 l 1
 1002 1063 l 1
 973 1086 921 1113 853 1113 c 0
 782 1113 691 1045 691 945 c 0x76
 691 654 1232 680 1232 316 c 0
 1232 90 1050 -24 826 -24 c 0
 684 -24 549 30 494 121 c 1
 507 384 l 1
 608 369 l 1
 647 184 l 1
 683 127 757 76 849 76 c 0xb9
 953 76 1050 110 1050 250 c 0
 1050 503 521 484 521 845 c 0
 521 1008 621 1123 761 1155 c 1
 763 1158 l 1
 744 1160 695 1161 676 1161 c 0
 481 1161 387 1027 387 774 c 2
 389 0 l 1
 26 0 l 1x75
EndSplineSet
Colour: ffffff
EndChar

StartChar: H
Encoding: 72 72 42
Width: 1478
VWidth: 0
Flags: HW
HStem: 0 80<65 98.954 565.888 598 888 921.751 1386.38 1421> 589 103<427 1054> 1168 76<61 112.123 531.62 595 882 933.464 1353 1416>
VStem: 232 195<121 589 692 1126> 1054 195<121 589 692 1126>
LayerCount: 2
Fore
SplineSet
50 1168 m 1
 61 1244 l 1
 605 1244 l 1
 595 1168 l 1
 427 1130 l 1
 427 692 l 1
 1054 692 l 1
 1054 1126 l 1
 871 1168 l 1
 882 1244 l 1
 1428 1244 l 1
 1416 1168 l 1
 1249 1130 l 1
 1249 114 l 1
 1431 80 l 1
 1421 0 l 1
 878 0 l 1
 888 74 l 1
 1054 121 l 1
 1054 589 l 1
 427 589 l 1
 427 114 l 1
 611 80 l 1
 598 0 l 1
 57 0 l 1
 65 74 l 1
 232 121 l 1
 232 1126 l 1
 50 1168 l 1
EndSplineSet
Colour: ffffff
EndChar

StartChar: Hbar
Encoding: 294 294 43
Width: 1486
VWidth: 0
Flags: HW
HStem: 0 80<93 126.954 593.888 626 916 949.751 1414.38 1449> 589 103<455 1082> 873 117<132 325 1187 1369> 888 86<358 1163> 1168 76<89 140.123 559.62 623 910 961.464 1381 1444>
VStem: 260 195<121 589 692 1126> 1082 195<121 589 692 1126>
LayerCount: 2
Fore
SplineSet
123 873 m 1xee
 132 990 l 1
 325 990 l 1xee
 358 974 l 1
 1163 974 l 1xde
 1182 990 l 1
 1376 990 l 1
 1369 873 l 1
 1187 873 l 1xee
 1163 888 l 1
 352 888 l 1xde
 325 873 l 1
 123 873 l 1xee
EndSplineSet
Refer: 42 72 N 1 0 0 1 28 0 2
Colour: ffffff
EndChar

StartChar: I
Encoding: 73 73 44
Width: 655
VWidth: 0
Flags: HW
HStem: 0 80<65 98.9539 562.623 597> 1168 76<61 112.123 531.243 595>
VStem: 232 194<121 1126>
LayerCount: 2
Fore
SplineSet
50 1168 m 1
 61 1244 l 1
 605 1244 l 5
 595 1168 l 1
 426 1130 l 1
 426 114 l 1
 607 80 l 1
 597 0 l 1
 57 0 l 1
 65 74 l 1
 232 121 l 1
 232 1126 l 1
 50 1168 l 1
EndSplineSet
Colour: ffffff
EndChar

StartChar: Iacute
Encoding: 205 205 45
Width: 655
VWidth: 0
Flags: HW
HStem: 0 80<65 98.9539 562.623 597> 1168 76<61 112.123 531.243 595>
VStem: 232 194<121 1126>
LayerCount: 2
Fore
SplineSet
50 1168 m 1
 61 1244 l 1
 605 1244 l 1
 595 1168 l 1
 426 1130 l 1
 426 114 l 1
 607 80 l 1
 597 0 l 1
 57 0 l 1
 65 74 l 1
 232 121 l 1
 232 1126 l 1
 50 1168 l 1
289 1385 m 1
 412 1710 l 1
 523 1670 l 1
 341 1354 l 1
 289 1385 l 1
EndSplineSet
Colour: ffffff
EndChar

StartChar: Icaron
Encoding: 463 463 46
Width: 655
VWidth: 0
Flags: HW
HStem: 0 80<65 98.9539 562.623 597> 1168 76<61 112.123 531.243 595> 1569 20G<171.194 217.833 461.429 508.333>
VStem: 232 194<121 1126>
DStem2: 197 1589 117 1527 0.733231 -0.67998<0 207.902> 356 1445 351 1376 0.692867 0.721065<0 186.172>
LayerCount: 2
Fore
SplineSet
50 1168 m 1
 61 1244 l 1
 605 1244 l 1
 595 1168 l 1
 426 1130 l 1
 426 114 l 1
 607 80 l 1
 597 0 l 1
 57 0 l 1
 65 74 l 1
 232 121 l 1
 232 1126 l 1
 50 1168 l 1
117 1527 m 1
 197 1589 l 1
 347 1445 l 1
 356 1445 l 1
 479 1585 l 1
 523 1555 l 1
 351 1376 l 1
 296 1361 l 1
 117 1527 l 1
EndSplineSet
Colour: ffffff
EndChar

StartChar: Icircumflex
Encoding: 206 206 47
Width: 655
VWidth: 0
Flags: HW
HStem: 0 80<65 98.9539 562.623 597> 1168 76<61 112.123 531.243 595> 1565 20G<299 373.243>
VStem: 232 194<121 1126>
LayerCount: 2
Fore
SplineSet
50 1168 m 1
 61 1244 l 1
 605 1244 l 1
 595 1168 l 1
 426 1130 l 1
 426 114 l 1
 607 80 l 1
 597 0 l 1
 57 0 l 1
 65 74 l 1
 232 121 l 1
 232 1126 l 1
 50 1168 l 1
132 1392 m 1
 299 1572 l 1
 354 1585 l 1
 532 1400 l 1
 483 1364 l 1
 319 1472 l 1
 309 1472 l 1
 169 1361 l 1
 132 1392 l 1
EndSplineSet
Colour: ffffff
EndChar

StartChar: Idieresis
Encoding: 207 207 48
Width: 655
VWidth: 0
Flags: HW
HStem: 0 80<65 98.9539 562.623 597> 1168 76<61 112.123 531.243 595> 1373 157<118.414 271.034 385.414 540.511>
VStem: 110 169<1382.55 1520.55> 232 194<121 1126> 377 172<1383.46 1519.66>
LayerCount: 2
Fore
SplineSet
50 1168 m 1xe8
 61 1244 l 1
 605 1244 l 1
 595 1168 l 1
 426 1130 l 1
 426 114 l 1
 607 80 l 1
 597 0 l 1
 57 0 l 1
 65 74 l 1
 232 121 l 1
 232 1126 l 1
 50 1168 l 1xe8
110 1453 m 0xf0
 110 1500 154 1530 194 1530 c 0
 238 1530 279 1499 279 1453 c 0
 279 1404 238 1373 194 1373 c 0
 151 1373 110 1404 110 1453 c 0xf0
377 1453 m 0xe4
 377 1500 421 1530 461 1530 c 0
 505 1530 549 1499 549 1453 c 0
 549 1404 505 1373 461 1373 c 0
 418 1373 377 1404 377 1453 c 0xe4
EndSplineSet
Colour: ffffff
EndChar

StartChar: Idotaccent
Encoding: 304 304 49
Width: 655
VWidth: 0
Flags: HW
HStem: 0 80<65 98.9539 562.623 597> 1168 76<61 112.123 531.243 595> 1360 237<235.355 418.356>
VStem: 206 243<1390.74 1569.55> 232 194<121 1126>
LayerCount: 2
Fore
SplineSet
50 1168 m 1xe8
 61 1244 l 1
 605 1244 l 1
 595 1168 l 1
 426 1130 l 1
 426 114 l 1
 607 80 l 1
 597 0 l 1
 57 0 l 1
 65 74 l 1
 232 121 l 1
 232 1126 l 1
 50 1168 l 1xe8
206 1484 m 0xf0
 206 1548 264 1597 326 1597 c 0
 392 1597 449 1547 449 1483 c 0
 449 1416 392 1360 326 1360 c 0
 260 1360 206 1417 206 1484 c 0xf0
EndSplineSet
Colour: ffffff
EndChar

StartChar: Igrave
Encoding: 204 204 50
Width: 655
VWidth: 0
Flags: HW
HStem: 0 80<65 98.9539 562.623 597> 1168 76<61 112.123 531.243 595>
VStem: 232 194<121 1126>
LayerCount: 2
Fore
SplineSet
50 1168 m 1
 61 1244 l 1
 605 1244 l 1
 595 1168 l 1
 426 1130 l 1
 426 114 l 1
 607 80 l 1
 597 0 l 1
 57 0 l 1
 65 74 l 1
 232 121 l 1
 232 1126 l 1
 50 1168 l 1
133 1664 m 1
 249 1702 l 1
 381 1368 l 1
 323 1334 l 1
 133 1664 l 1
EndSplineSet
Colour: ffffff
EndChar

StartChar: Imacron
Encoding: 298 298 51
Width: 655
VWidth: 0
Flags: HW
HStem: 0 80<65 98.9539 562.623 597> 1168 76<61 112.123 531.243 595> 1383 101<117 544>
VStem: 232 194<121 1126>
LayerCount: 2
Fore
SplineSet
50 1168 m 1
 61 1244 l 1
 605 1244 l 1
 595 1168 l 1
 426 1130 l 1
 426 114 l 1
 607 80 l 1
 597 0 l 1
 57 0 l 1
 65 74 l 1
 232 121 l 1
 232 1126 l 1
 50 1168 l 1
104 1383 m 1
 117 1484 l 1
 558 1484 l 1
 544 1383 l 1
 104 1383 l 1
EndSplineSet
Colour: ffffff
EndChar

StartChar: Iogonek
Encoding: 302 302 52
Width: 664
VWidth: 0
Flags: HW
HStem: -386 51<612.239 621.12> 0 74<65 115.939 560.069 597> 1168 76<61 112.123 531.243 595>
VStem: 232 194<121 1126> 374 148<-266.112 -92.909>
LayerCount: 2
Fore
SplineSet
50 1168 m 1xf0
 61 1244 l 1
 605 1244 l 1
 595 1168 l 1
 426 1130 l 1
 426 114 l 1xf0
 607 80 l 1
 597 0 l 1
 581 0 l 1
 524 -95 522 -130 522 -148 c 0
 522 -210 557 -282 647 -335 c 1
 611 -386 l 1
 467 -371 374 -294 374 -208 c 0xe8
 374 -156 391 -104 508 0 c 1
 57 0 l 1
 65 74 l 1
 232 121 l 1
 232 1126 l 1
 50 1168 l 1xf0
EndSplineSet
Colour: ffffff
EndChar

StartChar: J
Encoding: 74 74 53
Width: 638
VWidth: 0
Flags: HW
HStem: 1168 76<62 113.781 532.865 597>
VStem: 232 194<29.8691 1126>
LayerCount: 2
Fore
SplineSet
-4 -237 m 1
 151 -90 232 37 232 197 c 2
 233 1126 l 1
 52 1168 l 1
 62 1244 l 1
 607 1244 l 1
 597 1168 l 1
 427 1130 l 1
 426 385 l 2
 425 -24 337 -138 50 -326 c 1
 -4 -237 l 1
EndSplineSet
Colour: ffffff
EndChar

StartChar: K
Encoding: 75 75 54
Width: 1238
VWidth: 0
Flags: HW
HStem: -21 21G<1025.5 1129> 0 80<64 93.261 582.193 607> 1168 76<61 100.128 548.536 601 704 743.278 1131.01 1185>
VStem: 236 193<129 1117>
DStem2: 605 798 635 653 0.623268 0.782009<-94.6932 405.913>
LayerCount: 2
Fore
SplineSet
47 1168 m 1x70
 61 1244 l 1
 611 1244 l 1
 601 1168 l 1
 429 1121 l 1
 429 124 l 1
 618 80 l 1
 607 0 l 1
 54 0 l 1
 64 74 l 1
 236 129 l 1
 236 1117 l 1
 47 1168 l 1x70
453 626 m 1
 481 654 574 758 605 798 c 2
 851 1121 l 1
 696 1168 l 1
 704 1244 l 1
 1197 1244 l 1
 1185 1168 l 1
 1008 1121 l 1
 635 653 l 1
 862 385 l 2
 1013 206 1085 123 1213 83 c 2
 1250 70 l 1
 1240 1 l 1
 1194 -15 1149 -21 1109 -21 c 0xb0
 942 -21 820 104 706 261 c 2
 454 605 l 1
 453 626 l 1
EndSplineSet
Colour: ffffff
EndChar

StartChar: Kcommaaccent
Encoding: 310 310 55
Width: 1238
VWidth: 0
Flags: HW
HStem: -411 54<658.221 701.759> -21 21G<1025.5 1129> 0 80<64 93.261 582.193 607> 1168 76<61 100.128 548.536 601 704 743.278 1131.01 1185>
VStem: 236 193<129 1117> 738 110<-331.804 -206.091>
DStem2: 605 798 635 653 0.623268 0.782009<-94.6932 405.913>
LayerCount: 2
Fore
SplineSet
47 1168 m 1xbc
 61 1244 l 1
 611 1244 l 1
 601 1168 l 1
 429 1121 l 1
 429 124 l 1
 618 80 l 1
 607 0 l 1
 54 0 l 1
 64 74 l 1
 236 129 l 1
 236 1117 l 1
 47 1168 l 1xbc
453 626 m 1
 481 654 574 758 605 798 c 2
 851 1121 l 1
 696 1168 l 1
 704 1244 l 1
 1197 1244 l 1
 1185 1168 l 1
 1008 1121 l 1
 635 653 l 1
 862 385 l 2
 1013 206 1085 123 1213 83 c 2
 1250 70 l 1
 1240 1 l 1
 1194 -15 1149 -21 1109 -21 c 0xdc
 942 -21 820 104 706 261 c 2
 454 605 l 1
 453 626 l 1
645 -357 m 1
 715 -339 738 -303 738 -267 c 0
 738 -234 680 -190 658 -188 c 1
 667 -145 700 -105 747 -105 c 0
 787 -105 848 -134 848 -223 c 0
 848 -277 811 -376 663 -411 c 1
 645 -357 l 1
EndSplineSet
Colour: ffffff
EndChar

StartChar: L
Encoding: 76 76 56
Width: 1097
VWidth: 0
Flags: HW
HStem: 0 96<427 869> 0 74<67 117.634> 1168 76<58 97.8464 545.841 598>
VStem: 233 194<121 1117>
LayerCount: 2
Fore
SplineSet
58 0 m 5x70
 67 74 l 5x70
 233 121 l 5
 233 1117 l 5
 45 1168 l 5
 58 1244 l 5
 608 1244 l 5
 598 1168 l 5
 427 1121 l 5
 427 96 l 5
 869 96 l 5xb0
 1000 344 l 5
 1085 331 l 5
 1048 0 l 5
 58 0 l 5x70
EndSplineSet
Colour: ffffff
EndChar

StartChar: Lacute
Encoding: 313 313 57
Width: 1097
VWidth: 0
Flags: HW
HStem: 0 96<427 869> 0 74<67 117.634> 1168 76<58 97.8464 545.841 598>
VStem: 233 194<121 1117>
LayerCount: 2
Fore
SplineSet
45 1168 m 1x70
 58 1244 l 1
 608 1244 l 1
 598 1168 l 1
 427 1121 l 1
 427 96 l 1
 869 96 l 1xb0
 1000 344 l 1
 1085 331 l 1
 1048 0 l 1
 58 0 l 1
 67 74 l 1
 233 121 l 1
 233 1117 l 1
 45 1168 l 1x70
260 1385 m 1
 383 1710 l 1
 494 1670 l 1
 311 1354 l 1
 260 1385 l 1
EndSplineSet
Colour: ffffff
EndChar

StartChar: Lcaron
Encoding: 317 317 58
Width: 1097
VWidth: 0
Flags: HW
HStem: 0 96<427 869> 0 74<67 117.634> 750 69<681.221 743.523> 1100 181<713.707 821.92> 1168 76<58 97.8464 545.841 598>
VStem: 233 194<121 1117> 845 137<913.132 1150.74>
LayerCount: 2
Fore
SplineSet
45 1168 m 1x6e
 58 1244 l 1
 608 1244 l 1
 598 1168 l 1
 427 1121 l 1
 427 96 l 1
 869 96 l 1xae
 1000 344 l 1
 1085 331 l 1
 1048 0 l 1
 58 0 l 1
 67 74 l 1
 233 121 l 1
 233 1117 l 1
 45 1168 l 1x6e
663 819 m 1
 794 853 845 928 845 992 c 0
 845 1048 798 1100 728 1100 c 0
 718 1100 710 1098 700 1097 c 1
 692 1118 684 1137 684 1160 c 0
 684 1240 757 1281 807 1281 c 0x36
 877 1281 982 1224 982 1073 c 0
 982 980 949 820 686 750 c 1
 663 819 l 1
EndSplineSet
Colour: ffffff
EndChar

StartChar: Lcommaaccent
Encoding: 315 315 59
Width: 1097
VWidth: 0
Flags: HW
HStem: -372 52<477.762 521.734> 0 96<427 869> 0 74<67 117.634> 1168 76<58 97.8464 545.841 598>
VStem: 233 194<121 1117> 558 109<-296.109 -170.204>
LayerCount: 2
Fore
SplineSet
45 1168 m 1xbc
 58 1244 l 1
 608 1244 l 1
 598 1168 l 1
 427 1121 l 1
 427 96 l 1
 869 96 l 1xdc
 1000 344 l 1
 1085 331 l 1
 1048 0 l 1
 58 0 l 1
 67 74 l 1
 233 121 l 1
 233 1117 l 1
 45 1168 l 1xbc
464 -320 m 1
 534 -302 558 -266 558 -230 c 0
 558 -197 499 -153 477 -151 c 1
 486 -108 519 -68 566 -68 c 0
 606 -68 667 -98 667 -187 c 0
 667 -241 631 -337 483 -372 c 1
 464 -320 l 1
EndSplineSet
Colour: ffffff
EndChar

StartChar: Lslash
Encoding: 321 321 60
Width: 1097
VWidth: 0
Flags: HW
HStem: 0 74<67 117.634> 0 96<427 869> 1168 76<58 97.8464 545.841 598>
VStem: 233 194<121 1117>
DStem2: 87 621 80 507 0.860891 0.508789<0 503.988>
LayerCount: 2
Fore
SplineSet
80 507 m 1x30
 87 621 l 1
 577 907 l 1
 569 796 l 1
 80 507 l 1x30
EndSplineSet
Refer: 56 76 N 1 0 0 1 0 0 2
Colour: ffffff
EndChar

StartChar: M
Encoding: 77 77 61
Width: 1700
VWidth: 0
Flags: HW
HStem: 0 74<35 85.9386 451.413 504 1139 1189.63 1608.77 1664> 1168 76<102 154.464 1544.62 1608>
DStem2: 202 121 334 114 0.072446 0.997372<2.58126 857.904> 581 1050 397 967 0.344078 -0.938941<14.6218 786.499> 842 308 868 50 0.370887 0.928678<0 797.311> 1440 1130 1249 1004 0.0511142 -0.998693<116.072 1000.78>
LayerCount: 2
Fore
SplineSet
24 0 m 1
 35 74 l 1
 202 121 l 1
 275 1126 l 1
 92 1168 l 1
 102 1244 l 1
 505 1244 l 1
 583 1050 l 1
 845 313 l 1
 1152 1083 l 1
 1223 1244 l 1
 1618 1244 l 1
 1608 1168 l 1
 1440 1130 l 1
 1492 114 l 1
 1674 80 l 1
 1664 0 l 1
 1128 0 l 1
 1139 74 l 1
 1305 121 l 1
 1249 1004 l 1
 868 50 l 1
 740 31 l 1
 397 967 l 1
 334 114 l 1
 517 80 l 1
 504 0 l 1
 24 0 l 1
EndSplineSet
Colour: ffffff
EndChar

StartChar: N
Encoding: 78 78 62
Width: 1390
VWidth: 0
Flags: HW
HStem: -30 21G<1009.62 1121.71> 0 80<65 98.9539 498.133 532> 1168 76<61 101.16 881 932.147 1280 1343>
VStem: 232 128<121 961> 1054 122<271 1126>
DStem2: 412 1244 360 961 0.556054 -0.831146<206.299 1165.69>
LayerCount: 2
Fore
SplineSet
50 1168 m 1
 61 1244 l 1
 411 1244 l 1
 1054 274 l 1
 1054 1126 l 1
 869 1168 l 1
 881 1244 l 1
 1356 1244 l 1
 1343 1168 l 1
 1176 1130 l 1
 1176 1 l 1
 1023 -30 l 1
 360 961 l 1
 360 114 l 1
 543 80 l 1
 532 0 l 1
 57 0 l 1
 65 74 l 1
 232 121 l 1
 232 1117 l 1
 50 1168 l 1
EndSplineSet
Colour: ffffff
EndChar

StartChar: Nacute
Encoding: 323 323 63
Width: 1390
VWidth: 0
Flags: HW
HStem: -30 21G<1009.62 1121.71> 0 80<65 98.9539 498.133 532> 1168 76<61 101.16 881 932.147 1280 1343>
VStem: 232 128<121 961> 1054 122<271 1126>
DStem2: 412 1244 360 961 0.556054 -0.831146<206.299 1165.69>
LayerCount: 2
Fore
SplineSet
50 1168 m 1
 61 1244 l 1
 412 1244 l 1
 1054 271 l 1
 1054 1126 l 1
 869 1168 l 1
 881 1244 l 1
 1356 1244 l 1
 1343 1168 l 1
 1176 1130 l 1
 1176 1 l 1
 1023 -30 l 1
 360 961 l 1
 360 114 l 1
 543 80 l 1
 532 0 l 1
 57 0 l 1
 65 74 l 1
 232 121 l 1
 232 1117 l 1
 50 1168 l 1
598 1385 m 1
 721 1710 l 1
 832 1670 l 1
 650 1354 l 1
 598 1385 l 1
EndSplineSet
Colour: ffffff
EndChar

StartChar: Ncaron
Encoding: 327 327 64
Width: 1390
VWidth: 0
Flags: HW
HStem: -30 21G<1009.62 1121.71> 0 80<65 98.9539 498.133 532> 1168 76<61 101.16 881 932.147 1280 1343> 1569 20G<521.194 567.694 811.429 858.333>
VStem: 232 128<121 961> 1054 122<271 1126>
DStem2: 412 1244 360 961 0.556054 -0.831146<206.299 1165.69> 547 1589 467 1527 0.735117 -0.677941<0 207.156> 706 1445 701 1376 0.692867 0.721065<0 186.172>
LayerCount: 2
Fore
SplineSet
50 1168 m 1
 61 1244 l 1
 412 1244 l 1
 1054 271 l 1
 1054 1126 l 1
 869 1168 l 1
 881 1244 l 1
 1356 1244 l 1
 1343 1168 l 1
 1176 1130 l 1
 1176 1 l 1
 1023 -30 l 1
 360 961 l 1
 360 114 l 1
 543 80 l 1
 532 0 l 1
 57 0 l 1
 65 74 l 1
 232 121 l 1
 232 1117 l 1
 50 1168 l 1
467 1527 m 1
 547 1589 l 1
 696 1445 l 1
 706 1445 l 1
 829 1585 l 1
 873 1555 l 1
 701 1376 l 1
 647 1361 l 1
 467 1527 l 1
EndSplineSet
Colour: ffffff
EndChar

StartChar: Ncommaaccent
Encoding: 325 325 65
Width: 1390
VWidth: 0
Flags: HW
HStem: -389 52<615.762 659.759> -30 21G<1009.62 1121.71> 0 80<65 98.9539 498.133 532> 1168 76<61 101.16 881 932.147 1280 1343>
VStem: 232 128<121 961> 696 110<-311.121 -185.933> 1054 122<271 1126>
DStem2: 412 1244 360 961 0.556054 -0.831146<206.299 1165.69>
LayerCount: 2
Fore
SplineSet
50 1168 m 1
 61 1244 l 1
 412 1244 l 1
 1054 271 l 1
 1054 1126 l 1
 869 1168 l 1
 881 1244 l 1
 1356 1244 l 1
 1343 1168 l 1
 1176 1130 l 1
 1176 1 l 1
 1023 -30 l 1
 360 961 l 1
 360 114 l 1
 543 80 l 1
 532 0 l 1
 57 0 l 1
 65 74 l 1
 232 121 l 1
 232 1117 l 1
 50 1168 l 1
602 -337 m 1
 672 -319 696 -282 696 -246 c 0
 696 -213 638 -170 616 -168 c 1
 625 -125 658 -85 705 -85 c 0
 745 -85 806 -114 806 -203 c 0
 806 -257 769 -354 621 -389 c 1
 602 -337 l 1
EndSplineSet
Colour: ffffff
EndChar

StartChar: Ntilde
Encoding: 209 209 66
Width: 1390
VWidth: 0
Flags: HW
HStem: -30 21G<1009.62 1121.71> 0 80<65 98.9539 498.133 532> 1168 76<61 101.16 881 932.147 1280 1343> 1391 105<695.914 859.713> 1423 103<490.971 648.664>
VStem: 232 128<121 961> 1054 122<271 1126>
DStem2: 412 1244 360 961 0.556054 -0.831146<206.299 1165.69> 802 1496 546 1423 0.990391 -0.138298<-246.415 -6.46336>
LayerCount: 2
Fore
SplineSet
50 1168 m 1xe6
 61 1244 l 1
 412 1244 l 1
 1054 271 l 1
 1054 1126 l 1
 869 1168 l 1
 881 1244 l 1
 1356 1244 l 1
 1343 1168 l 1
 1176 1130 l 1
 1176 1 l 1
 1023 -30 l 1
 360 961 l 1
 360 114 l 1
 543 80 l 1
 532 0 l 1
 57 0 l 1
 65 74 l 1
 232 121 l 1
 232 1117 l 1
 50 1168 l 1xe6
445 1383 m 1
 445 1383 477 1526 566 1526 c 0
 570 1526 576 1527 580 1526 c 2xee
 802 1496 l 1
 807 1496 l 2
 832 1496 862 1536 862 1536 c 1
 910 1535 l 1
 910 1535 873 1391 781 1391 c 0xf6
 777 1391 772 1391 768 1392 c 2
 546 1423 l 1
 543 1423 l 2xee
 515 1423 483 1376 483 1376 c 1
 445 1383 l 1
EndSplineSet
Colour: ffffff
EndChar

StartChar: O
Encoding: 79 79 67
Width: 1342
VWidth: 0
Flags: HW
HStem: -27 106<524.151 869.468> 1176 96<470.169 820.972>
VStem: 61 222<381.135 879.357> 1062 222<372.174 858.962>
LayerCount: 2
Fore
SplineSet
61 619 m 0
 61 1004 308 1272 706 1272 c 0
 1068 1272 1284 970 1284 619 c 0
 1284 274 1051 -27 636 -27 c 0
 291 -27 61 257 61 619 c 0
283 676 m 0
 283 382 398 79 686 79 c 0
 990 79 1062 330 1062 573 c 0
 1062 856 945 1176 658 1176 c 0
 358 1176 283 937 283 676 c 0
EndSplineSet
Colour: ffffff
EndChar

StartChar: OE
Encoding: 338 338 68
Width: 1708
VWidth: 0
Flags: HW
HStem: -27 106<492.617 917.022> 0 96<995 1487> 583 93<995 1267> 1152 92<995 1464> 1176 96<452.389 792.051>
VStem: 64 222<360.715 903.492> 802 193<101.617 583 676 1147.73> 1300 87<421 484.024> 1504 86<937 1014.06>
LayerCount: 2
Fore
SplineSet
64 619 m 0xa780
 64 1009 266 1272 660 1272 c 0xaf80
 730 1272 792 1263 845 1244 c 1
 1622 1244 l 1
 1590 924 l 1
 1504 937 l 1
 1464 1152 l 1
 995 1152 l 1
 995 676 l 1
 1283 676 l 1
 1325 796 l 1
 1419 810 l 1
 1387 421 l 1
 1300 408 l 1
 1267 583 l 1
 995 583 l 1
 995 96 l 1
 1487 96 l 1
 1585 326 l 1
 1668 313 l 1
 1639 0 l 1
 798 0 l 1x7780
 732 -16 663 -27 590 -27 c 0
 252 -27 64 247 64 619 c 0xa780
286 676 m 0
 286 415 373 79 633 79 c 0
 692 79 749 92 802 122 c 1
 802 1126 l 1
 746 1159 681 1176 611 1176 c 0
 393 1176 286 1010 286 676 c 0
EndSplineSet
Colour: ffffff
EndChar

StartChar: Oacute
Encoding: 211 211 69
Width: 1342
VWidth: 0
Flags: HW
HStem: -27 106<529.213 881.836> 1176 96<482.169 832.911>
VStem: 73 222<381.135 879.357> 1073 223<372.174 858.962>
LayerCount: 2
Fore
SplineSet
73 619 m 0
 73 1004 320 1272 718 1272 c 0
 1080 1272 1296 970 1296 619 c 0
 1296 274 1064 -27 649 -27 c 0
 304 -27 73 257 73 619 c 0
295 676 m 0
 295 382 410 79 698 79 c 0
 1002 79 1073 330 1073 573 c 0
 1073 856 957 1176 670 1176 c 0
 370 1176 295 937 295 676 c 0
574 1380 m 1
 696 1705 l 1
 808 1666 l 1
 624 1348 l 1
 574 1380 l 1
EndSplineSet
Colour: ffffff
EndChar

StartChar: Ocaron
Encoding: 465 465 70
Width: 1342
VWidth: 0
Flags: HW
HStem: -27 106<524.151 869.468> 1176 96<470.169 820.972> 1569 20G<524.194 570.833 814.429 860.667>
VStem: 61 222<381.135 879.357> 1062 222<372.174 858.962>
DStem2: 550 1589 470 1527 0.733231 -0.67998<0 207.902> 709 1445 704 1376 0.690764 0.72308<0 186.195>
LayerCount: 2
Fore
SplineSet
61 619 m 0
 61 1004 308 1272 706 1272 c 0
 1068 1272 1284 970 1284 619 c 0
 1284 274 1051 -27 636 -27 c 0
 291 -27 61 257 61 619 c 0
283 676 m 0
 283 382 398 79 686 79 c 0
 990 79 1062 330 1062 573 c 0
 1062 856 945 1176 658 1176 c 0
 358 1176 283 937 283 676 c 0
470 1527 m 1
 550 1589 l 1
 700 1445 l 1
 709 1445 l 1
 832 1585 l 1
 875 1555 l 1
 704 1376 l 1
 649 1361 l 1
 470 1527 l 1
EndSplineSet
Colour: ffffff
EndChar

StartChar: Ocircumflex
Encoding: 212 212 71
Width: 1342
VWidth: 0
Flags: HW
HStem: -27 106<524.151 869.468> 1176 96<470.169 820.972> 1565 20G<652 726.243>
VStem: 61 222<381.135 879.357> 1062 222<372.174 858.962>
LayerCount: 2
Fore
SplineSet
61 619 m 0
 61 1004 308 1272 706 1272 c 0
 1068 1272 1284 970 1284 619 c 0
 1284 274 1051 -27 636 -27 c 0
 291 -27 61 257 61 619 c 0
283 676 m 0
 283 382 398 79 686 79 c 0
 990 79 1062 330 1062 573 c 0
 1062 856 945 1176 658 1176 c 0
 358 1176 283 937 283 676 c 0
484 1392 m 1
 652 1572 l 1
 707 1585 l 1
 885 1400 l 1
 836 1364 l 1
 672 1472 l 1
 662 1472 l 1
 522 1361 l 1
 484 1392 l 1
EndSplineSet
Colour: ffffff
EndChar

StartChar: Odieresis
Encoding: 214 214 72
Width: 1342
VWidth: 0
Flags: HW
HStem: -27 106<524.151 869.468> 1176 96<470.169 820.972> 1373 157<471.414 624.034 738.414 893.511>
VStem: 61 222<381.135 879.357> 463 169<1382.55 1520.55> 730 172<1383.46 1519.66> 1062 222<372.174 858.962>
LayerCount: 2
Fore
SplineSet
61 619 m 0
 61 1004 308 1272 706 1272 c 0
 1068 1272 1284 970 1284 619 c 0
 1284 274 1051 -27 636 -27 c 0
 291 -27 61 257 61 619 c 0
283 676 m 0
 283 382 398 79 686 79 c 0
 990 79 1062 330 1062 573 c 0
 1062 856 945 1176 658 1176 c 0
 358 1176 283 937 283 676 c 0
463 1453 m 0
 463 1500 507 1530 547 1530 c 0
 591 1530 632 1499 632 1453 c 0
 632 1404 591 1373 547 1373 c 0
 504 1373 463 1404 463 1453 c 0
730 1453 m 0
 730 1500 774 1530 814 1530 c 0
 858 1530 902 1499 902 1453 c 0
 902 1404 858 1373 814 1373 c 0
 771 1373 730 1404 730 1453 c 0
EndSplineSet
Colour: ffffff
EndChar

StartChar: Ograve
Encoding: 210 210 73
Width: 1342
VWidth: 0
Flags: HW
HStem: -27 106<524.151 869.468> 1176 96<470.169 820.972>
VStem: 61 222<381.135 879.357> 1062 222<372.174 858.962>
LayerCount: 2
Fore
SplineSet
61 619 m 0
 61 1004 308 1272 706 1272 c 0
 1068 1272 1284 970 1284 619 c 0
 1284 274 1051 -27 636 -27 c 0
 291 -27 61 257 61 619 c 0
283 676 m 0
 283 382 398 79 686 79 c 0
 990 79 1062 330 1062 573 c 0
 1062 856 945 1176 658 1176 c 0
 358 1176 283 937 283 676 c 0
527 1664 m 1
 642 1702 l 1
 774 1368 l 1
 717 1334 l 1
 527 1664 l 1
EndSplineSet
Colour: ffffff
EndChar

StartChar: Ohungarumlaut
Encoding: 336 336 74
Width: 1342
VWidth: 0
Flags: HW
HStem: -27 106<524.151 869.468> 1176 96<470.169 820.972>
VStem: 61 222<381.135 879.357> 1062 222<372.174 858.962>
LayerCount: 2
Fore
SplineSet
61 619 m 0
 61 1004 308 1272 706 1272 c 0
 1068 1272 1284 970 1284 619 c 0
 1284 274 1051 -27 636 -27 c 0
 291 -27 61 257 61 619 c 0
283 676 m 0
 283 382 398 79 686 79 c 0
 990 79 1062 330 1062 573 c 0
 1062 856 945 1176 658 1176 c 0
 358 1176 283 937 283 676 c 0
506 1413 m 1
 760 1621 l 1
 833 1535 l 1
 534 1364 l 1
 506 1413 l 1
717 1413 m 1
 964 1613 l 1
 1035 1530 l 1
 744 1364 l 1
 717 1413 l 1
EndSplineSet
Colour: ffffff
EndChar

StartChar: Omacron
Encoding: 332 332 75
Width: 1342
VWidth: 0
Flags: HW
HStem: -27 106<524.151 869.468> 1176 96<470.169 820.972> 1383 101<470 897>
VStem: 61 222<381.135 879.357> 1062 222<372.174 858.962>
LayerCount: 2
Fore
SplineSet
61 619 m 0
 61 1004 308 1272 706 1272 c 0
 1068 1272 1284 970 1284 619 c 0
 1284 274 1051 -27 636 -27 c 0
 291 -27 61 257 61 619 c 0
283 676 m 0
 283 382 398 79 686 79 c 0
 990 79 1062 330 1062 573 c 0
 1062 856 945 1176 658 1176 c 0
 358 1176 283 937 283 676 c 0
457 1383 m 1
 470 1484 l 1
 910 1484 l 1
 897 1383 l 1
 457 1383 l 1
EndSplineSet
Colour: ffffff
EndChar

StartChar: Oslash
Encoding: 216 216 76
Width: 1342
VWidth: 0
Flags: HW
HStem: -27 106<493.542 881.836> 1176 96<482.169 832.911>
VStem: 73 222<381.135 879.357> 1073 223<372.174 858.962>
LayerCount: 2
Fore
SplineSet
228 -111 m 1
 359 133 l 1
 399 157 l 1
 925 1139 l 1
 917 1178 l 1
 984 1304 l 1
 1136 1312 l 1
 1039 1134 l 1
 988 1090 l 1
 445 80 l 1
 458 52 l 1
 375 -102 l 1
 228 -111 l 1
295 676 m 0
 295 382 410 79 698 79 c 0
 1002 79 1073 330 1073 573 c 0
 1073 856 957 1176 670 1176 c 0
 370 1176 295 937 295 676 c 0
73 619 m 0
 73 1004 320 1272 718 1272 c 0
 1080 1272 1296 970 1296 619 c 0
 1296 274 1064 -27 649 -27 c 0
 304 -27 73 257 73 619 c 0
EndSplineSet
Colour: ffffff
EndChar

StartChar: Otilde
Encoding: 213 213 77
Width: 1342
VWidth: 0
Flags: HW
HStem: -27 106<524.151 869.468> 1176 96<470.169 820.972> 1391 105<697.958 862.008> 1423 103<493.266 650.589>
VStem: 61 222<381.135 879.357> 1062 222<372.174 858.962>
DStem2: 805 1496 547 1423 0.990559 -0.137086<-246.548 -7.58397>
LayerCount: 2
Fore
SplineSet
61 619 m 0xcc
 61 1004 308 1272 706 1272 c 0
 1068 1272 1284 970 1284 619 c 0
 1284 274 1051 -27 636 -27 c 0
 291 -27 61 257 61 619 c 0xcc
283 676 m 0
 283 382 398 79 686 79 c 0
 990 79 1062 330 1062 573 c 0
 1062 856 945 1176 658 1176 c 0
 358 1176 283 937 283 676 c 0
448 1383 m 1
 448 1383 479 1526 568 1526 c 0
 572 1526 577 1527 581 1526 c 2xdc
 805 1496 l 1
 810 1496 l 2
 835 1496 866 1536 866 1536 c 1
 913 1535 l 1
 913 1535 875 1391 783 1391 c 0xec
 779 1391 775 1391 771 1392 c 2
 547 1423 l 1
 546 1423 l 2xdc
 518 1423 485 1376 485 1376 c 1
 448 1383 l 1
EndSplineSet
Colour: ffffff
EndChar

StartChar: P
Encoding: 80 80 78
Width: 1078
VWidth: 0
Flags: HW
HStem: 0 74<61 111.939 586.216 643> 494 87<484 706.101> 1172 83<421.328 697.02>
VStem: 228 192<122 1104> 838 207<720.62 1035.66>
LayerCount: 2
Fore
SplineSet
50 0 m 1
 61 74 l 1
 228 121 l 1
 228 1104 l 1
 57 1134 l 1
 67 1211 l 1
 196 1230 372 1255 543 1255 c 0
 804 1255 1045 1184 1045 892 c 0
 1045 655 827 494 584 494 c 0
 548 494 515 496 484 497 c 1
 466 580 l 1
 519 581 l 2
 734 587 838 678 838 856 c 0
 838 1027 750 1172 522 1172 c 0
 482 1172 420 1166 420 1166 c 1
 420 122 l 1
 657 83 l 1
 643 0 l 1
 50 0 l 1
EndSplineSet
Colour: ffffff
EndChar

StartChar: Q
Encoding: 81 81 79
Width: 1357
VWidth: 0
Flags: HW
HStem: -385 110<1069.72 1238.1> -27 21G<465.5 645.5> 1168 104<479.366 819.987>
VStem: 61 202<412.519 861.275> 1092 207<385.443 819.718>
LayerCount: 2
Fore
SplineSet
61 608 m 0
 61 994 325 1272 721 1272 c 0
 1078 1272 1299 980 1299 629 c 0
 1299 335 1122 68 818 -6 c 1
 877 -141 963 -228 1250 -275 c 1
 1250 -299 1247 -333 1241 -351 c 1
 1179 -381 1121 -385 1065 -385 c 0
 884 -385 721 -249 703 -21 c 1
 693 -24 653 -27 638 -27 c 0
 293 -27 61 246 61 608 c 0
263 679 m 0
 263 439 369 88 749 67 c 1
 1019 134 1092 336 1092 563 c 0
 1092 857 928 1168 664 1168 c 0
 413 1168 263 989 263 679 c 0
EndSplineSet
Colour: ffffff
EndChar

StartChar: R
Encoding: 82 82 80
Width: 1208
VWidth: 0
Flags: HW
HStem: -21 21G<1029.5 1127.5> 0 74<61 111.939 556.17 598> 537 91<420 594> 1130 77<67 138.715> 1169 84<422.164 693.112>
VStem: 228 192<126 537 628 1100> 818 207<790.178 1051.78>
LayerCount: 2
Fore
SplineSet
50 0 m 1x66
 61 74 l 1
 228 121 l 1
 228 1100 l 1
 57 1130 l 1
 67 1207 l 1x76
 214 1230 375 1253 523 1253 c 0
 820 1253 1025 1176 1025 943 c 0
 1025 814 926 666 738 599 c 1
 738 598 l 1
 918 349 l 2
 1035 187 1087 114 1211 77 c 2
 1244 67 l 1
 1229 -1 l 1
 1186 -16 1146 -21 1109 -21 c 0xae
 950 -21 840 98 753 253 c 2
 594 537 l 1
 420 537 l 1
 420 126 l 1
 608 83 l 1
 598 0 l 1
 50 0 l 1x66
420 628 m 1
 618 628 l 1
 717 661 818 745 818 887 c 0
 818 1051 717 1169 540 1169 c 0x2e
 470 1169 420 1164 420 1164 c 1
 420 628 l 1
EndSplineSet
Colour: ffffff
EndChar

StartChar: Racute
Encoding: 340 340 81
Width: 1208
VWidth: 0
Flags: HW
HStem: -21 21G<1029.5 1127.5> 0 74<61 111.939 556.17 598> 537 91<420 594> 1130 77<67 138.715> 1169 84<422.164 693.112>
VStem: 228 192<126 537 628 1100> 818 207<790.178 1051.78>
LayerCount: 2
Fore
SplineSet
50 0 m 1x66
 61 74 l 1
 228 121 l 1
 228 1100 l 1
 57 1130 l 1
 67 1207 l 1x76
 214 1230 375 1253 523 1253 c 0
 820 1253 1025 1176 1025 943 c 0
 1025 814 926 666 738 599 c 1
 738 598 l 1
 918 349 l 2
 1035 187 1087 114 1211 77 c 2
 1244 67 l 1
 1229 -1 l 1
 1186 -16 1146 -21 1109 -21 c 0xae
 950 -21 840 98 753 253 c 2
 594 537 l 1
 420 537 l 1
 420 126 l 1
 608 83 l 1
 598 0 l 1
 50 0 l 1x66
420 628 m 1
 618 628 l 1
 717 661 818 745 818 887 c 0
 818 1051 717 1169 540 1169 c 0x2e
 470 1169 420 1164 420 1164 c 1
 420 628 l 1
506 1385 m 1
 628 1710 l 1
 740 1670 l 1
 556 1354 l 1
 506 1385 l 1
EndSplineSet
Colour: ffffff
EndChar

StartChar: Rcaron
Encoding: 344 344 82
Width: 1208
VWidth: 0
Flags: HW
HStem: -21 21G<1029.5 1127.5> 0 74<61 111.939 556.17 598> 537 91<420 594> 1130 77<67 138.715> 1169 84<422.164 693.112> 1569 20G<428.194 474.833 719.429 766.333>
VStem: 228 192<126 537 628 1100> 818 207<790.178 1051.78>
DStem2: 454 1589 374 1527 0.733231 -0.67998<0 207.902> 614 1445 608 1376 0.694953 0.719055<0 186.147>
LayerCount: 2
Fore
SplineSet
50 0 m 1x67
 61 74 l 1
 228 121 l 1
 228 1100 l 1
 57 1130 l 1
 67 1207 l 1x77
 214 1230 375 1253 523 1253 c 0
 820 1253 1025 1176 1025 943 c 0
 1025 814 926 666 738 599 c 1
 738 598 l 1
 918 349 l 2
 1035 187 1087 114 1211 77 c 2
 1244 67 l 1
 1229 -1 l 1
 1186 -16 1146 -21 1109 -21 c 0xaf
 950 -21 840 98 753 253 c 2
 594 537 l 1
 420 537 l 1
 420 126 l 1
 608 83 l 1
 598 0 l 1
 50 0 l 1x67
374 1527 m 1
 454 1589 l 1
 604 1445 l 1
 614 1445 l 1
 737 1585 l 1
 781 1555 l 1
 608 1376 l 1
 553 1361 l 1
 374 1527 l 1
420 628 m 1
 618 628 l 1
 717 661 818 745 818 887 c 0
 818 1051 717 1169 540 1169 c 0x2f
 470 1169 420 1164 420 1164 c 1
 420 628 l 1
EndSplineSet
Colour: ffffff
EndChar

StartChar: Rcommaaccent
Encoding: 342 342 83
Width: 1208
VWidth: 0
Flags: HW
HStem: -389 52<652.038 695.759> -21 21G<1029.5 1127.5> 0 74<61 111.939 556.17 598> 537 91<420 594> 1130 77<67 138.715> 1169 84<422.164 693.112>
VStem: 228 192<126 537 628 1100> 731 111<-311.121 -185.933> 818 207<790.178 1051.78>
LayerCount: 2
Fore
SplineSet
50 0 m 1xb280
 61 74 l 1
 228 121 l 1
 228 1100 l 1
 57 1130 l 1
 67 1207 l 1xba80
 214 1230 375 1253 523 1253 c 0
 820 1253 1025 1176 1025 943 c 0
 1025 814 926 666 738 599 c 1
 738 598 l 1
 918 349 l 2
 1035 187 1087 114 1211 77 c 2
 1244 67 l 1
 1229 -1 l 1
 1186 -16 1146 -21 1109 -21 c 0xd680
 950 -21 840 98 753 253 c 2
 594 537 l 1
 420 537 l 1
 420 126 l 1
 608 83 l 1
 598 0 l 1
 50 0 l 1xb280
420 628 m 1
 618 628 l 1
 717 661 818 745 818 887 c 0
 818 1051 717 1169 540 1169 c 0x9680
 470 1169 420 1164 420 1164 c 1
 420 628 l 1
639 -337 m 1
 709 -319 731 -282 731 -246 c 0
 731 -213 674 -170 652 -168 c 1
 661 -125 694 -85 741 -85 c 0
 781 -85 842 -114 842 -203 c 0x93
 842 -257 805 -354 657 -389 c 1
 639 -337 l 1
EndSplineSet
Colour: ffffff
EndChar

StartChar: S
Encoding: 83 83 84
Width: 900
VWidth: 0
Flags: HW
HStem: -24 101<285.471 576.288> 1185 84<324.705 563.237>
VStem: 79 102<305.893 375> 90 173<881.304 1085.87> 640 99<899 1008.53> 663 184<188.064 394.55>
LayerCount: 2
Fore
SplineSet
66 122 m 5xd4
 79 389 l 5
 181 375 l 5
 220 187 l 5
 256 130 333 77 426 77 c 4
 531 77 663 139 663 287 c 4xe4
 663 547 90 544 90 916 c 4
 90 1143 282 1269 479 1269 c 4
 587 1269 682 1235 761 1169 c 5
 761 1161 739 887 739 887 c 5
 640 899 l 5xd8
 615 1090 l 5
 597 1126 525 1185 445 1185 c 4
 345 1185 263 1126 263 995 c 4
 263 708 847 730 847 354 c 4
 847 124 630 -24 402 -24 c 4
 258 -24 130 43 66 122 c 5xd4
EndSplineSet
Colour: ffffff
EndChar

StartChar: Sacute
Encoding: 346 346 85
Width: 900
VWidth: 0
Flags: HW
HStem: -24 101<285.471 576.288> 1185 84<324.705 563.237>
VStem: 79 102<305.893 375> 90 173<881.304 1085.87> 640 99<899 1008.53> 663 184<188.064 394.55>
LayerCount: 2
Fore
SplineSet
66 122 m 1xd4
 79 389 l 1
 181 375 l 1
 220 187 l 1
 256 130 333 77 426 77 c 0
 531 77 663 139 663 287 c 0xe4
 663 547 90 544 90 916 c 0
 90 1143 282 1269 479 1269 c 0
 587 1269 682 1235 761 1169 c 1
 761 1161 739 887 739 887 c 1
 640 899 l 1xd8
 615 1090 l 1
 597 1126 525 1185 445 1185 c 0
 345 1185 263 1126 263 995 c 0
 263 708 847 730 847 354 c 0
 847 124 630 -24 402 -24 c 0
 258 -24 130 43 66 122 c 1xd4
386 1383 m 1
 509 1709 l 1
 621 1670 l 1
 438 1351 l 1
 386 1383 l 1
EndSplineSet
Colour: ffffff
EndChar

StartChar: Scaron
Encoding: 352 352 86
Width: 900
VWidth: 0
Flags: HW
HStem: -24 101<285.471 576.288> 1185 84<324.705 563.237> 1567 20G<308.77 355.694 600.411 645.742>
VStem: 79 102<305.893 375> 90 173<881.304 1085.87> 640 99<899 1008.53> 663 184<188.064 394.55>
DStem2: 335 1587 255 1526 0.733231 -0.67998<0 207.168> 494 1443 489 1373 0.690858 0.722991<0 187.608>
LayerCount: 2
Fore
SplineSet
66 122 m 1xea
 79 389 l 1
 181 375 l 1
 220 187 l 1
 256 130 333 77 426 77 c 0
 531 77 663 139 663 287 c 0xf2
 663 547 90 544 90 916 c 0
 90 1143 282 1269 479 1269 c 0
 587 1269 682 1235 761 1169 c 1
 761 1161 739 887 739 887 c 1
 640 899 l 1xec
 615 1090 l 1
 597 1126 525 1185 445 1185 c 0
 345 1185 263 1126 263 995 c 0
 263 708 847 730 847 354 c 0
 847 124 630 -24 402 -24 c 0
 258 -24 130 43 66 122 c 1xea
255 1526 m 1
 335 1587 l 1
 484 1443 l 1
 494 1443 l 1
 618 1584 l 1
 661 1553 l 1
 489 1373 l 1
 434 1360 l 1
 255 1526 l 1
EndSplineSet
Colour: ffffff
EndChar

StartChar: Scedilla
Encoding: 350 350 87
Width: 903
VWidth: 0
Flags: HW
HStem: -389 58<336.057 372.738> -24 101<287.979 412> 1185 84<326.339 564.818>
VStem: 80 104<302.158 375> 92 172<881.304 1085.87> 408 133<-310.021 -168.583> 642 99<899 1004.31> 666 183<186.28 394.55>
LayerCount: 2
Fore
SplineSet
67 122 m 1xed
 80 389 l 1
 184 375 l 1
 221 187 l 1
 257 130 335 77 428 77 c 0
 533 77 666 139 666 287 c 0xf5
 666 547 92 544 92 916 c 0
 92 1143 283 1269 480 1269 c 0
 588 1269 685 1235 764 1169 c 1
 764 1161 741 887 741 887 c 1
 642 899 l 1xee
 616 1090 l 1
 598 1126 528 1185 448 1185 c 0
 348 1185 264 1126 264 995 c 0
 264 708 849 730 849 354 c 0
 849 154 685 15 492 -18 c 1
 452 -76 l 1
 489 -109 541 -160 541 -227 c 0
 541 -306 457 -355 341 -389 c 1
 321 -331 l 1
 378 -312 408 -278 408 -248 c 0
 408 -214 370 -172 334 -138 c 1
 412 -24 l 1
 405 -24 l 2
 261 -24 131 43 67 122 c 1xed
EndSplineSet
Colour: ffffff
EndChar

StartChar: Scommaaccent
Encoding: 536 536 88
Width: 900
VWidth: 0
Flags: HW
HStem: -386 54<342.221 385.759> -24 101<285.471 576.288> 1185 84<324.705 563.237>
VStem: 79 102<305.893 375> 90 173<881.304 1085.87> 423 109<-307.167 -182.704> 640 99<899 1008.53> 663 184<188.064 394.55>
LayerCount: 2
Fore
SplineSet
66 122 m 1xed
 79 389 l 1
 181 375 l 1
 220 187 l 1
 256 130 333 77 426 77 c 0
 531 77 663 139 663 287 c 0xf5
 663 547 90 544 90 916 c 0
 90 1143 282 1269 479 1269 c 0
 587 1269 682 1235 761 1169 c 1
 761 1161 739 887 739 887 c 1
 640 899 l 1xee
 615 1090 l 1
 597 1126 525 1185 445 1185 c 0
 345 1185 263 1126 263 995 c 0
 263 708 847 730 847 354 c 0
 847 124 630 -24 402 -24 c 0
 258 -24 130 43 66 122 c 1xed
329 -332 m 1
 399 -314 423 -279 423 -243 c 0
 423 -210 364 -166 342 -164 c 1
 351 -121 384 -80 431 -80 c 0
 471 -80 532 -110 532 -199 c 0
 532 -253 495 -351 347 -386 c 1
 329 -332 l 1
EndSplineSet
Colour: ffffff
EndChar

StartChar: T
Encoding: 84 84 89
Width: 1146
VWidth: 0
Flags: HW
HStem: 0 80<301 335.361 801.642 833> 1152 92<175 470 662 967>
VStem: 31 91<922 974.729> 470 192<121 1152> 1005 95<921 1008.15>
LayerCount: 2
Fore
SplineSet
23 1244 m 1
 1134 1244 l 1
 1100 906 l 1
 1005 921 l 1
 967 1152 l 1
 662 1152 l 1
 662 114 l 1
 847 80 l 1
 833 0 l 1
 294 0 l 1
 301 74 l 1
 470 121 l 1
 470 1152 l 1
 175 1152 l 1
 122 909 l 1
 31 922 l 1
 23 1244 l 1
EndSplineSet
Colour: ffffff
EndChar

StartChar: Tcaron
Encoding: 356 356 91
Width: 1146
VWidth: 0
Flags: HW
HStem: 0 80<301 335.361 801.642 833> 1152 92<175 470 662 967> 1569 20G<401.871 448.694 691.429 738.333>
VStem: 31 91<922 974.729> 470 192<121 1152> 1005 95<921 1008.15>
DStem2: 428 1589 347 1527 0.735117 -0.677941<0 207.156> 586 1445 581 1376 0.692867 0.721065<0 186.172>
LayerCount: 2
Fore
SplineSet
23 1244 m 1
 1134 1244 l 1
 1100 906 l 1
 1005 921 l 1
 967 1152 l 1
 662 1152 l 1
 662 114 l 1
 847 80 l 1
 833 0 l 1
 294 0 l 1
 301 74 l 1
 470 121 l 1
 470 1152 l 1
 175 1152 l 1
 122 909 l 1
 31 922 l 1
 23 1244 l 1
347 1527 m 1
 428 1589 l 1
 577 1445 l 1
 586 1445 l 1
 709 1585 l 1
 753 1555 l 1
 581 1376 l 1
 527 1361 l 1
 347 1527 l 1
EndSplineSet
Colour: ffffff
EndChar

StartChar: Tcedilla
Encoding: 354 354 92
Width: 1146
VWidth: 0
Flags: HW
HStem: -389 58<479.057 515.714> 0 74<301 352.549 780.696 833> 1152 92<175 470 662 967>
VStem: 31 91<922 974.729> 470 192<121 1152> 550 133<-311.962 -166.386> 1005 95<921 1008.15>
LayerCount: 2
Fore
SplineSet
23 1244 m 1xfa
 1134 1244 l 1
 1100 906 l 1
 1005 921 l 1
 967 1152 l 1
 662 1152 l 1
 662 114 l 1xfa
 847 80 l 1
 833 0 l 1
 647 0 l 1
 595 -76 l 1
 632 -109 683 -160 683 -227 c 0
 683 -306 600 -355 484 -389 c 1
 464 -331 l 1
 521 -312 550 -278 550 -248 c 0xf6
 550 -214 513 -172 477 -138 c 1
 572 0 l 1
 294 0 l 1
 301 74 l 1
 470 121 l 1
 470 1152 l 1
 175 1152 l 1
 122 909 l 1
 31 922 l 1
 23 1244 l 1xfa
EndSplineSet
Colour: ffffff
EndChar

StartChar: Tcommaaccent
Encoding: 538 538 93
Width: 1149
VWidth: 0
Flags: HW
HStem: -389 52<464.762 508.734> 0 80<304 338.157 803.397 836> 1152 92<177 472 663 968>
VStem: 33 91<922 974.729> 472 191<121 1152> 544 110<-312.758 -185.933> 1007 93<921 1005.91>
LayerCount: 2
Fore
SplineSet
24 1244 m 1xfa
 1136 1244 l 1
 1100 906 l 1
 1007 921 l 1
 968 1152 l 1
 663 1152 l 1
 663 114 l 1
 849 80 l 1
 836 0 l 1
 295 0 l 1
 304 74 l 1
 472 121 l 1
 472 1152 l 1
 177 1152 l 1
 124 909 l 1
 33 922 l 1
 24 1244 l 1xfa
451 -337 m 1
 521 -319 544 -282 544 -246 c 0
 544 -213 486 -170 464 -168 c 1
 473 -125 506 -85 553 -85 c 0
 593 -85 654 -114 654 -203 c 0xf6
 654 -257 618 -354 470 -389 c 1
 451 -337 l 1
EndSplineSet
Colour: ffffff
EndChar

StartChar: Thorn
Encoding: 222 222 94
Width: 1084
VWidth: 0
Flags: HW
HStem: -1 74<64 116.358 589.216 647> 260 91<484.352 723.559> 926 98<423 711.074> 1168 76<61 112.123 529.488 594>
VStem: 232 191<121 922.991 1020 1126> 841 207<480.69 796.236>
LayerCount: 2
Fore
SplineSet
50 1168 m 1
 61 1244 l 1
 604 1244 l 1
 594 1168 l 1
 423 1130 l 1
 423 1020 l 1
 463 1021 507 1024 547 1024 c 0
 808 1024 1048 952 1048 660 c 0
 1048 423 847 260 604 260 c 0
 568 260 527 262 487 266 c 1
 470 351 l 1
 711 338 841 429 841 624 c 0
 841 795 747 926 529 926 c 0
 489 926 423 919 423 919 c 1
 423 121 l 1
 660 83 l 1
 647 -1 l 1
 54 -1 l 1
 64 73 l 1
 232 119 l 1
 232 1126 l 1
 50 1168 l 1
EndSplineSet
Colour: ffffff
EndChar

StartChar: U
Encoding: 85 85 95
Width: 1401
VWidth: 0
Flags: HW
HStem: -27 132<563.386 923.269> 1168 76<35 84.8053 504.243 568 902 954.464 1306.37 1369>
VStem: 206 193<281.209 1126> 1072 126<265.877 1126>
LayerCount: 2
Fore
SplineSet
22 1168 m 1
 35 1244 l 1
 577 1244 l 1
 568 1168 l 1
 399 1130 l 1
 399 510 l 2
 399 225 542 105 747 105 c 0
 949 105 1071 221 1072 482 c 2
 1075 1126 l 1
 892 1168 l 1
 902 1244 l 1
 1380 1244 l 1
 1369 1168 l 1
 1203 1130 l 1
 1198 515 l 2
 1195 155 1044 -27 697 -27 c 0
 466 -27 206 48 206 469 c 2
 206 1126 l 1
 22 1168 l 1
EndSplineSet
Colour: ffffff
EndChar

StartChar: Ucaron
Encoding: 467 467 97
Width: 1401
VWidth: 0
Flags: HW
HStem: -27 132<563.386 923.269> 1168 76<35 84.8053 504.243 568 902 954.464 1306.37 1369> 1569 20G<575.871 622.694 866.429 912.667>
VStem: 206 193<281.209 1126> 1072 126<265.877 1126>
DStem2: 602 1589 521 1527 0.733231 -0.67998<0 207.168> 761 1445 755 1376 0.692867 0.721065<0 186.172>
LayerCount: 2
Fore
SplineSet
22 1168 m 1
 35 1244 l 1
 577 1244 l 1
 568 1168 l 1
 399 1130 l 1
 399 510 l 2
 399 225 542 105 747 105 c 0
 949 105 1071 221 1072 482 c 2
 1075 1126 l 1
 892 1168 l 1
 902 1244 l 1
 1380 1244 l 1
 1369 1168 l 1
 1203 1130 l 1
 1198 515 l 2
 1195 155 1044 -27 697 -27 c 0
 466 -27 206 48 206 469 c 2
 206 1126 l 1
 22 1168 l 1
521 1527 m 1
 602 1589 l 1
 751 1445 l 1
 761 1445 l 1
 884 1585 l 1
 927 1555 l 1
 755 1376 l 1
 700 1361 l 1
 521 1527 l 1
EndSplineSet
Colour: ffffff
EndChar

StartChar: Ucircumflex
Encoding: 219 219 98
Width: 1401
VWidth: 0
Flags: HW
HStem: -27 132<563.386 923.269> 1168 76<35 84.8053 504.243 568 902 954.464 1306.37 1369> 1565 20G<704 778.243>
VStem: 206 193<281.209 1126> 1072 126<265.877 1126>
LayerCount: 2
Fore
SplineSet
22 1168 m 1
 35 1244 l 1
 577 1244 l 1
 568 1168 l 1
 399 1130 l 1
 399 510 l 2
 399 225 542 105 747 105 c 0
 949 105 1071 221 1072 482 c 2
 1075 1126 l 1
 892 1168 l 1
 902 1244 l 1
 1380 1244 l 1
 1369 1168 l 1
 1203 1130 l 1
 1198 515 l 2
 1195 155 1044 -27 697 -27 c 0
 466 -27 206 48 206 469 c 2
 206 1126 l 1
 22 1168 l 1
537 1392 m 1
 704 1572 l 1
 759 1585 l 1
 937 1400 l 1
 887 1364 l 1
 724 1472 l 1
 713 1472 l 1
 574 1361 l 1
 537 1392 l 1
EndSplineSet
Colour: ffffff
EndChar

StartChar: Udieresis
Encoding: 220 220 99
Width: 1401
VWidth: 0
Flags: HW
HStem: -27 132<563.386 923.269> 1168 76<35 84.8053 504.243 568 902 954.464 1306.37 1369> 1373 157<523.24 675.859 790.414 944.685>
VStem: 206 193<281.209 1126> 515 169<1382.55 1519.89> 782 171<1383.46 1519.66> 1072 126<265.877 1126>
LayerCount: 2
Fore
SplineSet
22 1168 m 1
 35 1244 l 1
 577 1244 l 1
 568 1168 l 1
 399 1130 l 1
 399 510 l 2
 399 225 542 105 747 105 c 0
 949 105 1071 221 1072 482 c 2
 1075 1126 l 1
 892 1168 l 1
 902 1244 l 1
 1380 1244 l 1
 1369 1168 l 1
 1203 1130 l 1
 1198 515 l 2
 1195 155 1044 -27 697 -27 c 0
 466 -27 206 48 206 469 c 2
 206 1126 l 1
 22 1168 l 1
515 1453 m 0
 515 1500 558 1530 598 1530 c 0
 642 1530 684 1499 684 1453 c 0
 684 1404 642 1373 598 1373 c 0
 555 1373 515 1404 515 1453 c 0
782 1453 m 0
 782 1500 826 1530 866 1530 c 0
 910 1530 953 1499 953 1453 c 0
 953 1404 910 1373 866 1373 c 0
 823 1373 782 1404 782 1453 c 0
EndSplineSet
Colour: ffffff
EndChar

StartChar: Udieresisacute
Encoding: 471 471 100
Width: 1401
VWidth: 0
Flags: HW
HStem: -27 132<563.386 923.269> 1168 76<35 84.8053 504.243 568 902 954.464 1306.37 1369> 1356 158<523.669 675.859 790.862 944.685> 1509 21G<705.125 748.572>
VStem: 206 193<281.209 1126> 515 169<1365.55 1503.62> 782 171<1366.46 1503.39> 1072 126<265.877 1126>
LayerCount: 2
Fore
SplineSet
22 1168 m 1xcf
 35 1244 l 1
 577 1244 l 1
 568 1168 l 1
 399 1130 l 1
 399 510 l 2
 399 225 542 105 747 105 c 0
 949 105 1071 221 1072 482 c 2
 1075 1126 l 1
 892 1168 l 1
 902 1244 l 1
 1380 1244 l 1
 1369 1168 l 1
 1203 1130 l 1
 1198 515 l 2
 1195 155 1044 -27 697 -27 c 0
 466 -27 206 48 206 469 c 2
 206 1126 l 1
 22 1168 l 1xcf
515 1436 m 0
 515 1483 558 1514 598 1514 c 0
 642 1514 684 1482 684 1436 c 0
 684 1387 642 1356 598 1356 c 0xef
 555 1356 515 1387 515 1436 c 0
686 1541 m 1
 808 1866 l 5
 921 1827 l 1
 737 1509 l 1xdf
 686 1541 l 1
782 1436 m 0
 782 1483 826 1514 866 1514 c 0
 910 1514 953 1482 953 1436 c 0
 953 1387 910 1356 866 1356 c 0xef
 823 1356 782 1387 782 1436 c 0
EndSplineSet
Colour: ffffff
EndChar

StartChar: Udieresiscaron
Encoding: 473 473 101
Width: 1401
VWidth: 0
Flags: HW
HStem: -27 132<563.386 923.269> 1168 76<35 84.8053 504.243 568 902 954.464 1306.37 1369> 1336 159<523.669 674.923 790.862 943.73>
VStem: 206 193<281.209 1126> 515 169<1345.55 1484.35> 782 171<1346.46 1484.11> 1072 126<265.877 1126>
DStem2: 611 1716 530 1654 0.735276 -0.677768<0 206.477> 770 1573 764 1504 0.694953 0.719055<0 186.147>
LayerCount: 2
Fore
SplineSet
22 1168 m 1
 35 1244 l 1
 577 1244 l 1
 568 1168 l 1
 399 1130 l 1
 399 510 l 2
 399 225 542 105 747 105 c 0
 949 105 1071 221 1072 482 c 2
 1075 1126 l 1
 892 1168 l 1
 902 1244 l 1
 1380 1244 l 1
 1369 1168 l 1
 1203 1130 l 1
 1198 515 l 2
 1195 155 1044 -27 697 -27 c 0
 466 -27 206 48 206 469 c 2
 206 1126 l 1
 22 1168 l 1
515 1416 m 0
 515 1463 558 1495 598 1495 c 0
 642 1495 684 1462 684 1416 c 0
 684 1367 642 1336 598 1336 c 0
 555 1336 515 1367 515 1416 c 0
530 1654 m 1
 611 1716 l 1
 760 1573 l 1
 770 1573 l 1
 893 1713 l 1
 937 1683 l 1
 764 1504 l 1
 709 1489 l 1
 530 1654 l 1
782 1416 m 0
 782 1463 826 1495 866 1495 c 0
 910 1495 953 1462 953 1416 c 0
 953 1367 910 1336 866 1336 c 0
 823 1336 782 1367 782 1416 c 0
EndSplineSet
Colour: ffffff
EndChar

StartChar: Udieresisgrave
Encoding: 475 475 102
Width: 1401
VWidth: 0
Flags: HW
HStem: -27 132<563.386 923.269> 1168 76<35 84.8053 504.243 568 902 954.464 1306.37 1369> 1338 158<523.669 674.923 790.862 943.73>
VStem: 206 193<281.209 1126> 515 169<1347.81 1485.89> 782 171<1348.73 1485.66> 1072 126<265.877 1126>
LayerCount: 2
Fore
SplineSet
22 1168 m 1
 35 1244 l 1
 577 1244 l 1
 568 1168 l 1
 399 1130 l 1
 399 510 l 2
 399 225 542 105 747 105 c 0
 949 105 1071 221 1072 482 c 2
 1075 1126 l 1
 892 1168 l 1
 902 1244 l 1
 1380 1244 l 1
 1369 1168 l 1
 1203 1130 l 1
 1198 515 l 2
 1195 155 1044 -27 697 -27 c 0
 466 -27 206 48 206 469 c 2
 206 1126 l 1
 22 1168 l 1
515 1419 m 0
 515 1466 558 1496 598 1496 c 0
 642 1496 684 1465 684 1419 c 0
 684 1370 642 1338 598 1338 c 0
 555 1338 515 1370 515 1419 c 0
530 1802 m 1
 645 1839 l 1
 777 1504 l 1
 719 1470 l 1
 530 1802 l 1
782 1419 m 0
 782 1466 826 1496 866 1496 c 0
 910 1496 953 1465 953 1419 c 0
 953 1370 910 1338 866 1338 c 0
 823 1338 782 1370 782 1419 c 0
EndSplineSet
Colour: ffffff
EndChar

StartChar: Udieresismacron
Encoding: 469 469 103
Width: 1401
VWidth: 0
Flags: HW
HStem: -27 132<563.386 923.269> 1168 76<35 84.8053 504.243 568 902 954.464 1306.37 1369> 1321 158<523.669 674.923 790.862 943.73> 1523 101<521 949>
VStem: 206 193<281.209 1126> 515 169<1330.81 1468.89> 782 171<1331.73 1468.66> 1072 126<265.877 1126>
LayerCount: 2
Fore
SplineSet
22 1168 m 1
 35 1244 l 1
 577 1244 l 1
 568 1168 l 1
 399 1130 l 1
 399 510 l 2
 399 225 542 105 747 105 c 0
 949 105 1071 221 1072 482 c 2
 1075 1126 l 1
 892 1168 l 1
 902 1244 l 1
 1380 1244 l 1
 1369 1168 l 1
 1203 1130 l 1
 1198 515 l 2
 1195 155 1044 -27 697 -27 c 0
 466 -27 206 48 206 469 c 2
 206 1126 l 1
 22 1168 l 1
508 1523 m 1
 521 1624 l 1
 962 1624 l 1
 949 1523 l 1
 508 1523 l 1
515 1402 m 0
 515 1449 558 1479 598 1479 c 0
 642 1479 684 1448 684 1402 c 0
 684 1353 642 1321 598 1321 c 0
 555 1321 515 1353 515 1402 c 0
782 1402 m 0
 782 1449 826 1479 866 1479 c 0
 910 1479 953 1448 953 1402 c 0
 953 1353 910 1321 866 1321 c 0
 823 1321 782 1353 782 1402 c 0
EndSplineSet
Colour: ffffff
EndChar

StartChar: Uhungarumlaut
Encoding: 368 368 105
Width: 1401
VWidth: 0
Flags: HW
HStem: -27 132<563.386 923.269> 1168 76<35 84.8053 504.243 568 902 954.464 1306.37 1369>
VStem: 206 193<281.209 1126> 1072 126<265.877 1126>
LayerCount: 2
Fore
SplineSet
22 1168 m 1
 35 1244 l 1
 577 1244 l 1
 568 1168 l 1
 399 1130 l 1
 399 510 l 2
 399 225 542 105 747 105 c 0
 949 105 1071 221 1072 482 c 2
 1075 1126 l 1
 892 1168 l 1
 902 1244 l 1
 1380 1244 l 1
 1369 1168 l 1
 1203 1130 l 1
 1198 515 l 2
 1195 155 1044 -27 697 -27 c 0
 466 -27 206 48 206 469 c 2
 206 1126 l 1
 22 1168 l 1
558 1413 m 1
 811 1621 l 1
 885 1535 l 1
 585 1364 l 1
 558 1413 l 1
768 1413 m 1
 1015 1613 l 1
 1087 1530 l 1
 798 1364 l 1
 768 1413 l 1
EndSplineSet
Colour: ffffff
EndChar

StartChar: Uogonek
Encoding: 370 370 107
Width: 1405
VWidth: 0
Flags: HW
HStem: -386 51<903.292 913.557> -27 132<563.386 849.581> 1168 76<35 84.8053 504.243 568 902 954.464 1306.37 1369>
VStem: 206 193<281.209 1126> 666 148<-266.112 -92.0874> 1072 126<263.657 1126>
LayerCount: 2
Fore
SplineSet
22 1168 m 1
 35 1244 l 1
 577 1244 l 1
 568 1168 l 1
 399 1130 l 1
 399 510 l 2
 399 225 542 105 747 105 c 0
 949 105 1071 221 1072 482 c 2
 1075 1126 l 1
 892 1168 l 1
 902 1244 l 1
 1380 1244 l 1
 1369 1168 l 1
 1203 1130 l 1
 1198 515 l 2
 1196 220 1094 46 869 -8 c 1
 816 -97 814 -130 814 -148 c 0
 814 -210 848 -282 938 -335 c 1
 904 -386 l 5
 760 -371 666 -294 666 -208 c 0
 666 -161 680 -112 775 -23 c 1
 751 -25 725 -27 697 -27 c 0
 466 -27 206 48 206 469 c 2
 206 1126 l 1
 22 1168 l 1
EndSplineSet
Colour: ffffff
EndChar

StartChar: Uring
Encoding: 366 366 108
Width: 1401
VWidth: 0
Flags: HW
HStem: -27 132<563.386 923.269> 1168 76<35 84.8053 504.243 568 902 954.464 1306.37 1369> 1337 48<684.391 798.499> 1627 47<676.863 785.994>
VStem: 206 193<281.209 1126> 575 70<1414.34 1603.99> 827 72<1405.73 1598.29> 1072 126<265.877 1126>
LayerCount: 2
Fore
SplineSet
22 1168 m 1
 35 1244 l 1
 577 1244 l 1
 568 1168 l 1
 399 1130 l 1
 399 510 l 2
 399 225 542 105 747 105 c 0
 949 105 1071 221 1072 482 c 2
 1075 1126 l 1
 892 1168 l 1
 902 1244 l 1
 1380 1244 l 1
 1369 1168 l 1
 1203 1130 l 1
 1198 515 l 2
 1195 155 1044 -27 697 -27 c 0
 466 -27 206 48 206 469 c 2
 206 1126 l 1
 22 1168 l 1
575 1502 m 0
 575 1594 650 1674 743 1674 c 0
 839 1674 899 1605 899 1512 c 0
 899 1422 831 1337 729 1337 c 0
 637 1337 575 1400 575 1502 c 0
645 1514 m 0
 645 1453 677 1385 741 1385 c 0
 795 1385 827 1426 827 1499 c 0
 827 1561 793 1627 731 1627 c 0
 672 1627 645 1570 645 1514 c 0
EndSplineSet
Colour: ffffff
EndChar

StartChar: V
Encoding: 86 86 109
Width: 1235
VWidth: 0
Flags: HW
HStem: -24 21G<536.73 652.571> 1168 76<-11 29.176 452.865 517 805 860.123 1203.2 1253>
DStem2: 347 1130 126 1126 0.341612 -0.939841<0 933.045> 660 251 696 4 0.353126 0.935576<0 931.629>
LayerCount: 2
Fore
SplineSet
-21 1168 m 1
 -11 1244 l 1
 527 1244 l 1
 517 1168 l 1
 347 1130 l 1
 660 251 l 1
 980 1126 l 1
 798 1168 l 1
 805 1244 l 1
 1260 1244 l 1
 1253 1168 l 1
 1121 1130 l 1
 696 4 l 1
 544 -24 l 1
 126 1126 l 1
 -21 1168 l 1
EndSplineSet
Colour: ffffff
EndChar

StartChar: W
Encoding: 87 87 110
Width: 1789
VWidth: 0
Flags: HW
HStem: -24 21G<448.348 570.429 1158.63 1274> 1168 76<-2 36.7867 433.997 497 1368 1418.78 1759.6 1806>
DStem2: 330 1130 129 1126 0.271957 -0.962309<0 892.437> 572 271 617 4 0.288183 0.957575<0 746.252> 1029 1219 902 951 0.259512 -0.96574<225.86 964.429> 1277 287 1318 4 0.30836 0.95127<0 878.597>
LayerCount: 2
Fore
SplineSet
-11 1168 m 1
 -2 1244 l 1
 512 1244 l 1
 497 1168 l 1
 330 1130 l 1
 572 271 l 1
 853 1194 l 1
 1029 1219 l 1
 1277 287 l 1
 1538 1126 l 1
 1357 1168 l 1
 1368 1244 l 1
 1817 1244 l 1
 1806 1168 l 1
 1683 1130 l 1
 1318 4 l 1
 1164 -24 l 1
 902 951 l 1
 617 4 l 1
 454 -24 l 1
 129 1126 l 1
 -11 1168 l 1
EndSplineSet
Colour: ffffff
EndChar

StartChar: Wacute
Encoding: 7810 7810 111
Width: 1789
VWidth: 0
Flags: HW
HStem: -24 21G<448.348 570.429 1158.63 1274> 1168 76<-2 36.7867 433.997 497 1368 1418.78 1759.6 1806>
DStem2: 330 1130 129 1126 0.271957 -0.962309<0 892.437> 572 271 617 4 0.288183 0.957575<0 746.252> 1029 1219 902 951 0.259512 -0.96574<225.86 964.429> 1277 287 1318 4 0.30836 0.95127<0 878.597>
LayerCount: 2
Fore
SplineSet
-11 1168 m 1
 -2 1244 l 1
 512 1244 l 1
 497 1168 l 1
 330 1130 l 1
 572 271 l 1
 853 1194 l 1
 1029 1219 l 1
 1277 287 l 1
 1538 1126 l 1
 1357 1168 l 1
 1368 1244 l 1
 1817 1244 l 1
 1806 1168 l 1
 1683 1130 l 1
 1318 4 l 1
 1164 -24 l 1
 902 951 l 1
 617 4 l 1
 454 -24 l 1
 129 1126 l 1
 -11 1168 l 1
902 1385 m 1
 1025 1710 l 1
 1136 1670 l 1
 953 1354 l 1
 902 1385 l 1
EndSplineSet
Colour: ffffff
EndChar

StartChar: Wcircumflex
Encoding: 372 372 112
Width: 1789
VWidth: 0
Flags: HW
HStem: -24 21G<448.348 570.429 1158.63 1274> 1168 76<-2 36.7867 433.997 497 1368 1418.78 1759.6 1806>
DStem2: 330 1130 129 1126 0.271957 -0.962309<0 892.437> 572 271 617 4 0.288183 0.957575<0 746.252> 1029 1219 902 951 0.259512 -0.96574<225.86 964.429> 1277 287 1318 4 0.30836 0.95127<0 878.597>
LayerCount: 2
Fore
SplineSet
-11 1168 m 1
 -2 1244 l 1
 512 1244 l 1
 497 1168 l 1
 330 1130 l 1
 572 271 l 1
 853 1194 l 1
 1029 1219 l 1
 1277 287 l 1
 1538 1126 l 1
 1357 1168 l 1
 1368 1244 l 1
 1817 1244 l 1
 1806 1168 l 1
 1683 1130 l 1
 1318 4 l 1
 1164 -24 l 1
 902 951 l 1
 617 4 l 1
 454 -24 l 1
 129 1126 l 1
 -11 1168 l 1
744 1332 m 1
 913 1511 l 1
 968 1524 l 1
 1146 1339 l 1
 1096 1302 l 1
 933 1412 l 1
 922 1412 l 1
 783 1301 l 1
 744 1332 l 1
EndSplineSet
Colour: ffffff
EndChar

StartChar: Wdieresis
Encoding: 7812 7812 113
Width: 1789
VWidth: 0
Flags: HW
HStem: -24 21G<448.348 570.429 1158.63 1274> 1168 76<-2 36.7867 433.997 497 1368 1418.78 1759.6 1806> 1373 157<730.588 884.034 997.762 1154.51>
VStem: 722 170<1382.55 1519.66> 989 174<1383.46 1519.66>
DStem2: 330 1130 129 1126 0.271957 -0.962309<0 892.437> 572 271 617 4 0.288183 0.957575<0 746.252> 1029 1219 902 951 0.259512 -0.96574<225.86 964.429> 1277 287 1318 4 0.30836 0.95127<0 878.597>
LayerCount: 2
Fore
SplineSet
-11 1168 m 1
 -2 1244 l 1
 512 1244 l 1
 497 1168 l 1
 330 1130 l 1
 572 271 l 1
 853 1194 l 1
 1029 1219 l 1
 1277 287 l 1
 1538 1126 l 1
 1357 1168 l 1
 1368 1244 l 1
 1817 1244 l 1
 1806 1168 l 1
 1683 1130 l 1
 1318 4 l 1
 1164 -24 l 1
 902 951 l 1
 617 4 l 1
 454 -24 l 1
 129 1126 l 1
 -11 1168 l 1
722 1453 m 0
 722 1500 767 1530 807 1530 c 0
 851 1530 892 1499 892 1453 c 0
 892 1404 851 1373 807 1373 c 0
 764 1373 722 1404 722 1453 c 0
989 1453 m 0
 989 1500 1035 1530 1075 1530 c 0
 1119 1530 1163 1499 1163 1453 c 0
 1163 1404 1119 1373 1075 1373 c 0
 1032 1373 989 1404 989 1453 c 0
EndSplineSet
Colour: ffffff
EndChar

StartChar: Wgrave
Encoding: 7808 7808 114
Width: 1789
VWidth: 0
Flags: HW
HStem: -24 21G<448.348 570.429 1158.63 1274> 1168 76<-2 36.7867 433.997 497 1368 1418.78 1759.6 1806>
DStem2: 330 1130 129 1126 0.271957 -0.962309<0 892.437> 572 271 617 4 0.288183 0.957575<0 746.252> 1029 1219 902 951 0.259512 -0.96574<225.86 964.429> 1277 287 1318 4 0.30836 0.95127<0 878.597>
LayerCount: 2
Fore
SplineSet
-11 1168 m 1
 -2 1244 l 1
 512 1244 l 1
 497 1168 l 1
 330 1130 l 1
 572 271 l 1
 853 1194 l 1
 1029 1219 l 1
 1277 287 l 1
 1538 1126 l 1
 1357 1168 l 1
 1368 1244 l 1
 1817 1244 l 1
 1806 1168 l 1
 1683 1130 l 1
 1318 4 l 1
 1164 -24 l 1
 902 951 l 1
 617 4 l 1
 454 -24 l 1
 129 1126 l 1
 -11 1168 l 1
721 1664 m 1
 836 1702 l 1
 968 1368 l 1
 910 1334 l 1
 721 1664 l 1
EndSplineSet
Colour: ffffff
EndChar

StartChar: X
Encoding: 88 88 115
Width: 1193
VWidth: 0
Flags: HW
HStem: 0 80<416.601 439 682 714.531 1151.9 1172> 1166 78<40 67.3031 499.961 543 747 786.428 1130.48 1174>
DStem2: 138 121 288 117 0.606186 0.795323<87.7467 592.426 800.32 1263.64> 386 1121 165 1123 0.559842 -0.828599<0 445.691 599.14 1083.89>
LayerCount: 2
Fore
SplineSet
-1 0 m 1
 11 76 l 1
 138 121 l 1
 504 615 l 1
 165 1123 l 1
 28 1166 l 1
 40 1244 l 1
 553 1244 l 1
 543 1166 l 1
 386 1121 l 1
 633 750 l 1
 904 1126 l 1
 734 1166 l 1
 747 1244 l 1
 1182 1244 l 1
 1174 1168 l 1
 1047 1130 l 1
 709 657 l 1
 1050 114 l 1
 1185 80 l 1
 1172 0 l 1
 669 0 l 1
 682 74 l 1
 842 121 l 1
 580 529 l 1
 288 117 l 1
 454 83 l 1
 439 0 l 1
 -1 0 l 1
EndSplineSet
Colour: ffffff
EndChar

StartChar: Y
Encoding: 89 89 116
Width: 1123
VWidth: 0
Flags: HW
HStem: 0 80<320 350.498 786.036 816> 1168 76<-8 26.104 428.392 488 698 750.464 1085.84 1133>
VStem: 470 193<121 504>
DStem2: 330 1130 117 1126 0.493577 -0.869702<0 562.875> 607 640 663 529 0.497847 0.867265<0 552.922>
LayerCount: 2
Fore
SplineSet
-21 1168 m 1
 -8 1244 l 1
 500 1244 l 1
 488 1168 l 1
 330 1130 l 1
 607 640 l 1
 871 1126 l 1
 688 1168 l 1
 698 1244 l 1
 1143 1244 l 1
 1133 1168 l 1
 1008 1130 l 1
 663 529 l 1
 663 114 l 1
 826 80 l 1
 816 0 l 1
 310 0 l 1
 320 74 l 1
 470 121 l 1
 470 504 l 1
 117 1126 l 1
 -21 1168 l 1
EndSplineSet
Colour: ffffff
EndChar

StartChar: Z
Encoding: 90 90 121
Width: 1096
VWidth: 0
Flags: HW
HStem: 0 100<262 832> 1149 95<255 792>
VStem: 88 90<921 948.801>
DStem2: 47 104 262 100 0.581814 0.813322<121.837 1283.37>
LayerCount: 2
Fore
SplineSet
47 104 m 1
 792 1149 l 1
 255 1149 l 1
 178 903 l 1
 88 921 l 1
 98 1244 l 1
 1026 1244 l 1
 1026 1168 l 1
 262 100 l 1
 832 100 l 1
 955 351 l 1
 1048 335 l 1
 991 0 l 1
 55 0 l 1
 47 104 l 1
EndSplineSet
Colour: ffffff
EndChar

StartChar: Zacute
Encoding: 377 377 122
Width: 1096
VWidth: 0
Flags: HW
HStem: 0 100<262 832> 1149 95<255 792>
VStem: 88 90<921 948.801>
DStem2: 47 104 262 100 0.581814 0.813322<121.837 1283.37>
LayerCount: 2
Fore
SplineSet
47 104 m 1
 792 1149 l 1
 255 1149 l 1
 178 903 l 1
 88 921 l 1
 98 1244 l 1
 1026 1244 l 1
 1026 1168 l 1
 262 100 l 1
 832 100 l 1
 955 351 l 1
 1048 335 l 1
 991 0 l 1
 55 0 l 1
 47 104 l 1
473 1385 m 1
 595 1710 l 1
 707 1670 l 1
 523 1354 l 1
 473 1385 l 1
EndSplineSet
Colour: ffffff
EndChar

StartChar: Zcaron
Encoding: 381 381 123
Width: 1096
VWidth: 0
Flags: HW
HStem: 0 100<262 832> 1149 95<255 792> 1569 20G<396.548 443.556 686.429 733.333>
VStem: 88 90<921 948.801>
DStem2: 47 104 262 100 0.581814 0.813322<121.837 1283.37> 423 1589 341 1527 0.733231 -0.67998<0 206.435> 581 1445 575 1376 0.694953 0.719055<0 186.147>
LayerCount: 2
Fore
SplineSet
47 104 m 1
 792 1149 l 1
 255 1149 l 1
 178 903 l 1
 88 921 l 1
 98 1244 l 1
 1026 1244 l 1
 1026 1168 l 1
 262 100 l 1
 832 100 l 1
 955 351 l 1
 1048 335 l 1
 991 0 l 1
 55 0 l 1
 47 104 l 1
341 1527 m 1
 423 1589 l 1
 571 1445 l 1
 581 1445 l 1
 704 1585 l 1
 748 1555 l 1
 575 1376 l 1
 520 1361 l 1
 341 1527 l 1
EndSplineSet
Colour: ffffff
EndChar

StartChar: Zdotaccent
Encoding: 379 379 124
Width: 1096
VWidth: 0
Flags: HW
HStem: 0 100<262 832> 1149 95<255 792> 1360 237<460.495 642.356>
VStem: 88 90<921 948.801> 432 241<1390.74 1569.55>
DStem2: 47 104 262 100 0.581814 0.813322<121.837 1283.37>
LayerCount: 2
Fore
SplineSet
47 104 m 1
 792 1149 l 1
 255 1149 l 1
 178 903 l 1
 88 921 l 1
 98 1244 l 1
 1026 1244 l 1
 1026 1168 l 1
 262 100 l 1
 832 100 l 1
 955 351 l 1
 1048 335 l 1
 991 0 l 1
 55 0 l 1
 47 104 l 1
432 1484 m 0
 432 1548 488 1597 550 1597 c 0
 616 1597 673 1547 673 1483 c 0
 673 1416 616 1360 550 1360 c 0
 484 1360 432 1417 432 1484 c 0
EndSplineSet
Colour: ffffff
EndChar

StartChar: a
Encoding: 97 97 125
Width: 830
VWidth: 0
Flags: HW
HStem: -24 123<190.5 410.153> 1 86<782 819> 428 57<407.813 508> 804 96<253.284 441.789>
VStem: 47 175<123.621 303.932> 81 139<637.141 777.413> 508 162<149.1 428 480.961 729.984>
LayerCount: 2
Fore
SplineSet
47 168 m 4xba
 47 315 182 462 508 485 c 5
 508 540 l 6
 508 675 469 807 331 807 c 4
 235 807 234 756 220 592 c 5
 167 592 81 596 81 695 c 4
 81 804 285 900 423 900 c 4
 601 900 670 804 670 593 c 6
 670 230 l 6
 670 138 689 111 782 96 c 6
 832 87 l 5
 819 1 l 5x76
 772 -5 742 -18 683 -18 c 4
 567 -18 528 57 528 116 c 6
 528 131 l 5
 517 131 l 5
 490 78 407 -24 243 -24 c 4
 138 -24 47 46 47 168 c 4xba
222 215 m 4xba
 222 165 260 99 334 99 c 4
 404 99 475 151 508 188 c 5
 508 428 l 5
 290 385 222 311 222 215 c 4xba
EndSplineSet
Colour: ffffff
EndChar

StartChar: aacute
Encoding: 225 225 126
Width: 830
VWidth: 0
Flags: HW
HStem: -24 123<190.5 410.153> 1 86<782 819> 428 57<407.813 508> 804 96<253.284 441.789>
VStem: 47 175<123.621 303.932> 81 139<637.141 777.413> 508 162<149.1 428 480.961 729.984>
LayerCount: 2
Fore
SplineSet
47 168 m 0xba
 47 315 182 462 508 485 c 1
 508 540 l 2
 508 675 469 804 331 804 c 0
 235 804 235 716 220 592 c 1
 167 592 81 596 81 695 c 0
 81 804 285 900 423 900 c 0
 601 900 670 804 670 593 c 2
 670 230 l 2
 670 138 689 111 782 96 c 2
 832 87 l 1
 819 1 l 1x76
 772 -5 742 -18 683 -18 c 0
 567 -18 528 57 528 116 c 2
 528 131 l 1
 517 131 l 1
 490 78 407 -24 243 -24 c 0
 138 -24 47 46 47 168 c 0xba
222 215 m 0xba
 222 165 260 99 334 99 c 0
 404 99 475 151 508 188 c 1
 508 428 l 1
 290 385 222 311 222 215 c 0xba
328 1017 m 1
 451 1342 l 1
 562 1302 l 1
 380 985 l 1
 328 1017 l 1
EndSplineSet
Colour: ffffff
EndChar

StartChar: abreve
Encoding: 259 259 127
Width: 830
VWidth: 0
Flags: HW
HStem: -24 123<190.5 410.153> 1 86<782 819> 428 57<407.813 508> 804 96<253.284 441.789> 1011 109<302.326 519.069>
VStem: 47 175<123.621 303.932> 81 139<637.141 777.413> 220 54<1166.02 1197.97> 508 162<149.1 428 480.961 729.984>
LayerCount: 2
Fore
SplineSet
47 168 m 0xbc80
 47 315 182 462 508 485 c 1
 508 540 l 2
 508 675 469 804 331 804 c 0
 235 804 235 716 220 592 c 1xb980
 167 592 81 596 81 695 c 0
 81 804 285 900 423 900 c 0
 601 900 670 804 670 593 c 2
 670 230 l 2
 670 138 689 111 782 96 c 2
 832 87 l 1
 819 1 l 1x7a80
 772 -5 742 -18 683 -18 c 0
 567 -18 528 57 528 116 c 2
 528 131 l 1
 517 131 l 1
 490 78 407 -24 243 -24 c 0
 138 -24 47 46 47 168 c 0xbc80
220 1188 m 1
 266 1220 l 1
 274 1203 l 1
 293 1163 342 1120 409 1120 c 0
 479 1120 524 1161 551 1204 c 1
 561 1222 l 1
 602 1194 l 1
 595 1173 l 2
 567 1093 508 1011 409 1011 c 0
 304 1011 243 1092 224 1169 c 2
 220 1188 l 1
222 215 m 0xbc80
 222 165 260 99 334 99 c 0
 404 99 475 151 508 188 c 1
 508 428 l 1
 290 385 222 311 222 215 c 0xbc80
EndSplineSet
Colour: ffffff
EndChar

StartChar: acaron
Encoding: 462 462 128
Width: 830
VWidth: 0
Flags: HW
HStem: -24 123<190.5 410.153> 1 86<782 819> 428 57<407.813 508> 804 96<253.284 441.789>
VStem: 47 175<123.621 303.932> 81 139<637.141 777.413> 508 162<149.1 428 480.961 729.984>
DStem2: 276 1220 196 1159 0.733231 -0.67998<0 207.222> 436 1077 430 1007 0.692867 0.721065<0 186.172>
LayerCount: 2
Fore
SplineSet
47 168 m 0xba
 47 315 182 462 508 485 c 1
 508 540 l 2
 508 675 469 804 331 804 c 0
 235 804 235 716 220 592 c 1
 167 592 81 596 81 695 c 0
 81 804 285 900 423 900 c 0
 601 900 670 804 670 593 c 2
 670 230 l 2
 670 138 689 111 782 96 c 2
 832 87 l 1
 819 1 l 1x76
 772 -5 742 -18 683 -18 c 0
 567 -18 528 57 528 116 c 2
 528 131 l 1
 517 131 l 1
 490 78 407 -24 243 -24 c 0
 138 -24 47 46 47 168 c 0xba
196 1159 m 1
 276 1220 l 1
 426 1077 l 1
 436 1077 l 1
 559 1217 l 1
 602 1186 l 1
 430 1007 l 1
 375 993 l 1
 196 1159 l 1
222 215 m 0xba
 222 165 260 99 334 99 c 0
 404 99 475 151 508 188 c 1
 508 428 l 1
 290 385 222 311 222 215 c 0xba
EndSplineSet
Colour: ffffff
EndChar

StartChar: acircumflex
Encoding: 226 226 129
Width: 830
VWidth: 0
Flags: HW
HStem: -24 123<190.5 410.153> 1 86<782 819> 428 57<407.813 508> 804 96<253.284 441.789>
VStem: 47 175<123.621 303.932> 81 139<637.141 777.413> 508 162<149.1 428 480.961 729.984>
LayerCount: 2
Fore
SplineSet
47 168 m 0xba
 47 315 182 462 508 485 c 1
 508 540 l 2
 508 675 469 804 331 804 c 0
 235 804 235 716 220 592 c 1
 167 592 81 596 81 695 c 0
 81 804 285 900 423 900 c 0
 601 900 670 804 670 593 c 2
 670 230 l 2
 670 138 689 111 782 96 c 2
 832 87 l 1
 819 1 l 1x76
 772 -5 742 -18 683 -18 c 0
 567 -18 528 57 528 116 c 2
 528 131 l 1
 517 131 l 1
 490 78 407 -24 243 -24 c 0
 138 -24 47 46 47 168 c 0xba
211 1024 m 1
 380 1203 l 1
 434 1217 l 1
 611 1032 l 1
 562 995 l 1
 399 1104 l 1
 389 1104 l 1
 249 993 l 1
 211 1024 l 1
222 215 m 0xba
 222 165 260 99 334 99 c 0
 404 99 475 151 508 188 c 1
 508 428 l 1
 290 385 222 311 222 215 c 0xba
EndSplineSet
Colour: ffffff
EndChar

StartChar: acute
Encoding: 180 180 130
Width: 520
VWidth: 0
Flags: HW
HStem: 1348 357
VStem: 172 234
LayerCount: 2
Fore
SplineSet
172 1380 m 1
 295 1705 l 1
 406 1666 l 5
 223 1348 l 1
 172 1380 l 1
EndSplineSet
Colour: ffffff
EndChar

StartChar: adieresis
Encoding: 228 228 131
Width: 830
VWidth: 0
Flags: HW
HStem: -24 123<190.5 410.153> 1 86<782 819> 428 57<407.813 508> 804 96<253.284 441.789> 1004 159<197.862 349.923 465.669 618.537>
VStem: 47 175<123.621 303.932> 81 139<637.141 777.413> 189 170<1013.55 1152.35> 457 171<1014.46 1152.11> 508 162<149.1 428 480.961 729.984>
LayerCount: 2
Fore
SplineSet
47 168 m 0xbc40
 47 315 182 462 508 485 c 1
 508 540 l 2
 508 675 469 804 331 804 c 0
 235 804 235 716 220 592 c 1
 167 592 81 596 81 695 c 0
 81 804 285 900 423 900 c 0
 601 900 670 804 670 593 c 2
 670 230 l 2
 670 138 689 111 782 96 c 2
 832 87 l 1
 819 1 l 1x7a40
 772 -5 742 -18 683 -18 c 0
 567 -18 528 57 528 116 c 2
 528 131 l 1
 517 131 l 1
 490 78 407 -24 243 -24 c 0
 138 -24 47 46 47 168 c 0xbc40
189 1084 m 0x39
 189 1131 233 1163 273 1163 c 0
 317 1163 359 1130 359 1084 c 0
 359 1035 317 1004 273 1004 c 0
 230 1004 189 1035 189 1084 c 0x39
222 215 m 0xbc40
 222 165 260 99 334 99 c 0
 404 99 475 151 508 188 c 1
 508 428 l 1
 290 385 222 311 222 215 c 0xbc40
457 1084 m 0x3880
 457 1131 500 1163 540 1163 c 0
 584 1163 628 1130 628 1084 c 0
 628 1035 584 1004 540 1004 c 0
 497 1004 457 1035 457 1084 c 0x3880
EndSplineSet
Colour: ffffff
EndChar

StartChar: ae
Encoding: 230 230 132
Width: 1238
VWidth: 0
Flags: HW
HStem: -30 116<236.955 413.026 806.956 1069.18> 409 75<356.266 507> 801 99<255.36 448.41 760.392 953.095>
VStem: 45 175<102.861 298.053> 87 136<653.984 774.298> 507 163<249.428 409 507 690.956> 992 177<542.026 762.694>
LayerCount: 2
Fore
SplineSet
45 157 m 0xf6
 45 304 145 418 507 484 c 1
 507 540 l 2
 507 675 473 801 341 801 c 0
 245 801 238 732 223 608 c 1
 170 608 87 613 87 712 c 0xee
 87 821 285 900 423 900 c 0
 536 900 595 860 623 777 c 1
 702 856 804 899 900 899 c 0
 1045 899 1169 792 1169 581 c 0
 1169 550 1159 479 1151 445 c 1
 670 426 l 1
 678 269 760 86 947 86 c 0
 1017 86 1070 99 1174 155 c 1
 1194 104 l 1
 1115 21 998 -30 866 -30 c 0
 761 -30 583 37 552 175 c 1
 508 43 384 -24 242 -24 c 0
 137 -24 45 35 45 157 c 0xf6
220 203 m 0xf6
 220 123 261 83 334 83 c 0
 414 83 507 161 507 262 c 2
 507 409 l 1
 256 369 220 299 220 203 c 0xf6
670 507 m 1
 983 543 l 1
 987 559 992 599 992 615 c 0
 992 734 947 801 851 801 c 0
 771 801 680 701 670 507 c 1
EndSplineSet
Colour: ffffff
EndChar

StartChar: uni05D0
Encoding: 1488 1488 134
Width: 835
VWidth: 0
Flags: HW
HStem: -11 11G<99.9206 316.5 693.629 741.497>
VStem: 104 107<304.301 475.638> 154 179<82.6267 248.802> 639 117<631.205 768.5>
DStem2: 230 862 83 782 0.609617 -0.792696<0 225.424 270.426 495.207 553.801 892.8>
LayerCount: 2
Fore
SplineSet
83 782 m 1xd0
 83 803 l 1
 180 964 l 1
 238 938 l 1
 230 862 l 1
 530 468 l 1
 533 468 l 1
 622 615 l 1
 634 638 639 652 639 662 c 0
 639 669 636 674 633 676 c 2
 510 777 l 1
 502 805 l 1
 589 966 l 1
 640 956 l 1
 643 897 l 1
 717 828 l 2
 736 809 756 787 756 750 c 0
 756 720 743 680 707 624 c 1
 565 421 l 1
 770 151 l 5
 738 -32 l 1
 709 -32 l 1
 264 547 l 1
 240 515 211 470 211 416 c 0xd0
 211 325 333 238 333 108 c 0
 333 66 323 34 310 0 c 1
 105 0 l 1
 89 63 l 1
 149 92 l 1
 152 99 154 108 154 117 c 0xb0
 154 171 104 259 104 345 c 0
 104 420 170 522 230 590 c 1
 83 782 l 1xd0
EndSplineSet
Colour: ffffff
EndChar

StartChar: amacron
Encoding: 257 257 135
Width: 830
VWidth: 0
Flags: HW
HStem: -24 123<190.5 410.153> 1 86<782 819> 428 57<407.813 508> 804 96<253.284 441.789> 1015 101<196 623>
VStem: 47 175<123.621 303.932> 81 139<637.141 777.413> 508 162<149.1 428 480.961 729.984>
LayerCount: 2
Fore
SplineSet
47 168 m 0xbd
 47 315 182 462 508 485 c 1
 508 540 l 2
 508 675 469 804 331 804 c 0
 235 804 235 716 220 592 c 1
 167 592 81 596 81 695 c 0
 81 804 285 900 423 900 c 0
 601 900 670 804 670 593 c 2
 670 230 l 2
 670 138 689 111 782 96 c 2
 832 87 l 1
 819 1 l 1x7b
 772 -5 742 -18 683 -18 c 0
 567 -18 528 57 528 116 c 2
 528 131 l 1
 517 131 l 1
 490 78 407 -24 243 -24 c 0
 138 -24 47 46 47 168 c 0xbd
182 1015 m 1
 196 1116 l 1
 636 1116 l 1
 623 1015 l 1
 182 1015 l 1
222 215 m 0xbd
 222 165 260 99 334 99 c 0
 404 99 475 151 508 188 c 1
 508 428 l 1
 290 385 222 311 222 215 c 0xbd
EndSplineSet
Colour: ffffff
EndChar

StartChar: ampersand
Encoding: 38 38 136
Width: 1281
VWidth: 0
Flags: HW
HStem: -19 124<313.733 565.248> 761 76<823 864.541 1182.51 1245> 1188 83<383.75 568.236>
VStem: 33 188<207.576 485.114> 178 160<891.059 1116.95> 616 170<878.943 1145.52>
DStem2: 556 705 372 629 0.685727 -0.727859<0 344.735 491.613 844.471> 787 449 859 380 0.534813 0.844971<0 322.804>
LayerCount: 2
Fore
SplineSet
33 313 m 0xf4
 33 468 125 596 310 701 c 1
 246 755 178 860 178 974 c 0xec
 178 1130 334 1271 494 1271 c 0
 675 1271 786 1192 786 1011 c 0
 786 909 707 808 556 716 c 1
 556 705 l 1
 787 449 l 1
 964 719 l 1
 813 761 l 1
 823 837 l 1
 1255 837 l 1
 1245 761 l 1
 1075 722 l 1
 859 380 l 1
 1027 199 1143 97 1202 79 c 2
 1235 70 l 1
 1220 0 l 1
 1183 -13 1143 -19 1100 -19 c 0
 989 -19 903 66 844 128 c 2
 756 218 l 1
 664 84 569 -19 380 -19 c 0
 175 -19 33 111 33 313 c 0xf4
221 393 m 0xf4
 221 242 288 105 439 105 c 0
 556 105 646 205 685 282 c 1
 372 629 l 1
 355 632 l 1
 287 585 221 503 221 393 c 0xf4
338 1024 m 0xec
 338 924 427 820 488 773 c 1
 566 826 616 872 616 988 c 0
 616 1098 579 1188 474 1188 c 0
 389 1188 338 1107 338 1024 c 0xec
EndSplineSet
Colour: ffffff
EndChar

StartChar: aogonek
Encoding: 261 261 137
Width: 835
VWidth: 0
Flags: HW
HStem: -386 51<821.239 830.838> -24 123<192.421 410.153> 1 86<789.468 819> 428 57<407.813 508> 804 96<253.284 441.789>
VStem: 47 175<123.621 303.932> 81 139<637.141 777.413> 508 162<149.1 428 480.961 729.984> 584 147<-266.112 -95.2809>
LayerCount: 2
Fore
SplineSet
47 168 m 0xdc80
 47 315 182 462 508 485 c 1
 508 540 l 2
 508 675 469 804 331 804 c 0
 235 804 235 716 220 592 c 1
 167 592 81 596 81 695 c 0
 81 804 285 900 423 900 c 0
 601 900 670 804 670 593 c 2
 670 230 l 2
 670 138 689 111 782 96 c 2
 832 87 l 1
 819 1 l 1xbb
 808 0 799 -2 789 -3 c 1
 734 -95 731 -130 731 -148 c 0
 731 -210 766 -282 856 -335 c 1
 821 -386 l 1
 677 -371 584 -294 584 -208 c 0
 584 -159 601 -110 700 -18 c 1
 683 -18 l 2
 567 -18 528 57 528 116 c 2
 528 131 l 1
 517 131 l 1
 490 78 407 -24 243 -24 c 0
 138 -24 47 46 47 168 c 0xdc80
222 215 m 0xdd
 222 165 260 99 334 99 c 0
 404 99 475 151 508 188 c 1
 508 428 l 1
 290 385 222 311 222 215 c 0xdd
EndSplineSet
Colour: ffffff
EndChar

StartChar: approxequal
Encoding: 8776 8776 138
Width: 921
VWidth: 0
Flags: HW
HStem: 295 143<560.685 769.49> 340 143<150.994 354.086> 551 143<560.685 769.49> 596 143<150.994 357.315>
VStem: 70 56<279.672 304.404 536.672 561.297>
DStem2: 260 738 212 596 0.995169 -0.0981781<-13.8425 429.175> 260 482 212 340 0.994948 -0.100387<-13.8417 451.149>
LayerCount: 2
Back
SplineSet
3.39062 725 m 5
 -18.6094 925 63.3906 1146 339.391 1079 c 6
 681.391 996 l 6
 750.391 980 787.391 1085 787.391 1085 c 5
 961.391 1067 l 5
 959.391 789 832.391 675 587.391 739 c 6
 272.391 821 l 6
 189.391 843 181.391 715 181.391 715 c 5
 3.39062 725 l 5
3.39062 322 m 5
 -18.6094 522 63.3906 743 339.391 676 c 6
 681.391 593 l 6
 750.391 577 787.391 682 787.391 682 c 5
 961.391 664 l 5
 959.391 386 832.391 272 587.391 336 c 6
 272.391 418 l 6
 189.391 440 181.391 312 181.391 312 c 5
 3.39062 322 l 5
EndSplineSet
Fore
SplineSet
70 383 m 0x48
 64 469 130 595 260 582 c 2
 709 538 l 2
 746 534 780 552 792 598 c 1
 856 597 l 1
 858 480 787 382 658 395 c 2x88
 208 440 l 2
 159 445 132 387 126 370 c 1
 70 383 l 0x48
70 700 m 1
 64 808 128 911 260 898 c 2
 709 854 l 2
 760 848 783 880 792 915 c 1
 856 913 l 1
 861 793 804 698 658 712 c 2
 208 756 l 2x18
 141 763 126 687 126 687 c 1
 70 700 l 1
EndSplineSet
Colour: ffffff
EndChar

StartChar: aring
Encoding: 229 229 139
Width: 830
VWidth: 0
Flags: HW
HStem: -24 123<190.5 410.153> 1 86<782 819> 428 57<407.813 508> 804 96<253.284 441.789> 1002 48<337.852 451.843> 1291 47<329.863 438.961>
VStem: 47 175<123.621 303.932> 81 139<637.141 777.413> 228 70<1079.16 1269.14> 480 71<1069.07 1262.84> 508 162<149.1 428 480.961 729.984>
LayerCount: 2
Fore
SplineSet
47 168 m 0xbea0
 47 315 182 462 508 485 c 1
 508 540 l 2
 508 675 469 804 331 804 c 0
 235 804 235 716 220 592 c 1
 167 592 81 596 81 695 c 0
 81 804 285 900 423 900 c 0
 601 900 670 804 670 593 c 2
 670 230 l 2
 670 138 689 111 782 96 c 2
 832 87 l 1
 819 1 l 1x7da0
 772 -5 742 -18 683 -18 c 0
 567 -18 528 57 528 116 c 2
 528 131 l 1
 517 131 l 1
 490 78 407 -24 243 -24 c 0
 138 -24 47 46 47 168 c 0xbea0
222 215 m 0xbea0
 222 165 260 99 334 99 c 0
 404 99 475 151 508 188 c 1
 508 428 l 1
 290 385 222 311 222 215 c 0xbea0
228 1167 m 0
 228 1259 303 1338 396 1338 c 0
 492 1338 551 1270 551 1177 c 0x3cc0
 551 1087 485 1002 383 1002 c 0
 291 1002 228 1065 228 1167 c 0
298 1178 m 0
 298 1117 330 1050 394 1050 c 0
 448 1050 480 1091 480 1164 c 0
 480 1226 446 1291 384 1291 c 0
 325 1291 298 1234 298 1178 c 0
EndSplineSet
Colour: ffffff
EndChar

StartChar: asciicircum
Encoding: 94 94 140
Width: 720
VWidth: 0
Flags: HW
HStem: 787 463
VStem: 42 639
LayerCount: 2
Fore
SplineSet
42 826 m 1
 331 1237 l 1
 386 1250 l 1
 681 824 l 1
 624 787 l 1
 353 1073 l 1
 343 1073 l 1
 92 793 l 1
 42 826 l 1
EndSplineSet
Colour: ffffff
EndChar

StartChar: asciitilde
Encoding: 126 126 141
Width: 947
VWidth: 0
Flags: HW
HStem: 399 229
VStem: 83 55<408.611 434.579> 806 64<592.328 626>
DStem2: 274 611 222 469 0.995037 -0.0995037<-90.6409 508.38>
LayerCount: 2
Fore
SplineSet
83 412 m 2
 83 412 142 624 274 611 c 2
 724 566 l 2
 761 563 806 628 806 628 c 1
 870 626 l 2
 870 626 808 409 672 424 c 2
 222 469 l 2
 182 473 138 399 138 399 c 1
 83 412 l 2
EndSplineSet
Colour: ffffff
EndChar

StartChar: asterisk
Encoding: 42 42 142
Width: 808
VWidth: 0
Flags: HW
HStem: 1099 20G<682.878 731.462>
VStem: 328 136<1169.95 1280.37>
LayerCount: 2
Fore
SplineSet
328 1292 m 1
 464 1279 l 1
 438 988 l 1
 727 1119 l 1
 756 989 l 1
 471 921 l 1
 690 692 l 1
 572 623 l 1
 419 870 l 1
 264 593 l 1
 162 685 l 1
 355 904 l 1
 43 964 l 1
 98 1091 l 1
 365 977 l 1
 328 1292 l 1
EndSplineSet
Colour: ffffff
EndChar

StartChar: at
Encoding: 64 64 143
Width: 1367
VWidth: 0
Flags: HW
HStem: -228 93<487.641 930.149> -39 20G<1055.5 1090.25> 59 122<536.555 651.503 798 1000.01> 703 86<614.764 790.33> 955 89<540.907 952.171>
VStem: 54 155<134.082 575.212> 360 156<193.334 528.533> 738 150<171.026 187 213.324 370.281> 1173 133<370.962 742.383>
DStem2: 792 692 943 751 0.120128 0.992758<-445.959 2.28179>
LayerCount: 2
Fore
SplineSet
54 325 m 0
 54 723 356 1044 787 1044 c 0
 1067 1044 1306 863 1306 589 c 0
 1306 319 1106 70 832 70 c 0
 764 70 735 117 738 187 c 1
 728 187 l 1
 688 128 617 59 541 59 c 0
 436 59 360 155 360 326 c 0
 360 611 590 789 758 789 c 0
 811 789 867 786 924 773 c 1
 943 751 l 1
 902 385 l 2
 893 301 866 168 914 168 c 0
 1065 168 1173 346 1173 549 c 0
 1173 810 987 955 751 955 c 0
 422 955 209 665 209 351 c 0
 209 56 399 -135 727 -135 c 0
 877 -135 1032 -59 1079 -19 c 1
 1115 -83 l 1
 1026 -136 906 -228 691 -228 c 0
 387 -228 54 -77 54 325 c 0
516 368 m 0
 516 217 551 181 601 181 c 0
 654 181 705 214 739 254 c 1
 792 692 l 1
 773 696 735 703 704 703 c 0
 588 703 516 522 516 368 c 0
EndSplineSet
Colour: ffffff
EndChar

StartChar: atilde
Encoding: 227 227 144
Width: 830
VWidth: 0
Flags: HW
HStem: -24 123<190.5 410.153> 1 86<782 819> 428 57<407.813 508> 804 96<253.284 441.789> 1023 104<425.436 589.008> 1054 104<220.971 381.086>
VStem: 47 175<123.621 303.932> 81 139<637.141 777.413> 508 162<149.1 428 480.961 729.984>
DStem2: 309 1157 275 1054 0.991072 -0.133328<-12.8307 216.885>
LayerCount: 2
Fore
SplineSet
47 168 m 0xb280
 47 315 182 462 508 485 c 1
 508 540 l 2
 508 675 469 804 331 804 c 0
 235 804 235 716 220 592 c 1
 167 592 81 596 81 695 c 0
 81 804 285 900 423 900 c 0
 601 900 670 804 670 593 c 2
 670 230 l 2
 670 138 689 111 782 96 c 2
 832 87 l 1
 819 1 l 1x7180
 772 -5 742 -18 683 -18 c 0
 567 -18 528 57 528 116 c 2
 528 131 l 1
 517 131 l 1
 490 78 407 -24 243 -24 c 0
 138 -24 47 46 47 168 c 0xb280
175 1015 m 1
 175 1015 207 1158 296 1158 c 0x3480
 300 1158 305 1158 309 1157 c 2
 532 1127 l 1
 537 1127 l 2
 562 1127 592 1169 592 1169 c 1
 640 1167 l 1
 640 1167 602 1023 510 1023 c 0x3880
 506 1023 501 1023 497 1024 c 2
 275 1054 l 1
 271 1054 l 2x3480
 243 1054 212 1007 212 1007 c 1
 175 1015 l 1
222 215 m 0xb280
 222 165 260 99 334 99 c 0
 404 99 475 151 508 188 c 1
 508 428 l 1
 290 385 222 311 222 215 c 0xb280
EndSplineSet
Colour: ffffff
EndChar

StartChar: uni05E2
Encoding: 1506 1506 145
Width: 811
VWidth: 0
Flags: HW
HStem: -19 21G<69.7586 202.493>
VStem: 247 63<337.648 667.381> 547 58<894.131 953> 681 77<558.039 795.5>
DStem2: 94 150 87 -19 0.985335 0.170631<0 178.026 282.176 485.138>
LayerCount: 2
Fore
SplineSet
62 10 m 1
 94 150 l 1
 270 177 l 1
 253 368 l 2
 248 423 247 482 247 519 c 0
 247 563 265 616 265 645 c 0
 265 676 232 688 195 699 c 1
 105 723 l 1
 87 747 l 1
 104 945 l 1
 161 951 l 1
 194 870 l 1
 260 849 l 2
 300 836 346 825 346 749 c 0
 346 729 342 703 335 671 c 2
 313 582 l 1
 311 571 310 559 310 545 c 0
 310 449 353 284 377 194 c 1
 491 211 l 1
 525 217 553 242 563 270 c 1
 670 605 l 2
 678 630 681 647 681 660 c 0
 681 685 667 692 650 696 c 2
 513 734 l 1
 500 760 l 1
 547 953 l 1
 605 956 l 1
 619 884 l 1
 712 852 l 2
 741 841 758 821 758 770 c 0
 758 741 752 703 741 650 c 2
 637 198 l 1
 618 117 580 67 497 52 c 2
 87 -19 l 1
 62 10 l 1
EndSplineSet
Colour: ffffff
EndChar

StartChar: b
Encoding: 98 98 146
Width: 955
VWidth: 0
Flags: HW
HStem: -23 110<331.765 621.585> 768 131<425.299 626.83>
VStem: 136 163<124.454 711.68 744 1108> 725 179<258.586 647.801>
LayerCount: 2
Fore
SplineSet
-15 1161 m 1
 -2 1237 l 1
 275 1258 l 1
 299 1235 l 1
 299 849 l 1
 285 744 l 1
 296 744 l 1
 375 833 468 899 581 899 c 0
 775 899 904 725 904 472 c 0
 904 155 671 -23 411 -23 c 0
 321 -23 216 -1 136 49 c 1
 136 1108 l 1
 -15 1161 l 1
299 155 m 1
 339 115 423 87 510 87 c 0
 624 87 725 185 725 408 c 0
 725 556 684 768 513 768 c 0
 457 768 378 755 299 672 c 1
 299 155 l 1
EndSplineSet
Colour: ffffff
EndChar

StartChar: backslash
Encoding: 92 92 147
Width: 677
VWidth: 0
Flags: HW
VStem: 37 595
DStem2: 171 1266 37 1274 0.27356 -0.961855<0 1662.77>
LayerCount: 2
Fore
SplineSet
37 1274 m 1
 171 1266 l 1
 632 -376 l 1
 504 -368 l 1
 37 1274 l 1
EndSplineSet
Colour: ffffff
EndChar

StartChar: bar
Encoding: 124 124 148
Width: 331
VWidth: 0
Flags: HW
VStem: 109 115<-366 1248>
LayerCount: 2
Fore
SplineSet
109 -366 m 1
 109 1260 l 1
 224 1248 l 1
 224 -380 l 1
 109 -366 l 1
EndSplineSet
Colour: ffffff
EndChar

StartChar: uni05D1
Encoding: 1489 1489 149
Width: 880
VWidth: 0
Flags: HW
HStem: -16 159<101 379.858> 707 159<214 684.732>
VStem: 690 85<322 705.829> 704 81<182 617.297>
LayerCount: 2
Fore
SplineSet
69 13 m 1xd0
 101 143 l 1
 704 174 l 1
 705 202 705 236 705 266 c 0
 705 286 705 306 704 322 c 2xd0
 690 632 l 2
 687 695 671 709 635 709 c 2
 109 707 l 1
 85 743 l 1
 100 961 l 1
 172 971 l 1
 214 866 l 1
 669 866 l 2
 739 866 772 821 775 673 c 2xe0
 785 182 l 1
 814 155 l 1
 788 16 l 1
 95 -16 l 1
 69 13 l 1xd0
EndSplineSet
Colour: ffffff
EndChar

StartChar: braceleft
Encoding: 123 123 150
Width: 551
VWidth: 0
Flags: HW
HStem: -378 101<449 523> 389 99<4 53> 1155 100<436 518>
VStem: 4 523
LayerCount: 2
Fore
SplineSet
4 389 m 1
 4 488 l 1
 53 497 l 1
 345 547 17 1255 426 1255 c 2
 527 1255 l 1
 518 1155 l 1
 436 1149 l 2
 368 1143 364 1044 364 921 c 2
 364 862 l 2
 364 687 356 491 194 445 c 1
 194 438 l 1
 492 352 265 -259 449 -271 c 2
 523 -277 l 1
 531 -378 l 1
 429 -378 l 2
 14 -378 343 335 56 381 c 2
 4 389 l 1
EndSplineSet
Colour: ffffff
EndChar

StartChar: braceright
Encoding: 125 125 151
Width: 553
VWidth: 0
Flags: HW
HStem: -378 101<31 105> 1155 100<35 117>
VStem: 22 527
LayerCount: 2
Back
SplineSet
27.8945 -475.236 m 5
 38.2266 -348.164 l 5
 132.24 -341.966 l 6
 363.66 -326.469 76.4512 442.178 451.477 549.622 c 5
 451.477 557.887 l 5
 247.949 615.742 237.619 863.693 237.619 1082.71 c 6
 237.619 1156.07 l 6
 237.619 1311.04 232.453 1436.04 146.703 1443.27 c 6
 44.4258 1451.54 l 5
 34.0928 1576.54 l 5
 161.167 1576.54 l 6
 675.664 1576.54 262.413 688.062 629.173 624.009 c 5
 690.128 613.676 l 5
 690.128 489.7 l 5
 625.039 479.37 l 6
 264.479 421.516 677.729 -475.236 157.035 -475.236 c 6
 27.8945 -475.236 l 5
EndSplineSet
Fore
SplineSet
22 -378 m 1
 31 -277 l 1
 105 -271 l 2
 289 -259 62 352 360 438 c 1
 360 445 l 1
 62 515 292 1134 117 1149 c 2
 35 1155 l 1
 28 1255 l 1
 129 1255 l 2
 538 1255 208 547 500 497 c 1
 549 488 l 1
 549 389 l 1
 497 381 l 2
 210 335 541 -378 126 -378 c 2
 22 -378 l 1
EndSplineSet
Colour: ffffff
EndChar

StartChar: bracketleft
Encoding: 91 91 152
Width: 474
VWidth: 0
Flags: HW
HStem: -375 96<313.022 466> 1166 89<320.605 463>
VStem: 109 357<-375 -279 1166 1255> 109 151<-260 1146>
LayerCount: 2
Fore
SplineSet
109 -376 m 1xd0
 109 1255 l 1xe0
 463 1255 l 1
 474 1166 l 1
 260 1146 l 1
 260 -260 l 1xd0
 476 -279 l 1
 466 -375 l 1xe0
 109 -376 l 1xd0
EndSplineSet
Colour: ffffff
EndChar

StartChar: bracketright
Encoding: 93 93 153
Width: 474
VWidth: 0
Flags: HW
HStem: -375 96<10 163.732> 1166 89<13 155.829>
VStem: 10 358<-375 -279 1166 1255> 217 151<-260 1146>
LayerCount: 2
Fore
SplineSet
0 -279 m 1xe0
 217 -260 l 1
 217 1146 l 1
 1 1166 l 1
 13 1255 l 1
 366 1255 l 1
 368 -376 l 1xd0
 10 -375 l 1
 0 -279 l 1xe0
EndSplineSet
Colour: ffffff
EndChar

StartChar: breve
Encoding: 728 728 154
Width: 566
VWidth: 0
Flags: HW
HStem: 1373 110<173.934 387.798> 1564 20G<108.121 147.5 418 460.276>
VStem: 90 46<1546.92 1561.28>
LayerCount: 2
Fore
SplineSet
90 1551 m 1
 136 1584 l 1
 159 1535 200 1483 279 1483 c 0
 360 1483 404 1535 432 1585 c 1
 473 1556 l 1
 443 1468 388 1373 279 1373 c 0
 162 1373 112 1464 90 1551 c 1
EndSplineSet
Colour: ffffff
EndChar

StartChar: brokenbar
Encoding: 166 166 155
Width: 335
VWidth: 0
Flags: HW
VStem: 109 119<-366 411 540 1248>
LayerCount: 2
Fore
SplineSet
109 -366 m 1
 109 423 l 1
 228 411 l 1
 228 -380 l 1
 109 -366 l 1
109 540 m 1
 109 1260 l 1
 227 1248 l 1
 225 529 l 1
 109 540 l 1
EndSplineSet
Colour: ffffff
EndChar

StartChar: bullet
Encoding: 8226 8226 156
Width: 494
VWidth: 0
Flags: HW
HStem: 395 346<132.959 361.12>
VStem: 71 352<457.371 683.031>
LayerCount: 2
Fore
SplineSet
71 575 m 0
 71 668 153 741 246 741 c 0
 342 741 423 666 423 573 c 0
 423 474 342 395 246 395 c 0
 150 395 71 476 71 575 c 0
EndSplineSet
Colour: ffffff
EndChar

StartChar: c
Encoding: 99 99 157
Width: 778
VWidth: 0
Flags: HW
HStem: -30 120<392.092 644.549> 806 94<317.176 518.739>
VStem: 50 181<294.183 637.419>
LayerCount: 2
Fore
SplineSet
50 415 m 0
 50 712 258 900 475 900 c 0
 642 900 716 826 716 747 c 0
 716 688 672 648 589 642 c 1
 561 709 515 806 428 806 c 0
 309 806 231 688 231 507 c 0
 231 340 320 90 528 90 c 0
 627 90 683 121 730 151 c 1
 755 93 l 1
 702 29 574 -30 445 -30 c 0
 205 -30 50 175 50 415 c 0
EndSplineSet
Colour: ffffff
EndChar

StartChar: cacute
Encoding: 263 263 158
Width: 778
VWidth: 0
Flags: HW
HStem: -30 120<392.092 644.549> 806 94<317.176 518.739>
VStem: 50 181<294.183 637.419>
LayerCount: 2
Fore
SplineSet
50 415 m 0
 50 712 258 900 475 900 c 0
 642 900 716 826 716 747 c 0
 716 688 672 648 589 642 c 1
 561 709 515 806 428 806 c 0
 309 806 231 688 231 507 c 0
 231 340 320 90 528 90 c 0
 627 90 683 121 730 151 c 1
 755 93 l 1
 702 29 574 -30 445 -30 c 0
 205 -30 50 175 50 415 c 0
354 1034 m 1
 476 1358 l 1
 589 1318 l 1
 405 1002 l 1
 354 1034 l 1
EndSplineSet
Colour: ffffff
EndChar

StartChar: caron
Encoding: 711 711 159
Width: 590
VWidth: 0
Flags: HW
HStem: 1357 227
VStem: 92 408
DStem2: 174 1584 92 1522 0.735276 -0.677768<0 206.419> 332 1440 328 1370 0.690858 0.722991<0 186.917>
LayerCount: 2
Fore
SplineSet
92 1522 m 1
 174 1584 l 1
 322 1440 l 1
 332 1440 l 1
 455 1581 l 1
 500 1550 l 1
 328 1370 l 1
 271 1357 l 1
 92 1522 l 1
EndSplineSet
Colour: ffffff
EndChar

StartChar: ccaron
Encoding: 269 269 160
Width: 778
VWidth: 0
Flags: HW
HStem: -30 120<392.092 644.549> 806 94<317.176 518.739>
VStem: 50 181<294.183 637.419>
DStem2: 302 1237 222 1174 0.739196 -0.67349<0 207.123> 461 1093 457 1024 0.690764 0.72308<0 187.609>
LayerCount: 2
Fore
SplineSet
50 415 m 0
 50 712 258 900 475 900 c 0
 642 900 716 826 716 747 c 0
 716 688 672 648 589 642 c 1
 561 709 515 806 428 806 c 0
 309 806 231 688 231 507 c 0
 231 340 320 90 528 90 c 0
 627 90 683 121 730 151 c 1
 755 93 l 1
 702 29 574 -30 445 -30 c 0
 205 -30 50 175 50 415 c 0
222 1174 m 1
 302 1237 l 1
 451 1093 l 1
 461 1093 l 1
 585 1234 l 1
 628 1203 l 1
 457 1024 l 1
 402 1010 l 1
 222 1174 l 1
EndSplineSet
Colour: ffffff
EndChar

StartChar: ccedilla
Encoding: 231 231 161
Width: 783
VWidth: 0
Flags: HW
HStem: -389 58<346.057 382.714> 806 94<319.333 520.943>
VStem: 54 179<291.573 637.419> 417 133<-311.962 -166.386>
LayerCount: 2
Fore
SplineSet
54 415 m 0
 54 712 260 900 477 900 c 0
 644 900 719 826 719 747 c 0
 719 688 675 648 592 642 c 1
 564 709 517 806 430 806 c 0
 311 806 233 688 233 507 c 0
 233 340 322 90 530 90 c 0
 629 90 685 121 732 151 c 1
 758 93 l 1
 712 36 608 -17 495 -28 c 1
 461 -76 l 1
 498 -109 550 -160 550 -227 c 0
 550 -306 467 -355 351 -389 c 1
 331 -331 l 1
 388 -312 417 -278 417 -248 c 0
 417 -214 380 -172 344 -138 c 1
 419 -28 l 1
 195 -13 54 185 54 415 c 0
EndSplineSet
Colour: ffffff
EndChar

StartChar: cedilla
Encoding: 184 184 163
Width: 341
VWidth: 0
Flags: HW
HStem: -389 58<76.3037 112.763>
VStem: 148 134<-311.962 -168.583>
LayerCount: 2
Fore
SplineSet
62 -331 m 1
 119 -312 148 -278 148 -248 c 0
 148 -214 110 -172 74 -138 c 1
 172 3 l 1
 246 3 l 1
 193 -76 l 1
 230 -109 282 -160 282 -227 c 0
 282 -306 197 -355 81 -389 c 1
 62 -331 l 1
EndSplineSet
Colour: ffffff
EndChar

StartChar: cent
Encoding: 162 162 164
Width: 808
VWidth: 0
Flags: HW
HStem: -30 30<383 472> 903 37<378 469>
VStem: 41 181<294.183 644.759> 581 126<735.841 770.634>
LayerCount: 2
Fore
SplineSet
41 415 m 0
 41 712 249 940 466 940 c 0
 633 940 707 866 707 787 c 0
 707 728 664 689 581 683 c 1
 553 750 506 846 419 846 c 0
 300 846 222 688 222 507 c 0
 222 340 311 90 519 90 c 0
 618 90 674 121 721 151 c 1
 746 93 l 1
 693 29 565 -30 436 -30 c 0
 196 -30 41 175 41 415 c 0
347 1154 m 1
 493 1171 l 1
 469 903 l 1
 378 903 l 1
 347 1154 l 1
357 -266 m 1
 383 0 l 1
 472 0 l 1
 505 -250 l 1
 357 -266 l 1
EndSplineSet
Colour: ffffff
EndChar

StartChar: circumflex
Encoding: 710 710 165
Width: 584
VWidth: 0
Flags: HW
HStem: 1358 223
VStem: 90 401
LayerCount: 2
Fore
SplineSet
90 1387 m 1
 258 1566 l 1
 313 1581 l 1
 491 1395 l 1
 442 1358 l 1
 279 1468 l 1
 268 1468 l 1
 129 1357 l 1
 90 1387 l 1
EndSplineSet
Colour: ffffff
EndChar

StartChar: colon
Encoding: 58 58 166
Width: 422
VWidth: 0
Flags: HW
HStem: 1 223<125.259 300.464> 629 224<125.259 300.464>
VStem: 99 226<26.5288 201.149 654.529 829.589>
LayerCount: 2
Fore
SplineSet
99 119 m 0
 99 178 151 224 212 224 c 0
 273 224 325 176 325 117 c 0
 325 53 273 1 212 1 c 0
 150 1 99 55 99 119 c 0
99 747 m 0
 99 808 151 853 212 853 c 0
 273 853 325 805 325 744 c 0
 325 680 273 629 212 629 c 0
 150 629 99 683 99 747 c 0
EndSplineSet
Colour: ffffff
EndChar

StartChar: comma
Encoding: 44 44 167
Width: 434
VWidth: 0
Flags: HW
HStem: -313 69<72.2213 134.506> 36 182<105.346 214.831>
VStem: 236 136<-151.064 87.5971>
LayerCount: 2
Fore
SplineSet
54 -244 m 1
 185 -210 236 -134 236 -70 c 0
 236 -14 190 36 120 36 c 0
 110 36 100 35 90 34 c 1
 82 55 76 74 76 97 c 0
 76 177 148 218 198 218 c 0
 268 218 372 161 372 10 c 0
 372 -83 340 -243 77 -313 c 1
 54 -244 l 1
EndSplineSet
Colour: ffffff
EndChar

StartChar: commaaccent
Encoding: 806 806 168
Width: 787
VWidth: 0
Flags: HW
HStem: -389 52<15.7618 59.7592>
VStem: 96 110<-311.121 -186.54>
LayerCount: 2
Fore
SplineSet
2 -337 m 1
 72 -319 96 -282 96 -246 c 0
 96 -213 37 -170 15 -168 c 1
 24 -125 57 -85 104 -85 c 0
 144 -85 206 -114 206 -203 c 0
 206 -257 169 -354 21 -389 c 1
 2 -337 l 1
EndSplineSet
Colour: ffffff
EndChar

StartChar: copyright
Encoding: 169 169 169
Width: 1377
VWidth: 0
Flags: HW
HStem: -15 107<480.298 886.232> 266 102<635.278 849.867> 976 80<571.6 742.928> 1217 103<484.402 906.198>
VStem: 53 123<415.745 882.783> 344 154<541.055 832.806> 1205 122<422.825 888.596>
LayerCount: 2
Fore
SplineSet
53 645 m 0
 53 1026 346 1320 684 1320 c 0
 1079 1320 1327 1033 1327 649 c 0
 1327 292 1041 -15 675 -15 c 0
 309 -15 53 270 53 645 c 0
176 657 m 0
 176 329 387 92 683 92 c 0
 971 92 1205 325 1205 639 c 0
 1205 964 1019 1217 684 1217 c 0
 396 1217 176 961 176 657 c 0
EndSplineSet
Refer: 157 99 N 0.85 0 0 0.85 302 291 2
Colour: ffffff
EndChar

StartChar: currency
Encoding: 164 164 170
Width: 763
VWidth: 0
Flags: HW
HStem: 217 96<273.989 492.797> 670 98<272.863 490.955>
VStem: 120 105<363.245 622.085> 541 106<361.017 620.6>
LayerCount: 2
Fore
SplineSet
68 713 m 1
 153 796 l 1
 230 709 l 1
 273 745 335 768 384 768 c 0
 438 768 501 748 541 718 c 1
 618 798 l 1
 694 709 l 1
 611 636 l 1
 632 599 647 538 647 491 c 0
 647 441 631 379 604 342 c 1
 697 256 l 1
 611 174 l 1
 531 264 l 1
 485 236 423 217 376 217 c 0
 336 217 282 233 242 257 c 1
 165 168 l 1
 80 254 l 1
 165 332 l 1
 138 372 120 435 120 488 c 0
 120 534 136 592 159 628 c 1
 68 713 l 1
225 494 m 0
 225 386 289 313 381 313 c 0
 477 313 541 383 541 487 c 0
 541 598 477 670 380 670 c 0
 288 670 225 599 225 494 c 0
EndSplineSet
Colour: ffffff
EndChar

StartChar: d
Encoding: 100 100 171
Width: 987
VWidth: 0
Flags: HW
HStem: -21 126<336.869 544.345> -4 83<928 962> 802 98<325.189 569.168>
VStem: 54 176<229.272 611.068> 657 162<108.896 131 159.877 720.768 856 1111>
LayerCount: 2
Fore
SplineSet
54 399 m 0xb8
 54 690 285 900 491 900 c 0
 557 900 630 880 663 856 c 1
 670 856 l 1
 658 984 l 1
 658 1111 l 1
 506 1166 l 1
 520 1241 l 1
 798 1265 l 1
 819 1241 l 1
 819 215 l 2
 819 110 862 104 928 89 c 2
 973 79 l 1
 962 -4 l 1x78
 903 -19 877 -23 815 -23 c 0
 715 -23 666 41 666 124 c 2
 666 131 l 1
 657 131 l 1
 601 54 518 -21 380 -21 c 0
 203 -21 54 124 54 399 c 0xb8
230 462 m 0
 230 225 325 105 451 105 c 0xb8
 534 105 623 157 657 197 c 1
 657 666 l 1
 604 753 510 802 443 802 c 0
 286 802 230 653 230 462 c 0
EndSplineSet
Colour: ffffff
EndChar

StartChar: dagger
Encoding: 8224 8224 172
Width: 797
VWidth: 0
Flags: HW
HStem: 712 115<45 342 458 756>
VStem: 328 145<-351 668.236> 342 116<-315.236 716 819 1244>
LayerCount: 2
Fore
SplineSet
37 712 m 1xa0
 45 827 l 1
 342 819 l 1
 334 1255 l 1
 467 1244 l 1
 458 819 l 1
 764 827 l 1
 756 705 l 1
 458 716 l 1xa0
 473 -363 l 1
 328 -351 l 1xc0
 342 718 l 1
 37 712 l 1xa0
EndSplineSet
Colour: ffffff
EndChar

StartChar: daggerdbl
Encoding: 8225 8225 173
Width: 829
VWidth: 0
Flags: HW
HStem: 64 123<70 350 464 771> 712 115<59 354 470 768>
VStem: 350 114<-352 73 175 315.44 581.726 716 819 819> 357 104<175 716>
LayerCount: 2
Fore
SplineSet
52 712 m 1xd0
 59 827 l 1
 354 819 l 1
 347 1255 l 1
 480 1244 l 1
 470 819 l 1
 774 827 l 1
 768 705 l 1
 470 716 l 1
 461 429 l 1xd0
 464 174 l 1
 777 181 l 1
 771 64 l 1
 464 73 l 1
 473 -363 l 1
 340 -352 l 1
 350 73 l 1
 62 64 l 1
 70 187 l 1
 350 175 l 1xe0
 357 498 l 1
 354 718 l 1
 52 712 l 1xd0
EndSplineSet
Colour: ffffff
EndChar

StartChar: uni05D3
Encoding: 1491 1491 174
Width: 805
VWidth: 0
Flags: HW
HStem: -10 21G<587.8 709> 709 157<159 598 664 713>
VStem: 581 99<122.806 600.246> 598 66<284.736 696>
LayerCount: 2
Fore
SplineSet
35 738 m 1xd0
 51 961 l 1
 124 971 l 1
 159 866 l 1
 714 866 l 1
 740 836 l 1
 713 709 l 1
 664 696 l 1xd0
 680 237 l 1
 709 6 l 1
 615 -10 l 1
 581 15 l 1xe0
 598 709 l 1
 61 709 l 1
 35 738 l 1xd0
EndSplineSet
Colour: ffffff
EndChar

StartChar: dcaron
Encoding: 271 271 175
Width: 927
VWidth: 0
Flags: HW
HStem: -21 126<384.869 592.029> -4 83<977 1010> 770 69<72.2213 134.506> 802 98<370.544 616.371> 1120 181<103.707 211.604>
VStem: 101 178<229.272 611.068> 236 136<932.813 1170.56> 704 164<108.896 131 159.877 720.768 861.666 1111>
LayerCount: 2
Fore
SplineSet
54 839 m 1x2b
 185 873 236 947 236 1011 c 0
 236 1067 189 1120 119 1120 c 0
 109 1120 100 1118 90 1117 c 1
 82 1138 74 1157 74 1180 c 0
 74 1260 147 1301 197 1301 c 0
 267 1301 372 1244 372 1093 c 0
 372 1000 340 840 77 770 c 1
 54 839 l 1x2b
101 399 m 0x8d
 101 690 332 900 538 900 c 0
 604 900 677 880 710 856 c 1
 719 856 l 1
 706 984 l 1
 706 1111 l 1
 553 1166 l 1
 568 1241 l 1
 845 1265 l 1
 868 1241 l 1
 868 215 l 2
 868 110 911 104 977 89 c 2
 1022 79 l 1
 1010 -4 l 1x5d
 951 -19 924 -23 862 -23 c 0
 762 -23 713 41 713 124 c 2
 713 131 l 1
 704 131 l 1
 648 54 565 -21 427 -21 c 0
 250 -21 101 124 101 399 c 0x8d
279 462 m 0
 279 225 374 105 500 105 c 0x9d
 583 105 670 157 704 197 c 1
 704 666 l 1
 651 753 558 802 491 802 c 0
 334 802 279 653 279 462 c 0
EndSplineSet
Colour: ffffff
EndChar

StartChar: dcroat
Encoding: 273 273 176
Width: 987
VWidth: 0
Flags: HW
HStem: -21 126<336.869 544.345> -4 83<928 962> 802 98<325.189 569.168> 986 76<484 910>
VStem: 54 176<229.272 611.068> 657 162<108.896 131 159.877 720.768 856 1111>
LayerCount: 2
Fore
SplineSet
54 399 m 0xbc
 54 690 285 900 491 900 c 0
 557 900 630 880 663 856 c 1
 670 856 l 1
 658 984 l 1
 658 1111 l 1
 506 1166 l 1
 520 1241 l 1
 798 1265 l 1
 819 1241 l 1
 819 215 l 2
 819 110 862 104 928 89 c 2
 973 79 l 1
 962 -4 l 1x7c
 903 -19 877 -23 815 -23 c 0
 715 -23 666 41 666 124 c 2
 666 131 l 1
 657 131 l 1
 601 54 518 -21 380 -21 c 0
 203 -21 54 124 54 399 c 0xbc
230 462 m 0
 230 225 325 105 451 105 c 0xbc
 534 105 623 157 657 197 c 1
 657 666 l 1
 604 753 510 802 443 802 c 0
 286 802 230 653 230 462 c 0
470 986 m 1
 484 1062 l 1
 924 1062 l 1
 910 986 l 1
 470 986 l 1
EndSplineSet
Colour: ffffff
EndChar

StartChar: degree
Encoding: 176 176 177
Width: 424
VWidth: 0
Flags: HW
HStem: 948 47<163.796 275.796> 1237 47<154.363 263.347>
VStem: 52 71<1023.13 1215.14> 304 72<1016.99 1209.63>
LayerCount: 2
Fore
SplineSet
32 1107 m 0
 32 1210 117 1304 225 1304 c 0
 341 1304 396 1237 396 1128 c 0
 396 1013 307 928 201 928 c 0
 99 928 32 990 32 1107 c 0
123 1129 m 0
 123 1068 155 995 219 995 c 0
 273 995 304 1032 304 1105 c 0
 304 1167 271 1237 209 1237 c 0
 150 1237 123 1185 123 1129 c 0
EndSplineSet
Colour: ffffff
EndChar

StartChar: dieresis
Encoding: 168 168 178
Width: 623
VWidth: 0
Flags: HW
HStem: 1383 159<101.566 253.923 369.566 522.73>
VStem: 92 171<1393.06 1531.66> 360 172<1394.01 1531.66>
LayerCount: 2
Fore
SplineSet
92 1465 m 0
 92 1512 137 1542 177 1542 c 0
 221 1542 263 1511 263 1465 c 0
 263 1416 221 1383 177 1383 c 0
 134 1383 92 1416 92 1465 c 0
360 1465 m 0
 360 1512 405 1542 445 1542 c 0
 489 1542 532 1511 532 1465 c 0
 532 1416 489 1383 445 1383 c 0
 402 1383 360 1416 360 1465 c 0
EndSplineSet
Colour: ffffff
EndChar

StartChar: dieresiscomb
Encoding: 776 776 179
Width: 109
VWidth: 0
Flags: HW
HStem: 1383 159<101.566 253.923 369.566 522.73>
VStem: 92 171<1393.06 1531.66> 360 172<1394.01 1531.66>
LayerCount: 2
Fore
SplineSet
92 1465 m 0
 92 1512 137 1542 177 1542 c 0
 221 1542 263 1511 263 1465 c 0
 263 1416 221 1383 177 1383 c 0
 134 1383 92 1416 92 1465 c 0
360 1465 m 0
 360 1512 405 1542 445 1542 c 0
 489 1542 532 1511 532 1465 c 0
 532 1416 489 1383 445 1383 c 0
 402 1383 360 1416 360 1465 c 0
EndSplineSet
Colour: ffffff
EndChar

StartChar: divide
Encoding: 247 247 180
Width: 932
VWidth: 0
Flags: HW
HStem: 104 237<369.925 551.215> 454 106<67 868> 666 237<369.925 551.215>
VStem: 341 240<132.795 315.304 694.795 877.304>
LayerCount: 2
Fore
SplineSet
55 454 m 1
 67 560 l 1
 879 560 l 1
 868 454 l 1
 55 454 l 1
341 228 m 0
 341 292 396 341 460 341 c 0
 526 341 581 291 581 227 c 0
 581 160 526 104 460 104 c 0
 394 104 341 161 341 228 c 0
341 790 m 0
 341 854 396 903 460 903 c 0
 526 903 581 853 581 789 c 0
 581 722 526 666 460 666 c 0
 394 666 341 723 341 790 c 0
EndSplineSet
Colour: ffffff
EndChar

StartChar: dollar
Encoding: 36 36 181
Width: 859
VWidth: 0
Flags: HW
HStem: -24 101<285.471 554.249> 1185 84<324.705 563.237>
VStem: 79 102<305.893 375> 90 173<881.304 1085.87> 367 173<-165.243 9> 416 67<54 1202> 640 99<899 1008.53> 663 184<188.064 394.55>
LayerCount: 2
Fore
SplineSet
66 122 m 1xd1
 79 389 l 1
 181 375 l 1
 220 187 l 1
 256 130 333 77 426 77 c 0
 531 77 663 139 663 287 c 0xe1
 663 547 90 544 90 916 c 0
 90 1143 282 1269 479 1269 c 0
 587 1269 682 1235 761 1169 c 1
 761 1161 739 887 739 887 c 1
 640 899 l 1xd2
 615 1090 l 1
 597 1126 525 1185 445 1185 c 0
 345 1185 263 1126 263 995 c 0
 263 708 847 730 847 354 c 0
 847 124 630 -24 402 -24 c 0
 258 -24 130 43 66 122 c 1xd1
367 -179 m 1xc8
 379 9 l 1
 416 54 l 1
 416 631 l 1
 421 700 l 1
 421 1207 l 1
 385 1242 l 1
 370 1394 l 1
 535 1409 l 1
 518 1242 l 1
 483 1202 l 1
 483 666 l 1xc4
 486 582 l 1
 486 54 l 1
 527 20 l 1
 540 -164 l 1
 367 -179 l 1xc8
EndSplineSet
Colour: ffffff
EndChar

StartChar: dotaccent
Encoding: 729 729 182
Width: 425
VWidth: 0
Flags: HW
HStem: 1355 238<120.925 303.356>
VStem: 92 242<1385.74 1565.12>
LayerCount: 2
Fore
SplineSet
92 1479 m 0
 92 1543 149 1593 211 1593 c 0
 277 1593 334 1542 334 1478 c 0
 334 1411 277 1355 211 1355 c 0
 145 1355 92 1412 92 1479 c 0
EndSplineSet
Colour: ffffff
EndChar

StartChar: dotaccentcomb
Encoding: 775 775 183
Width: 53
VWidth: 0
Flags: HW
HStem: 1342 214<111.579 282.715>
VStem: 90 214<1363.28 1534.42>
LayerCount: 2
Fore
SplineSet
90 1449 m 0
 90 1507 139 1556 197 1556 c 0
 256 1556 304 1508 304 1449 c 0
 304 1388 258 1342 197 1342 c 0
 138 1342 90 1390 90 1449 c 0
EndSplineSet
Colour: ffffff
EndChar

StartChar: dotbelowcomb
Encoding: 803 803 184
Width: 53
VWidth: 0
Flags: HW
HStem: -380 215<20.8568 193.22>
VStem: 0 215<-357.993 -186.218>
LayerCount: 2
Fore
SplineSet
0 -271 m 0
 0 -213 47 -165 105 -165 c 0
 164 -165 215 -212 215 -271 c 0
 215 -332 166 -380 105 -380 c 0
 46 -380 0 -330 0 -271 c 0
EndSplineSet
Colour: ffffff
EndChar

StartChar: dotlessi
Encoding: 305 305 185
Width: 539
VWidth: 0
Flags: HW
HStem: 0 79<49 107.506 466.007 517>
VStem: 200 168<116 731>
LayerCount: 2
Fore
SplineSet
37 0 m 1
 49 79 l 1
 200 116 l 1
 200 731 l 1
 49 786 l 1
 62 862 l 1
 343 885 l 1
 368 860 l 1
 368 116 l 1
 528 80 l 1
 517 0 l 1
 37 0 l 1
EndSplineSet
Colour: ffffff
EndChar

StartChar: e
Encoding: 101 101 186
Width: 802
VWidth: 0
Flags: HW
HStem: -30 132<376.28 633.945> 801 98<317.899 516.372>
VStem: 53 178<272.847 445 523 638.97> 553 178<545.363 763.979>
LayerCount: 2
Fore
SplineSet
53 428 m 0
 53 728 270 899 464 899 c 0
 609 899 731 792 731 581 c 0
 731 550 723 485 715 451 c 1
 231 445 l 1
 239 288 323 102 510 102 c 0
 583 102 634 101 737 157 c 1
 758 104 l 1
 679 21 561 -30 429 -30 c 0
 241 -30 53 124 53 428 c 0
233 523 m 1
 547 546 l 1
 551 562 553 599 553 615 c 0
 553 734 511 801 415 801 c 0
 335 801 243 717 233 523 c 1
EndSplineSet
Colour: ffffff
EndChar

StartChar: ecaron
Encoding: 283 283 188
Width: 802
VWidth: 0
Flags: HW
HStem: -30 132<376.28 633.945> 801 98<317.899 516.372>
VStem: 53 178<272.847 445 523 638.97> 553 178<545.363 763.979>
DStem2: 298 1220 218 1159 0.733231 -0.67998<0 207.222> 458 1077 452 1007 0.692867 0.721065<0 186.172>
LayerCount: 2
Fore
SplineSet
53 428 m 0
 53 728 270 899 464 899 c 0
 609 899 731 792 731 581 c 0
 731 550 723 485 715 451 c 1
 231 445 l 1
 239 288 323 102 510 102 c 2
 516 102 l 2
 583 102 637 103 737 157 c 1
 758 104 l 1
 679 21 561 -30 429 -30 c 0
 241 -30 53 124 53 428 c 0
218 1159 m 1
 298 1220 l 1
 448 1077 l 1
 458 1077 l 1
 581 1217 l 1
 624 1186 l 1
 452 1007 l 1
 397 993 l 1
 218 1159 l 1
233 523 m 1
 547 546 l 1
 551 562 553 599 553 615 c 0
 553 734 511 801 415 801 c 0
 335 801 243 717 233 523 c 1
EndSplineSet
Colour: ffffff
EndChar

StartChar: ecircumflex
Encoding: 234 234 189
Width: 802
VWidth: 0
Flags: HW
HStem: -30 132<376.28 633.945> 801 98<317.899 516.372>
VStem: 53 178<272.847 445 523 638.97> 553 178<545.363 763.979>
LayerCount: 2
Fore
SplineSet
53 428 m 0
 53 728 270 899 464 899 c 0
 609 899 731 792 731 581 c 0
 731 550 723 485 715 451 c 1
 231 445 l 1
 239 288 323 102 510 102 c 2
 516 102 l 2
 583 102 637 103 737 157 c 1
 758 104 l 1
 679 21 561 -30 429 -30 c 0
 241 -30 53 124 53 428 c 0
233 523 m 1
 547 546 l 1
 551 562 553 599 553 615 c 0
 553 734 511 801 415 801 c 0
 335 801 243 717 233 523 c 1
233 1024 m 1
 402 1203 l 1
 457 1217 l 1
 633 1032 l 1
 585 995 l 1
 421 1104 l 1
 411 1104 l 1
 271 993 l 1
 233 1024 l 1
EndSplineSet
Colour: ffffff
EndChar

StartChar: edieresis
Encoding: 235 235 190
Width: 802
VWidth: 0
Flags: HW
HStem: -30 132<376.28 633.945> 801 98<317.899 516.372> 1004 159<219.862 371.923 487.669 640.537>
VStem: 53 178<272.847 445 523 638.97> 211 170<1013.55 1152.35> 479 171<1014.46 1152.11> 553 178<545.363 763.979>
LayerCount: 2
Fore
SplineSet
53 428 m 0xf2
 53 728 270 899 464 899 c 0
 609 899 731 792 731 581 c 0
 731 550 723 485 715 451 c 1
 231 445 l 1
 239 288 323 102 510 102 c 2
 516 102 l 2
 583 102 637 103 737 157 c 1
 758 104 l 1
 679 21 561 -30 429 -30 c 0
 241 -30 53 124 53 428 c 0xf2
211 1084 m 0xe8
 211 1131 255 1163 295 1163 c 0
 339 1163 381 1130 381 1084 c 0
 381 1035 339 1004 295 1004 c 0
 252 1004 211 1035 211 1084 c 0xe8
233 523 m 1
 547 546 l 1
 551 562 553 599 553 615 c 0xe2
 553 734 511 801 415 801 c 0
 335 801 243 717 233 523 c 1
479 1084 m 0xe4
 479 1131 522 1163 562 1163 c 0
 606 1163 650 1130 650 1084 c 0
 650 1035 606 1004 562 1004 c 0
 519 1004 479 1035 479 1084 c 0xe4
EndSplineSet
Colour: ffffff
EndChar

StartChar: edotaccent
Encoding: 279 279 191
Width: 802
VWidth: 0
Flags: HW
HStem: -30 132<376.28 633.945> 801 98<317.899 516.372> 992 236<337.925 521.696>
VStem: 53 178<272.847 445 523 638.97> 309 241<1020.79 1201.41> 553 178<545.363 763.979>
LayerCount: 2
Fore
SplineSet
53 428 m 0
 53 728 270 899 464 899 c 0
 609 899 731 792 731 581 c 0
 731 550 723 485 715 451 c 1
 231 445 l 1
 239 288 323 102 510 102 c 2
 516 102 l 2
 583 102 637 103 737 157 c 1
 758 104 l 1
 679 21 561 -30 429 -30 c 0
 241 -30 53 124 53 428 c 0
233 523 m 1
 547 546 l 1
 551 562 553 599 553 615 c 0
 553 734 511 801 415 801 c 0
 335 801 243 717 233 523 c 1
309 1116 m 0
 309 1180 366 1228 428 1228 c 0
 494 1228 550 1178 550 1114 c 0
 550 1047 494 992 428 992 c 0
 362 992 309 1049 309 1116 c 0
EndSplineSet
Colour: ffffff
EndChar

StartChar: eight
Encoding: 56 56 193
Width: 876
VWidth: 0
Flags: HW
HStem: -27 88<333.981 580.232> 1124 77<320.746 527.431>
VStem: 54 189<151.344 417.38> 100 166<837.13 1028.89> 601 169<778.576 1051.41> 628 170<135.082 345.687>
LayerCount: 2
Fore
SplineSet
54 280 m 0xe4
 54 393 127 482 287 575 c 1
 287 584 l 1
 191 648 100 732 100 879 c 0
 100 1047 257 1201 451 1201 c 0
 641 1201 770 1077 770 926 c 0xd8
 770 809 680 679 567 639 c 1
 564 629 l 1
 712 521 798 449 798 300 c 0
 798 116 662 -27 396 -27 c 0
 212 -27 54 89 54 280 c 0xe4
243 304 m 0xe4
 243 142 352 61 461 61 c 0
 556 61 628 115 628 236 c 0
 628 349 473 459 354 533 c 1
 288 474 243 442 243 304 c 0xe4
266 955 m 0xd8
 266 862 352 761 497 678 c 1
 571 721 601 771 601 890 c 0
 601 1031 531 1124 426 1124 c 0
 312 1124 266 1035 266 955 c 0xd8
EndSplineSet
Substitution2: "'sups' Superscript lookup 0 subtable" eight.superior
Colour: ffffff
EndChar

StartChar: eight.osf
Encoding: 65539 -1 194
Width: 804
VWidth: 0
Flags: HW
HStem: -27 93<301.484 535.941> 1124 77<299.031 481.365>
VStem: 55 165<155.948 428.216> 100 149<833.551 1042.14> 552 148<773.357 1058.93> 594 158<150.303 376.141>
LayerCount: 2
Fore
SplineSet
55 280 m 0xe4
 55 393 127 499 271 589 c 1
 271 598 l 1
 197 642 100 753 100 887 c 0
 100 1055 242 1201 417 1201 c 0
 589 1201 700 1094 700 943 c 0xd8
 700 826 650 731 534 645 c 1
 534 636 l 1
 681 544 752 430 752 308 c 0
 752 124 590 -27 360 -27 c 0
 176 -27 55 89 55 280 c 0xe4
220 304 m 0xe4
 220 185 301 66 406 66 c 0
 519 66 594 132 594 266 c 0
 594 374 475 465 330 555 c 1
 277 515 220 409 220 304 c 0xe4
249 977 m 0xd8
 249 868 325 756 466 676 c 1
 506 720 552 778 552 906 c 0
 552 1014 495 1124 390 1124 c 0
 311 1124 249 1057 249 977 c 0xd8
EndSplineSet
Colour: ffffff
EndChar

StartChar: ellipsis
Encoding: 8230 8230 195
Width: 1301
VWidth: 0
Flags: HW
HStem: -31 236<102.925 285.509 547.925 731.103 1019.49 1202.7>
VStem: 74 239<-2.61206 178.897> 519 240<-2.61206 177.981> 991 240<-2.61206 177.981>
LayerCount: 2
Fore
SplineSet
74 92 m 0
 74 156 129 205 193 205 c 0
 259 205 313 154 313 90 c 0
 313 23 259 -31 193 -31 c 0
 127 -31 74 25 74 92 c 0
519 92 m 0
 519 156 574 205 638 205 c 0
 704 205 759 154 759 90 c 0
 759 23 704 -31 638 -31 c 0
 572 -31 519 25 519 92 c 0
991 92 m 0
 991 156 1045 205 1109 205 c 0
 1175 205 1231 154 1231 90 c 0
 1231 23 1175 -31 1109 -31 c 0
 1043 -31 991 25 991 92 c 0
EndSplineSet
Colour: ffffff
EndChar

StartChar: emacron
Encoding: 275 275 196
Width: 802
VWidth: 0
Flags: HW
HStem: -30 132<376.28 633.945> 801 98<317.899 516.372> 1015 101<218 645>
VStem: 53 178<272.847 445 523 638.97> 553 178<545.363 763.979>
LayerCount: 2
Fore
SplineSet
53 428 m 0
 53 728 270 899 464 899 c 0
 609 899 731 792 731 581 c 0
 731 550 723 485 715 451 c 1
 231 445 l 1
 239 288 323 102 510 102 c 2
 516 102 l 2
 583 102 637 103 737 157 c 1
 758 104 l 1
 679 21 561 -30 429 -30 c 0
 241 -30 53 124 53 428 c 0
205 1015 m 1
 218 1116 l 1
 658 1116 l 1
 645 1015 l 1
 205 1015 l 1
233 523 m 1
 547 546 l 1
 551 562 553 599 553 615 c 0
 553 734 511 801 415 801 c 0
 335 801 243 717 233 523 c 1
EndSplineSet
Colour: ffffff
EndChar

StartChar: emdash
Encoding: 8212 8212 197
Width: 1306
VWidth: 0
Flags: HW
HStem: 409 104<102 1207>
LayerCount: 2
Fore
SplineSet
87 409 m 1
 102 513 l 1
 1223 520 l 1
 1207 415 l 1
 87 409 l 1
EndSplineSet
Colour: ffffff
EndChar

StartChar: emptyset
Encoding: 8709 8709 198
Width: 1038
VWidth: 0
Flags: HW
HStem: -37 114<374.174 699.516> -17 21G<109.066 141.291> 811 118<370.628 686.961>
VStem: 72 143<241.251 638.304> 841 143<229.032 656.104>
LayerCount: 2
Back
SplineSet
65.1133 108.86 m 5
 222.808 229.93 l 5
 247.225 243.156 l 5
 1035.7 950.239 l 5
 1056.05 977.709 l 5
 1183.22 1115.06 l 5
 1246.3 1019.42 l 5
 1101.83 906.492 l 5
 1083.52 901.405 l 5
 285.886 186.182 l 5
 268.59 159.73 l 5
 128.19 12.209 l 5
 65.1133 108.86 l 5
90.5469 557.527 m 4
 90.5469 875.971 373.382 1166.94 666.389 1166.94 c 4
 1017.39 1166.94 1236.12 896.317 1236.12 556.511 c 4
 1236.12 233.999 1015.35 -46.7998 667.406 -46.7998 c 4
 347.946 -46.7998 90.5469 191.269 90.5469 557.527 c 4
200.426 556.511 m 4
 200.426 215.686 437.477 34.5918 668.424 34.5918 c 4
 932.943 34.5918 1125.23 208.564 1125.23 557.527 c 4
 1125.23 897.335 907.509 1080.46 666.389 1080.46 c 4
 401.867 1080.46 200.426 874.953 200.426 556.511 c 4
EndSplineSet
Fore
SplineSet
38 105 m 1x78
 164 196 l 1
 208 205 l 1
 836 768 l 1
 830 797 l 1
 928 906 l 1
 1013 785 l 1
 898 698 l 1
 873 705 l 1
 238 136 l 1
 230 100 l 1
 123 -17 l 1
 38 105 l 1x78
72 444 m 0
 72 697 297 929 530 929 c 0
 809 929 984 713 984 443 c 0
 984 186 808 -37 531 -37 c 0xb8
 277 -37 72 152 72 444 c 0
215 443 m 0
 215 194 375 77 531 77 c 0
 710 77 841 188 841 444 c 0
 841 693 693 811 530 811 c 0
 351 811 215 676 215 443 c 0
EndSplineSet
Colour: ffffff
EndChar

StartChar: endash
Encoding: 8211 8211 199
Width: 795
VWidth: 0
Flags: HW
HStem: 409 104<102 697>
VStem: 87 626
LayerCount: 2
Fore
SplineSet
87 409 m 1
 102 513 l 1
 713 520 l 1
 697 415 l 1
 87 409 l 1
EndSplineSet
Colour: ffffff
EndChar

StartChar: eng
Encoding: 331 331 200
Width: 995
VWidth: 0
Flags: HW
HStem: 0 73<47 99.7984 462.901 501> 761 138<499.21 685.86>
VStem: 198 168<114 714.047> 738 166<-67.168 708.215>
LayerCount: 2
Fore
SplineSet
37 0 m 1
 47 73 l 1
 198 114 l 1
 198 721 l 1
 44 773 l 1
 54 849 l 1
 352 888 l 1
 369 869 l 1
 352 741 l 1
 362 741 l 1
 429 821 537 899 663 899 c 0
 820 899 904 794 904 616 c 2
 904 151 l 1
 902 -126 759 -276 608 -359 c 2
 564 -383 l 1
 515 -295 l 1
 623 -215 738 -89 738 181 c 2
 737 577 l 2
 737 707 662 761 563 761 c 0
 490 761 416 731 366 675 c 1
 366 114 l 1
 515 79 l 1
 501 0 l 1
 37 0 l 1
EndSplineSet
Colour: ffffff
EndChar

StartChar: eogonek
Encoding: 281 281 201
Width: 805
VWidth: 0
Flags: HW
HStem: -386 51<634.239 643.12> -30 132<378.255 502.874> 801 98<318.58 517.368>
VStem: 54 179<272.847 445 523 638.97> 396 148<-266.112 -93.0477> 555 179<545.363 762.694>
LayerCount: 2
Fore
SplineSet
54 428 m 0
 54 728 271 899 465 899 c 0
 610 899 734 792 734 581 c 0
 734 550 724 485 716 451 c 1
 233 445 l 1
 241 288 325 102 512 102 c 2
 517 102 l 2
 584 102 638 103 738 157 c 1
 760 104 l 1
 718 60 666 25 605 2 c 1
 547 -94 544 -130 544 -148 c 0
 544 -210 579 -282 669 -335 c 1
 633 -386 l 1
 489 -371 396 -294 396 -208 c 0
 396 -161 411 -112 504 -24 c 1
 480 -27 455 -30 431 -30 c 0
 243 -30 54 124 54 428 c 0
234 523 m 1
 549 546 l 1
 553 562 555 599 555 615 c 0
 555 734 511 801 415 801 c 0
 335 801 244 717 234 523 c 1
EndSplineSet
Colour: ffffff
EndChar

StartChar: equal
Encoding: 61 61 202
Width: 809
VWidth: 0
Flags: HW
HStem: 319 105<102 706> 559 104<105 709>
VStem: 92 625
LayerCount: 2
Fore
SplineSet
92 319 m 1
 102 424 l 1
 717 424 l 1
 706 319 l 1
 92 319 l 1
95 559 m 1
 105 663 l 1
 721 663 l 1
 709 559 l 1
 95 559 l 1
EndSplineSet
Colour: ffffff
EndChar

StartChar: eth
Encoding: 240 240 203
Width: 912
VWidth: 0
Flags: HW
HStem: -27 97<358.392 590.245> 856 92<320.627 527.25>
VStem: 53 178<233.814 687.914> 669 173<224.809 659.898>
DStem2: 292 1106 282 1031 0.978248 0.207441<0 172.169 342.387 432.206>
LayerCount: 2
Fore
SplineSet
53 451 m 0
 53 746 232 948 445 948 c 0
 485 948 572 933 602 857 c 1
 608 859 l 1
 587 929 541 1001 497 1071 c 1
 282 1031 l 1
 292 1106 l 1
 461 1139 l 1
 415 1205 365 1262 321 1302 c 1
 438 1302 l 1
 471 1283 528 1238 589 1171 c 1
 740 1201 l 1
 730 1124 l 1
 642 1106 l 1
 746 968 842 757 842 465 c 0
 842 157 663 -27 448 -27 c 0
 171 -27 53 208 53 451 c 0
231 498 m 5
 234 227 332 70 470 70 c 0
 625 70 669 209 669 424 c 0
 669 658 548 853 432 856 c 1
 285 856 231 714 231 498 c 5
EndSplineSet
Colour: ffffff
EndChar

StartChar: exclam
Encoding: 33 33 204
Width: 412
VWidth: 0
Flags: HW
HStem: -36 246<113.644 300.843>
VStem: 83 248<-5.4134 179.987> 109 195<725.989 1280.4> 162 87<376 788.902>
LayerCount: 2
Back
SplineSet
83 92 m 0xc0
 83 159 140 210 206 210 c 0
 273 210 331 157 331 90 c 0
 331 20 276 -36 206 -36 c 0
 136 -36 83 22 83 92 c 0xc0
109 1250 m 2xa0
 109 1253 l 1
 117 1281 204 1292 240 1292 c 0
 267 1292 304 1284 304 1253 c 0xa0
 304 1085 276 685 249 363 c 1
 249 357 l 1
 162 376 l 1
 162 380 l 1x90
 138 702 109 1141 109 1250 c 2xa0
EndSplineSet
Fore
SplineSet
83 92 m 0xc0
 83 159 140 210 206 210 c 0
 273 210 331 157 331 90 c 0
 331 20 276 -36 206 -36 c 0
 136 -36 83 22 83 92 c 0xc0
109 1245 m 0
 109 1282 197 1292 240 1292 c 0
 267 1292 304 1284 304 1253 c 0xa0
 304 1084 273 675 249 357 c 1
 162 376 l 1
 147 669 109 1072 109 1245 c 0
EndSplineSet
Colour: ffffff
EndChar

StartChar: exclamdown
Encoding: 161 161 205
Width: 387
VWidth: 0
Flags: HW
HStem: 666 244<100.587 290.273>
VStem: 70 250<695.56 878.984> 97 197<-405.195 148.23> 151 89<115.785 520>
LayerCount: 2
Fore
SplineSet
97 -378 m 0xa0
 97 -210 124 212 151 534 c 1
 151 540 l 1
 240 520 l 1
 240 517 l 1x90
 264 195 294 -266 294 -375 c 2
 294 -378 l 1
 286 -406 198 -418 162 -418 c 0
 135 -418 97 -409 97 -378 c 0xa0
70 784 m 0xc0
 70 854 126 910 196 910 c 0
 266 910 320 853 320 783 c 0
 320 716 262 666 196 666 c 0
 129 666 70 717 70 784 c 0xc0
EndSplineSet
Colour: ffffff
EndChar

StartChar: f
Encoding: 102 102 206
Width: 694
VWidth: 0
Flags: HW
HStem: 0 73<47 97.6761 537.827 604> 784 89<366 611> 784 73<62 151.926> 1198 106<424.576 595.287>
VStem: 199 167<121 784>
LayerCount: 2
Fore
SplineSet
35 0 m 1xd8
 47 73 l 1
 199 116 l 1
 199 784 l 1
 50 784 l 1
 62 857 l 1xb8
 200 879 l 1
 233 1167 433 1304 575 1304 c 0
 680 1304 762 1269 762 1189 c 0
 762 1140 706 1090 673 1077 c 1
 633 1126 559 1198 497 1198 c 0
 423 1198 372 1153 368 981 c 1
 366 873 l 1
 623 873 l 1
 611 784 l 1
 366 784 l 1
 366 121 l 1
 611 83 l 1
 604 0 l 1
 35 0 l 1xd8
EndSplineSet
Colour: ffffff
EndChar

StartChar: f.alt2
Encoding: 65540 -1 207
Width: 646
VWidth: 0
Flags: HW
HStem: 0 73<47 97.6761 537.827 604> 784 89<366 611> 784 73<62 151.926> 1120 21G<562 589> 1185 117<387.789 552.51>
VStem: 199 167<121 784>
LayerCount: 2
Fore
SplineSet
35 0 m 1xdc
 47 73 l 1
 199 116 l 1
 199 784 l 1
 50 784 l 1
 62 857 l 1xbc
 200 879 l 1
 233 1167 404 1302 497 1302 c 0
 584 1302 638 1281 638 1214 c 0
 638 1174 604 1136 574 1120 c 1
 550 1147 495 1185 451 1185 c 0
 392 1185 372 1153 368 981 c 1
 366 873 l 1
 623 873 l 1
 611 784 l 1
 366 784 l 1
 366 121 l 1
 611 83 l 1
 604 0 l 1
 35 0 l 1xdc
EndSplineSet
Colour: ffffff
EndChar

StartChar: finalnun-hb
Encoding: 1503 1503 208
Width: 372
VWidth: 0
Flags: HW
VStem: 177 106<-368 397.44> 189 77<-8.78537 682.21> 208 70<72.5312 669.707>
LayerCount: 2
Fore
SplineSet
23 737 m 1x20
 42 935 l 1
 100 940 l 1
 130 858 l 1
 197 837 l 2
 245 822 278 798 278 689 c 0x20
 278 679 278 669 277 658 c 2
 267 471 l 2
 266 451 266 427 266 403 c 0x40
 266 285 277 127 283 -31 c 1
 289 -166 298 -298 308 -376 c 1
 213 -392 l 1
 177 -368 l 1x80
 189 394 l 2x40
 189 428 190 447 195 479 c 1
 208 600 l 1
 208 608 l 2
 208 655 167 680 130 689 c 1
 42 713 l 1
 23 737 l 1x20
EndSplineSet
Colour: ffffff
EndChar

StartChar: finalpe-hb
Encoding: 1507 1507 209
Width: 772
VWidth: 0
Flags: HW
HStem: 329 158<237.497 368.357>
VStem: 33 99<505 732.552> 574 114<-353 258.842> 581 72<380.158 668.68>
DStem2: 226 879 135 734 0.988785 -0.149348<0 387.045>
LayerCount: 2
Fore
SplineSet
33 573 m 0xd0
 33 631 48 696 72 763 c 2
 150 974 l 1
 218 979 l 1
 226 879 l 1
 553 834 l 2
 634 823 645 805 653 655 c 2xd0
 688 -16 l 2
 691 -87 694 -283 704 -361 c 1
 610 -377 l 1
 574 -353 l 1xe0
 581 600 l 2
 581 650 563 670 519 676 c 2
 135 734 l 1
 133 720 132 706 132 694 c 0
 132 540 281 499 402 487 c 1
 403 482 402 478 402 473 c 0
 402 414 366 359 329 329 c 1
 113 338 33 437 33 573 c 0xd0
EndSplineSet
Colour: ffffff
EndChar

StartChar: finaltsadi-hb
Encoding: 1509 1509 210
Width: 628
VWidth: 0
Flags: HW
VStem: 174 130<-368 94.7812> 185 85<-1.88 150 271 326.711> 205 70<365.589 673.429> 248 16<152.593 330> 500 119<654.456 778>
DStem2: 275 330 335 310 0.584105 0.811678<0 403.725>
LayerCount: 2
Fore
SplineSet
19 742 m 1x28
 39 940 l 1
 96 947 l 1
 127 865 l 1
 194 842 l 1
 242 827 275 803 275 694 c 0x28
 275 684 275 674 274 663 c 2
 264 476 l 1x18
 258 312 270 240 270 144 c 1x48
 280 -31 l 2
 287 -166 294 -298 304 -376 c 1
 210 -392 l 1
 174 -368 l 1x88
 185 271 l 1x48
 205 605 l 1
 205 613 l 2
 205 660 164 683 127 692 c 1
 39 718 l 1
 19 742 l 1x28
248 330 m 1x18
 275 330 l 1x28
 482 621 l 2
 496 640 500 655 500 666 c 0
 500 674 497 681 493 683 c 2
 358 756 l 1
 350 784 l 1
 432 953 l 1
 485 943 l 1
 488 884 l 1
 576 834 l 2
 599 821 619 797 619 759 c 0
 619 727 606 686 566 631 c 2
 335 310 l 1
 299 262 278 201 262 150 c 1
 260 205 250 281 248 330 c 1x18
EndSplineSet
Colour: ffffff
EndChar

StartChar: five
Encoding: 53 53 211
Width: 918
VWidth: 0
Flags: HW
HStem: -25 92<152.922 434.16> 1016 182<413.152 619>
VStem: 7 85<222.592 368> 513 176<191.608 441.258>
LayerCount: 2
Back
SplineSet
-2.03418 129.209 m 1
 36.626 439.512 l 1
 97.6689 427.303 l 1
 115.981 194.321 l 1
 200.426 105.809 300.129 60.0254 399.833 60.0254 c 0
 601.276 60.0254 719.293 200.426 719.293 407.972 c 0
 719.293 659.267 460.876 829.171 130.226 848.501 c 1
 268.59 1469.11 l 1
 806.788 1502.68 l 1
 786.44 1356.18 l 1
 306.233 1333.79 l 1
 241.12 976.692 l 1
 647.058 947.188 868.849 740.657 868.849 480.206 c 0
 868.849 215.686 652.145 -8.13867 345.912 -8.13867 c 0
 220.773 -8.13867 103.773 34.5918 -2.03418 129.209 c 1
EndSplineSet
Fore
SplineSet
-19 74 m 1
 7 387 l 1
 92 368 l 1
 113 155 l 1
 153 93 222 67 304 67 c 0
 431 67 513 156 513 290 c 0
 513 494 357 582 57 602 c 1
 176 1169 l 1
 645 1198 l 1
 619 1016 l 1
 232 1000 l 1
 196 762 l 1
 582 740 689 564 689 354 c 0
 689 156 505 -25 260 -25 c 0
 151 -25 55 -3 -19 74 c 1
EndSplineSet
Substitution2: "'sups' Superscript lookup 0 subtable" five.superior
Colour: ffffff
EndChar

StartChar: five.osf
Encoding: 65541 -1 212
Width: 700
VWidth: 0
Flags: HW
HStem: -297 91<149.868 386.189>
VStem: 479 184<-28.208 247.756>
DStem2: 179 934 240 788 0.995966 0.0897267<47.6539 406.274>
LayerCount: 2
Fore
SplineSet
-66 -159 m 0
 -66 -86 -25 -37 34 -26 c 1
 68 -96 146 -206 255 -206 c 0
 384 -206 479 -117 479 80 c 0
 479 278 347 395 76 426 c 1
 179 934 l 1
 623 974 l 1
 598 811 l 1
 240 788 l 1
 209 570 l 1
 516 540 663 376 663 145 c 0
 663 -60 466 -297 202 -297 c 0
 12 -297 -66 -217 -66 -159 c 0
EndSplineSet
Colour: ffffff
EndChar

StartChar: four
Encoding: 52 52 213
Width: 944
VWidth: 0
Flags: HW
HStem: 0 79<261 306.367 837.087 875> 349 130<164 493 676 915>
VStem: 496 180<117 346 479 912>
LayerCount: 2
Back
SplineSet
264.521 0 m 1
 272.66 92.583 l 1
 609.415 151.59 l 1
 609.415 1295.13 l 1
 289.956 1295.13 l 1
 298.095 1391.79 l 1
 822.049 1488.44 l 1
 855.622 1488.44 l 1
 855.622 143.451 l 1
 1189.33 103.773 l 1
 1177.12 0 l 1
 264.521 0 l 1
EndSplineSet
Fore
SplineSet
-21 431 m 1
 621 1194 l 1
 686 1176 l 1
 680 1057 676 864 676 683 c 2
 676 479 l 1
 931 479 l 1
 915 346 l 1
 676 346 l 1
 676 105 l 1
 865 73 l 1
 855 0 l 1
 274 0 l 1
 281 66 l 1
 496 111 l 1
 496 349 l 1
 2 349 l 1
 -21 431 l 1
164 479 m 1
 493 479 l 1
 493 912 l 1
 164 479 l 1
EndSplineSet
Substitution2: "'sups' Superscript lookup 0 subtable" four.superior
Colour: ffffff
EndChar

StartChar: four.osf
Encoding: 65542 -1 214
Width: 940
VWidth: 0
Flags: HW
HStem: 89 122<169 499 675 910>
VStem: 500 175<-267 86 211 676>
DStem2: -9 164 169 211 0.60648 0.795099<145.323 715.182>
LayerCount: 2
Fore
SplineSet
-9 164 m 1
 618 986 l 1
 683 968 l 1
 677 849 673 613 673 432 c 2
 673 211 l 1
 927 211 l 1
 910 86 l 1
 675 86 l 1
 675 -267 l 1
 500 -304 l 1
 500 89 l 1
 14 89 l 1
 -9 164 l 1
169 211 m 1
 499 211 l 1
 499 676 l 1
 169 211 l 1
EndSplineSet
Colour: ffffff
EndChar

StartChar: fraction
Encoding: 8260 8260 215
Width: 1736
VWidth: 0
Flags: HW
HStem: -32 21G<140.273 324.91>
DStem2: 530 588 684 591 0.56265 0.826695<-330.251 731.269>
LayerCount: 2
Fore
SplineSet
123 -10 m 1
 530 588 l 1
 921 1210 l 1
 1087 1207 l 1
 1085 1178 l 1
 684 591 l 1
 313 -32 l 1
 123 -10 l 1
EndSplineSet
Colour: ffffff
EndChar

StartChar: g
Encoding: 103 103 216
Width: 890
VWidth: 0
Flags: HW
HStem: -386 107<259.774 594.1> 3 148<255.656 654.914> 301 79<329.03 514.573> 715 134<771.917 832> 715 118<771.917 832> 823 73<308.573 486.455>
VStem: 24 176<-221 -66.2383> 88 161<135.5 243.478 462.394 725.844> 564 163<454.77 741.526> 676 169<-183.481 -23.8168>
LayerCount: 2
Fore
SplineSet
24 -162 m 0xf240
 24 -70 135 -10 184 18 c 1
 184 27 l 1
 122 57 88 107 88 164 c 0
 88 218 181 298 255 328 c 1
 255 335 l 1
 205 348 92 454 92 589 c 0
 92 754 258 896 426 896 c 0xe5
 518 896 586 869 636 833 c 1xe9
 651 833 851 849 851 849 c 1
 871 826 l 1
 832 715 l 1
 816 715 l 1
 693 755 l 1
 693 738 l 1
 706 710 727 649 727 599 c 0
 727 415 540 301 389 301 c 0
 349 301 310 308 299 311 c 1
 276 287 249 254 249 223 c 0xf180
 249 183 276 151 432 151 c 2
 568 151 l 2
 716 151 845 124 845 -50 c 0
 845 -224 614 -386 386 -386 c 0
 202 -386 24 -334 24 -162 c 0xf240
200 -108 m 0xe240
 200 -242 311 -279 440 -279 c 0
 571 -279 676 -232 676 -100 c 0
 676 -11 607 3 426 3 c 2
 252 3 l 1
 252 3 200 -16 200 -108 c 0xe240
252 608 m 0
 252 470 344 380 417 380 c 0
 506 380 564 439 564 580 c 0
 564 688 507 823 402 823 c 0xe480
 300 823 252 739 252 608 c 0
EndSplineSet
Colour: ffffff
EndChar

StartChar: gbreve
Encoding: 287 287 217
Width: 890
VWidth: 0
Flags: HW
HStem: -386 107<259.774 594.1> 3 148<255.656 654.914> 301 79<329.03 514.573> 715 134<771.917 832> 715 118<771.917 832> 823 73<308.573 486.455> 1011 109<335.326 552.069>
VStem: 24 176<-221 -66.2383> 88 161<135.5 243.478 462.394 725.844> 253 54<1166.02 1198.19> 564 163<454.77 741.526> 676 169<-183.481 -23.8168>
LayerCount: 2
Fore
SplineSet
24 -162 m 0xf350
 24 -70 135 -10 184 18 c 1
 184 27 l 1
 122 57 88 107 88 164 c 0
 88 218 181 298 255 328 c 1
 255 335 l 1
 205 348 92 454 92 589 c 0
 92 754 258 896 426 896 c 0xe6c0
 518 896 586 869 636 833 c 1xeac0
 651 833 851 849 851 849 c 1
 871 826 l 1
 832 715 l 1
 816 715 l 1
 693 755 l 1
 693 738 l 1
 706 710 727 649 727 599 c 0
 727 415 540 301 389 301 c 0
 349 301 310 308 299 311 c 1
 276 287 249 254 249 223 c 0xf2e0
 249 183 276 151 432 151 c 2
 568 151 l 2
 716 151 845 124 845 -50 c 0
 845 -224 614 -386 386 -386 c 0
 202 -386 24 -334 24 -162 c 0xf350
200 -108 m 0xe350
 200 -242 311 -279 440 -279 c 0
 571 -279 676 -232 676 -100 c 0
 676 -11 607 3 426 3 c 2
 252 3 l 1
 252 3 200 -16 200 -108 c 0xe350
252 608 m 0
 252 470 344 380 417 380 c 0
 506 380 564 439 564 580 c 0
 564 688 507 823 402 823 c 0xe660
 300 823 252 739 252 608 c 0
253 1188 m 1
 298 1220 l 1
 307 1203 l 1
 326 1163 375 1120 442 1120 c 0
 512 1120 557 1161 584 1204 c 1
 594 1222 l 1
 635 1194 l 1
 628 1173 l 2
 600 1093 541 1011 442 1011 c 0
 337 1011 276 1092 257 1169 c 2
 253 1188 l 1
EndSplineSet
Colour: ffffff
EndChar

StartChar: gcommaaccent
Encoding: 291 291 218
Width: 890
VWidth: 0
Flags: HW
HStem: -386 107<259.774 594.1> 3 148<255.656 654.914> 301 79<329.03 514.573> 715 134<771.917 832> 715 118<771.917 832> 823 73<308.573 486.455> 1244 52<479.266 523.238>
VStem: 24 176<-221 -66.2383> 88 161<135.5 243.478 462.394 725.844> 334 109<1092.6 1219.68> 564 163<454.77 741.526> 676 169<-183.481 -23.8168>
LayerCount: 2
Fore
SplineSet
24 -162 m 0xf350
 24 -70 135 -10 184 18 c 1
 184 27 l 1
 122 57 88 107 88 164 c 0
 88 218 181 298 255 328 c 1
 255 335 l 1
 205 348 92 454 92 589 c 0
 92 754 258 896 426 896 c 0xe6c0
 518 896 586 869 636 833 c 1xeac0
 651 833 851 849 851 849 c 1
 871 826 l 1
 832 715 l 1
 816 715 l 1
 693 755 l 1
 693 738 l 1
 706 710 727 649 727 599 c 0
 727 415 540 301 389 301 c 0
 349 301 310 308 299 311 c 1
 276 287 249 254 249 223 c 0xf2e0
 249 183 276 151 432 151 c 2
 568 151 l 2
 716 151 845 124 845 -50 c 0
 845 -224 614 -386 386 -386 c 0
 202 -386 24 -334 24 -162 c 0xf350
200 -108 m 0xe350
 200 -242 311 -279 440 -279 c 0
 571 -279 676 -232 676 -100 c 0
 676 -11 607 3 426 3 c 2
 252 3 l 1
 252 3 200 -16 200 -108 c 0xe350
252 608 m 0
 252 470 344 380 417 380 c 0
 506 380 564 439 564 580 c 0
 564 688 507 823 402 823 c 0xe660
 300 823 252 739 252 608 c 0
334 1109 m 0
 334 1163 370 1261 518 1296 c 1
 537 1244 l 1
 467 1226 443 1190 443 1154 c 0
 443 1121 501 1077 523 1075 c 1
 514 1032 481 992 434 992 c 0
 394 992 334 1020 334 1109 c 0
EndSplineSet
Colour: ffffff
EndChar

StartChar: germandbls
Encoding: 223 223 220
Width: 1116
VWidth: 0
Flags: HW
HStem: -31 98<719.33 936.291> 0 73<46 96.6761> 784 65<62 148.016> 1198 107<432.712 646.487>
VStem: 198 168<116 784 872 1042.4> 498 131<168.71 207.329> 523 129<601.336 755.288> 712 154<913.858 1133.51> 951 145<92.4985 236.61>
LayerCount: 2
Fore
SplineSet
34 0 m 1x7b80
 46 73 l 1
 198 116 l 1
 198 784 l 1
 53 784 l 1
 62 849 l 1
 200 872 l 1
 215 1093 372 1305 602 1305 c 0
 764 1305 866 1194 866 1053 c 0
 866 856 652 804 652 683 c 0x7b80
 652 511 1096 497 1096 223 c 0
 1096 75 943 -31 789 -31 c 0
 611 -31 498 52 498 142 c 0
 498 228 556 271 629 275 c 1
 660 144 744 67 820 67 c 0xbd80
 890 67 951 84 951 167 c 0
 951 308 523 345 523 615 c 0
 523 799 712 852 712 994 c 0
 712 1110 642 1198 529 1198 c 0
 429 1198 365 1122 365 909 c 2
 366 0 l 1
 34 0 l 1x7b80
EndSplineSet
Colour: ffffff
EndChar

StartChar: uni05D2
Encoding: 1490 1490 221
Width: 578
VWidth: 0
Flags: HW
HStem: 0 163<64.4985 279.144>
VStem: 371 86<257.797 668.53> 408 114<19 201.713>
LayerCount: 2
Fore
SplineSet
45 97 m 0xa0
 45 133 52 164 63 179 c 1
 95 168 125 163 153 163 c 0
 269 163 338 253 371 332 c 1
 372 600 l 2
 372 647 354 665 317 676 c 2
 129 732 l 1
 111 755 l 1
 127 963 l 1
 194 969 l 1
 228 879 l 1
 338 847 l 2
 390 832 438 803 444 655 c 2
 457 358 l 2xc0
 463 221 512 63 522 11 c 1
 431 -5 l 1
 408 19 l 1
 391 253 l 1
 379 253 l 1
 358 159 321 45 242 0 c 1
 65 0 l 1
 50 32 45 67 45 97 c 0xa0
EndSplineSet
Colour: ffffff
EndChar

StartChar: grave
Encoding: 96 96 222
Width: 535
VWidth: 0
Flags: HW
HStem: 1329 368
VStem: 122 247
LayerCount: 2
Fore
SplineSet
122 1659 m 1
 237 1697 l 1
 369 1364 l 1
 313 1329 l 1
 122 1659 l 1
EndSplineSet
Colour: ffffff
EndChar

StartChar: greater
Encoding: 62 62 223
Width: 727
VWidth: 0
Flags: HW
VStem: 59 616
LayerCount: 2
Fore
SplineSet
59 -13 m 1
 519 434 l 1
 79 900 l 1
 135 973 l 1
 755 472 l 1
 756 415 l 1
 122 -83 l 1
 59 -13 l 1
EndSplineSet
Colour: ffffff
EndChar

StartChar: greaterequal
Encoding: 8805 8805 224
Width: 729
VWidth: 0
Flags: HW
HStem: -267 103<61 654>
VStem: 44 649
LayerCount: 2
Fore
SplineSet
44 -267 m 1
 61 -164 l 1
 670 -157 l 1
 654 -261 l 1
 44 -267 l 1
77 -13 m 1
 458 454 l 1
 96 900 l 1
 153 973 l 1
 693 455 l 1
 694 428 l 1
 138 -83 l 1
 77 -13 l 1
EndSplineSet
Colour: ffffff
EndChar

StartChar: guillemotleft
Encoding: 171 171 225
Width: 643
VWidth: 0
Flags: HW
VStem: 23 560
LayerCount: 2
Fore
SplineSet
23 469 m 1
 292 820 l 1
 335 761 l 1
 171 461 l 1
 338 141 l 1
 286 77 l 1
 24 449 l 1
 23 469 l 1
270 469 m 1
 538 820 l 1
 583 761 l 1
 418 461 l 1
 586 141 l 1
 534 77 l 1
 271 449 l 1
 270 469 l 1
EndSplineSet
Colour: ffffff
EndChar

StartChar: guillemotright
Encoding: 187 187 226
Width: 645
VWidth: 0
Flags: HW
VStem: 61 562
LayerCount: 2
Fore
SplineSet
61 141 m 1
 228 461 l 1
 64 761 l 1
 108 820 l 1
 376 469 l 1
 374 449 l 1
 113 77 l 1
 61 141 l 1
308 141 m 1
 476 461 l 1
 311 761 l 1
 355 820 l 1
 623 469 l 1
 621 449 l 1
 360 77 l 1
 308 141 l 1
EndSplineSet
Colour: ffffff
EndChar

StartChar: guilsinglleft
Encoding: 8249 8249 227
Width: 396
VWidth: 0
Flags: HW
VStem: 23 312
LayerCount: 2
Fore
SplineSet
23 469 m 1
 292 820 l 1
 335 761 l 1
 171 461 l 1
 338 141 l 1
 286 77 l 1
 24 449 l 5
 23 469 l 1
EndSplineSet
Colour: ffffff
EndChar

StartChar: guilsinglright
Encoding: 8250 8250 228
Width: 397
VWidth: 0
Flags: HW
VStem: 61 315
LayerCount: 2
Fore
SplineSet
61 141 m 1
 228 461 l 1
 64 761 l 1
 108 820 l 1
 376 469 l 1
 374 449 l 1
 113 77 l 1
 61 141 l 1
EndSplineSet
Colour: ffffff
EndChar

StartChar: h
Encoding: 104 104 229
Width: 1029
VWidth: 0
Flags: HW
HStem: 0 79<21 59.8579 450.161 475 568 604.01 978.322 1005> 764 136<470.021 655.094>
VStem: 175 166<116 712.773 755.024 1117> 706 166<114 708.546>
LayerCount: 2
Fore
SplineSet
10 0 m 1
 21 79 l 1
 175 116 l 1
 175 1117 l 1
 15 1171 l 1
 27 1247 l 1
 316 1269 l 1
 341 1245 l 1
 341 850 l 1
 325 744 l 1
 335 744 l 1
 418 836 516 900 629 900 c 0
 767 900 872 842 872 599 c 2
 872 114 l 1
 1017 79 l 1
 1005 0 l 1
 556 0 l 1
 568 74 l 1
 703 114 l 1
 706 580 l 2
 706 722 613 764 534 764 c 0
 477 764 411 748 341 675 c 1
 341 116 l 1
 487 80 l 1
 475 0 l 1
 10 0 l 1
EndSplineSet
Colour: ffffff
EndChar

StartChar: hbar
Encoding: 295 295 230
Width: 1029
VWidth: 0
Flags: HW
HStem: 0 79<-2 36.8579 427.161 452 545 581.01 955.322 982> 764 136<447.021 632.094> 961 80<-19 647>
VStem: 152 166<116 712.773 755.024 1117> 683 166<114 708.546>
LayerCount: 2
Fore
SplineSet
-26 961 m 1
 -19 1041 l 1
 654 1041 l 1
 647 961 l 1
 -26 961 l 1
EndSplineSet
Refer: 229 104 N 1 0 0 1 -23 0 2
Colour: ffffff
EndChar

StartChar: uni05D4
Encoding: 1492 1492 231
Width: 844
VWidth: 0
Flags: HW
HStem: -10 21G<123.667 250 625.8 747> 709 157<197 636 702 751>
VStem: 619 102<15 590.446> 636 66<371.554 696>
LayerCount: 2
Fore
SplineSet
73 738 m 1xd0
 89 961 l 1
 162 971 l 1
 197 866 l 1
 752 866 l 1
 778 836 l 1
 751 709 l 1
 702 696 l 1xd0
 721 266 l 2
 726 149 734 84 747 6 c 1
 653 -10 l 1
 619 15 l 1xe0
 636 709 l 1
 99 709 l 1
 73 738 l 1xd0
118 8 m 1
 146 560 l 1
 213 568 l 1
 228 266 l 2
 233 177 240 91 250 0 c 1
 152 -16 l 1
 118 8 l 1
EndSplineSet
Colour: ffffff
EndChar

StartChar: uni05D7
Encoding: 1495 1495 232
Width: 873
VWidth: 0
Flags: HW
HStem: -10 21G<104.667 231 653.8 776> 709 157<247 664 730 779>
VStem: 99 111<8 345.59> 130 70<612.346 709 938.973 961> 647 102<15 590.446> 664 66<371.554 696>
LayerCount: 2
Fore
SplineSet
99 8 m 1xe0
 130 738 l 1
 139 961 l 1
 213 971 l 1
 247 866 l 1
 781 866 l 1
 806 836 l 1
 779 709 l 1
 730 696 l 1xd4
 749 266 l 2
 754 149 763 84 776 6 c 1
 681 -10 l 1
 647 15 l 1xc8
 664 709 l 1
 200 709 l 1xd4
 210 299 l 2
 212 210 223 62 231 0 c 1
 133 -16 l 1
 99 8 l 1xe0
EndSplineSet
Colour: ffffff
EndChar

StartChar: hungarumlaut
Encoding: 733 733 233
Width: 713
VWidth: 0
Flags: HW
HStem: 1358 258
VStem: 92 531
LayerCount: 2
Fore
SplineSet
92 1409 m 1
 347 1616 l 1
 421 1530 l 1
 121 1358 l 1
 92 1409 l 1
304 1409 m 1
 550 1609 l 1
 623 1526 l 1
 332 1358 l 1
 304 1409 l 1
EndSplineSet
Colour: ffffff
EndChar

StartChar: hyphen
Encoding: 45 45 234
Width: 581
VWidth: 0
Flags: HW
HStem: 398 100<92 399.847> 415 102<192.153 489>
VStem: 81 419
LayerCount: 2
Fore
SplineSet
81 398 m 1xa0
 92 498 l 1xa0
 500 517 l 1
 489 415 l 1x60
 81 398 l 1xa0
EndSplineSet
Colour: ffffff
EndChar

StartChar: i
Encoding: 105 105 235
Width: 539
VWidth: 0
Flags: HW
HStem: 0 79<49 107.506 466.007 517> 1070 236<184.925 368.696>
VStem: 156 241<1098.79 1279.41> 200 168<116 731>
LayerCount: 2
Fore
SplineSet
37 0 m 1xd0
 49 79 l 1
 200 116 l 1
 200 731 l 1
 49 786 l 1
 62 862 l 1
 343 885 l 1
 368 860 l 1
 368 116 l 1
 528 80 l 1
 517 0 l 1
 37 0 l 1xd0
156 1194 m 0xe0
 156 1258 213 1306 275 1306 c 0
 341 1306 397 1256 397 1192 c 0
 397 1125 341 1070 275 1070 c 0
 209 1070 156 1127 156 1194 c 0xe0
EndSplineSet
Colour: ffffff
EndChar

StartChar: iacute
Encoding: 237 237 236
Width: 539
VWidth: 0
Flags: HW
HStem: 0 79<49 107.506 466.007 517>
VStem: 200 168<116 731>
LayerCount: 2
Fore
SplineSet
37 0 m 1
 49 79 l 1
 200 116 l 1
 200 731 l 1
 49 786 l 1
 62 862 l 1
 343 885 l 1
 368 860 l 1
 368 116 l 1
 528 80 l 1
 517 0 l 1
 37 0 l 1
193 1041 m 1
 314 1367 l 1
 427 1327 l 1
 243 1010 l 1
 193 1041 l 1
EndSplineSet
Colour: ffffff
EndChar

StartChar: icaron
Encoding: 464 464 237
Width: 539
VWidth: 0
Flags: HW
HStem: 0 79<49 107.506 466.007 517>
VStem: 200 168<116 731>
DStem2: 142 1245 61 1183 0.737325 -0.675538<0 207.814> 300 1100 295 1032 0.692867 0.721065<0 186.893>
LayerCount: 2
Fore
SplineSet
37 0 m 1
 49 79 l 1
 200 116 l 1
 200 731 l 1
 49 786 l 1
 62 862 l 1
 343 885 l 1
 368 860 l 1
 368 116 l 1
 528 80 l 1
 517 0 l 1
 37 0 l 1
61 1183 m 1
 142 1245 l 1
 291 1100 l 1
 300 1100 l 1
 423 1241 l 1
 467 1211 l 1
 295 1032 l 1
 240 1019 l 1
 61 1183 l 1
EndSplineSet
Colour: ffffff
EndChar

StartChar: icircumflex
Encoding: 238 238 238
Width: 539
VWidth: 0
Flags: HW
HStem: 0 79<49 107.506 466.007 517>
VStem: 200 168<116 731>
LayerCount: 2
Fore
SplineSet
37 0 m 1
 49 79 l 1
 200 116 l 1
 200 731 l 1
 49 786 l 1
 62 862 l 1
 343 885 l 1
 368 860 l 1
 368 116 l 1
 528 80 l 1
 517 0 l 1
 37 0 l 1
76 1048 m 1
 243 1228 l 1
 298 1241 l 1
 476 1057 l 1
 427 1019 l 1
 263 1130 l 1
 253 1130 l 1
 113 1019 l 1
 76 1048 l 1
EndSplineSet
Colour: ffffff
EndChar

StartChar: idieresis
Encoding: 239 239 239
Width: 539
VWidth: 0
Flags: HW
HStem: 0 79<49 107.506 466.007 517> 1028 158<62.8618 214.116 330.055 484.537>
VStem: 54 169<1037.81 1176.55> 200 168<116 731> 321 173<1038.73 1175.66>
LayerCount: 2
Fore
SplineSet
37 0 m 1xd0
 49 79 l 1
 200 116 l 1
 200 731 l 1
 49 786 l 1
 62 862 l 1
 343 885 l 1
 368 860 l 1
 368 116 l 1
 528 80 l 1
 517 0 l 1
 37 0 l 1xd0
54 1109 m 0xe0
 54 1156 98 1186 138 1186 c 0
 182 1186 223 1155 223 1109 c 0
 223 1060 182 1028 138 1028 c 0
 95 1028 54 1060 54 1109 c 0xe0
321 1109 m 0xc8
 321 1156 366 1186 406 1186 c 0
 450 1186 494 1155 494 1109 c 0
 494 1060 450 1028 406 1028 c 0
 363 1028 321 1060 321 1109 c 0xc8
EndSplineSet
Colour: ffffff
EndChar

StartChar: imacron
Encoding: 299 299 241
Width: 539
VWidth: 0
Flags: HW
HStem: 0 79<49 107.506 466.007 517> 1041 99<61 488>
VStem: 200 168<116 731>
LayerCount: 2
Fore
SplineSet
37 0 m 1
 49 79 l 1
 200 116 l 1
 200 731 l 1
 49 786 l 1
 62 862 l 1
 343 885 l 1
 368 860 l 1
 368 116 l 1
 528 80 l 1
 517 0 l 1
 37 0 l 1
47 1041 m 1
 61 1140 l 1
 501 1140 l 1
 488 1041 l 1
 47 1041 l 1
EndSplineSet
Colour: ffffff
EndChar

StartChar: infinity
Encoding: 8734 8734 242
Width: 1361
VWidth: 0
Flags: HW
HStem: 203 159<231.918 512.629 917.786 1122.74> 721 152<230.563 453.54 864.426 1114.46>
VStem: 62 89<440.003 665.358> 1219 83<417.734 628.413>
LayerCount: 2
Fore
SplineSet
62 497 m 0
 62 718 209 873 384 873 c 0
 503 873 600 823 690 676 c 1
 700 679 l 1
 793 805 897 869 1023 869 c 0
 1185 869 1302 740 1302 552 c 0
 1302 364 1148 205 964 205 c 0
 820 205 728 316 675 406 c 1
 666 406 l 1
 576 262 465 203 357 203 c 0
 172 203 62 320 62 497 c 0
151 540 m 0
 151 438 266 362 380 362 c 0
 482 362 592 411 632 464 c 1
 533 606 445 721 343 721 c 0
 214 721 151 648 151 540 c 0
734 608 m 1
 821 454 942 362 1059 362 c 0
 1148 362 1219 439 1219 525 c 0
 1219 638 1099 709 983 709 c 0
 845 709 781 652 734 608 c 1
EndSplineSet
Colour: ffffff
EndChar

StartChar: integral
Encoding: 8747 8747 243
Width: 879
VWidth: 0
Flags: HW
HStem: -385 106<111.474 290.742> 1198 106<569.059 739.026>
VStem: 340 168<-132.702 1026.09>
LayerCount: 2
Fore
SplineSet
-55 -270 m 1
 -54 -221 1 -170 34 -157 c 1
 74 -206 147 -279 209 -279 c 0
 283 -279 336 -233 340 -61 c 1
 344 786 l 2
 346 1164 577 1304 719 1304 c 0
 824 1304 906 1269 906 1189 c 0
 906 1140 849 1090 816 1077 c 1
 776 1126 703 1198 641 1198 c 0
 567 1198 516 1153 510 981 c 1
 508 117 l 2
 507 -268 274 -385 132 -385 c 0
 27 -385 -55 -350 -55 -270 c 1
EndSplineSet
Colour: ffffff
EndChar

StartChar: iogonek
Encoding: 303 303 244
Width: 549
VWidth: 0
Flags: HW
HStem: -386 51<534.292 544.557> 0 79<49 107.506 484.961 517> 1016 237<179.925 362.356>
VStem: 151 242<1046.74 1225.55> 200 168<116 731> 298 147<-266.112 -92.909>
LayerCount: 2
Fore
SplineSet
37 0 m 1xe4
 49 79 l 1
 200 116 l 1
 200 731 l 1
 49 786 l 1
 62 862 l 1
 343 885 l 1
 368 860 l 1
 368 116 l 1xe8
 528 80 l 1
 517 0 l 1
 506 0 l 1
 449 -95 445 -130 445 -148 c 0
 445 -210 479 -282 569 -335 c 1
 535 -386 l 1
 391 -371 298 -294 298 -208 c 0
 298 -156 315 -104 432 0 c 1
 37 0 l 1xe4
151 1140 m 0xf0
 151 1204 208 1253 270 1253 c 0
 336 1253 393 1203 393 1139 c 0
 393 1072 336 1016 270 1016 c 0
 204 1016 151 1073 151 1140 c 0xf0
EndSplineSet
Colour: ffffff
EndChar

StartChar: j
Encoding: 106 106 245
Width: 463
VWidth: 0
Flags: HW
HStem: 1063 245<169.737 354.122>
VStem: 139 245<1094.6 1279.41> 187 169<-75.1243 731>
LayerCount: 2
Fore
SplineSet
-34 -295 m 1xa0
 74 -215 187 -98 187 172 c 2
 187 731 l 1
 37 786 l 1
 52 866 l 1
 331 887 l 1
 356 862 l 1
 356 151 l 2
 356 -131 212 -274 61 -359 c 2
 15 -383 l 1
 -34 -295 l 1xa0
139 1189 m 0xc0
 139 1256 196 1308 263 1308 c 0
 329 1308 384 1254 384 1188 c 0
 384 1121 329 1063 262 1063 c 0
 195 1063 139 1122 139 1189 c 0xc0
EndSplineSet
Colour: ffffff
EndChar

StartChar: k
Encoding: 107 107 246
Width: 972
VWidth: 0
Flags: HW
HStem: -19 21G<775 863> 0 79<21 72.011 446.989 488 931 960> 817 76<501 532.017 867.048 913>
VStem: 174 167<116 1108>
DStem2: 365 452 527 487 0.623227 0.782041<128.334 415.579> 527 487 365 432 0.58651 -0.809942<0 501.862>
LayerCount: 2
Fore
SplineSet
10 0 m 1x70
 21 79 l 1
 174 116 l 1
 174 1108 l 1
 16 1161 l 1
 28 1237 l 1
 316 1260 l 1
 341 1235 l 1
 341 116 l 1
 500 80 l 1
 488 0 l 1
 10 0 l 1x70
365 432 m 1
 365 452 l 1
 624 777 l 1
 491 817 l 1
 501 893 l 1
 927 893 l 1
 913 819 l 1
 764 777 l 1
 527 487 l 1
 606 386 l 2
 753 199 805 99 931 83 c 2
 971 77 l 1
 960 0 l 1x70
 945 -4 885 -19 841 -19 c 0xb0
 709 -19 634 66 470 287 c 1
 365 432 l 1
EndSplineSet
Colour: ffffff
EndChar

StartChar: uni05DB
Encoding: 1499 1499 247
Width: 873
VWidth: 0
Flags: HW
HStem: -13 21G<78.3793 497.714> 15 159<370.768 656.716>
VStem: 725 89<247.849 585.997>
DStem2: 211 884 107 723 0.994192 -0.107619<0 469.526>
LayerCount: 2
Fore
SplineSet
70 16 m 1
 104 147 l 1
 549 174 l 1
 636 177 725 247 725 411 c 0
 725 577 664 662 495 681 c 2
 107 723 l 1
 82 760 l 1
 97 979 l 1
 168 989 l 1
 211 884 l 1
 530 849 l 2
 724 827 814 699 814 462 c 0
 814 244 762 104 658 15 c 1
 97 -13 l 1
 70 16 l 1
EndSplineSet
Colour: ffffff
EndChar

StartChar: uni05DB.fina
Encoding: 65543 -1 248
Width: 776
VWidth: 0
Flags: HW
HStem: 709 157<132 572 637 686>
VStem: 560 113<-351 268.136> 572 65<412.864 696>
LayerCount: 2
Fore
SplineSet
8 738 m 1xa0
 24 961 l 1
 97 971 l 1
 132 866 l 1
 687 866 l 1
 713 836 l 1
 686 709 l 1
 637 696 l 1xa0
 673 -15 l 2
 676 -86 679 -282 689 -360 c 1
 595 -376 l 1
 560 -351 l 1xc0
 572 709 l 1
 34 709 l 1
 8 738 l 1xa0
EndSplineSet
Colour: ffffff
EndChar

StartChar: kcommaaccent
Encoding: 311 311 249
Width: 970
VWidth: 0
Flags: HW
HStem: -389 52<425.038 468.759> -19 21G<775 863> 0 79<21 72.011 446.989 488 931 960> 817 76<501 532.017 867.048 913>
VStem: 174 167<116 1108> 504 111<-311.121 -185.933>
DStem2: 365 452 527 487 0.623227 0.782041<128.334 415.579> 527 487 365 432 0.58651 -0.809942<0 501.862>
LayerCount: 2
Fore
SplineSet
10 0 m 1xbc
 21 79 l 1
 174 116 l 1
 174 1108 l 1
 16 1161 l 1
 28 1237 l 1
 316 1260 l 1
 341 1235 l 1
 341 1178 l 1
 341 116 l 1
 500 80 l 1
 488 0 l 1
 10 0 l 1xbc
365 432 m 1
 365 452 l 1
 624 777 l 1
 491 817 l 1
 501 893 l 1
 927 893 l 1
 913 819 l 1
 764 777 l 1
 527 487 l 1
 606 386 l 2
 753 199 805 99 931 83 c 2
 971 77 l 1
 960 0 l 1xbc
 945 -4 885 -19 841 -19 c 0xdc
 709 -19 634 66 470 287 c 1
 365 432 l 1
412 -337 m 1
 482 -319 504 -282 504 -246 c 0
 504 -213 448 -170 426 -168 c 1
 435 -125 466 -85 513 -85 c 0
 553 -85 615 -114 615 -203 c 0
 615 -257 578 -354 430 -389 c 1
 412 -337 l 1
EndSplineSet
Colour: ffffff
EndChar

StartChar: l
Encoding: 108 108 250
Width: 510
VWidth: 0
Flags: HW
HStem: 0 79<21 80.2813 438.394 488>
VStem: 174 167<116 1117>
LayerCount: 2
Fore
SplineSet
10 0 m 1
 21 79 l 1
 174 116 l 1
 174 1117 l 1
 16 1171 l 1
 28 1247 l 1
 316 1269 l 1
 341 1245 l 1
 341 116 l 1
 500 80 l 1
 488 0 l 1
 10 0 l 1
EndSplineSet
Colour: ffffff
EndChar

StartChar: lacute
Encoding: 314 314 251
Width: 510
VWidth: 0
Flags: HW
HStem: 0 79<21 80.2813 438.394 488>
VStem: 174 167<116 1117>
LayerCount: 2
Fore
SplineSet
10 0 m 1
 21 79 l 1
 174 116 l 1
 174 1117 l 1
 16 1171 l 1
 28 1247 l 1
 316 1269 l 1
 341 1245 l 1
 341 116 l 1
 500 80 l 1
 488 0 l 1
 10 0 l 1
160 1385 m 1
 283 1710 l 1
 395 1670 l 1
 211 1354 l 1
 160 1385 l 1
EndSplineSet
Colour: ffffff
EndChar

StartChar: uni05DC
Encoding: 1500 1500 252
Width: 796
VWidth: 0
Flags: HW
HStem: -16 21G<194 384.922> 712 158<159 648.269> 1138 156<141 217>
VStem: 66 177<1138 1283.68> 674 90<430.828 688.534>
LayerCount: 2
Fore
SplineSet
51 748 m 1
 66 1292 l 1
 217 1294 l 1
 243 1271 l 1
 236 1138 l 1
 141 1130 l 1
 159 870 l 1
 559 870 l 2
 733 870 764 804 764 615 c 0
 764 397 601 246 505 138 c 2
 367 -16 l 1
 194 3 l 1
 175 29 l 1
 299 117 l 2
 447 223 674 400 674 564 c 0
 674 686 637 712 497 712 c 2
 76 712 l 1
 51 748 l 1
EndSplineSet
Colour: ffffff
EndChar

StartChar: lcaron
Encoding: 318 318 253
Width: 634
VWidth: 0
Flags: HW
HStem: 0 79<21 80.2813 438.394 488> 750 69<393.221 455.523> 1100 181<425.707 533.781>
VStem: 174 167<116 1117> 556 138<913.132 1150.74>
LayerCount: 2
Fore
SplineSet
10 0 m 1
 21 79 l 1
 174 116 l 1
 174 1117 l 1
 16 1171 l 1
 28 1247 l 1
 316 1269 l 1
 341 1245 l 1
 341 116 l 1
 500 80 l 1
 488 0 l 1
 10 0 l 1
375 819 m 1
 506 853 556 928 556 992 c 0
 556 1048 511 1100 441 1100 c 0
 431 1100 421 1098 411 1097 c 1
 403 1118 396 1137 396 1160 c 0
 396 1240 469 1281 519 1281 c 0
 589 1281 694 1224 694 1073 c 0
 694 980 661 820 398 750 c 1
 375 819 l 1
EndSplineSet
Colour: ffffff
EndChar

StartChar: lcommaaccent
Encoding: 316 316 254
Width: 510
VWidth: 0
Flags: HW
HStem: -389 52<160.038 203.784> 0 79<21 79.5064 438.007 487>
VStem: 172 168<116 1117> 240 111<-310.444 -185.933>
LayerCount: 2
Fore
SplineSet
9 0 m 1xe0
 21 79 l 1
 172 116 l 1
 172 1117 l 1
 15 1171 l 1
 28 1247 l 1
 314 1269 l 1
 340 1245 l 1
 340 116 l 1
 500 80 l 1
 487 0 l 1
 9 0 l 1xe0
147 -337 m 1
 217 -319 240 -282 240 -246 c 0
 240 -213 182 -170 160 -168 c 1
 169 -125 202 -85 249 -85 c 0
 289 -85 351 -114 351 -203 c 0xd0
 351 -257 313 -354 165 -389 c 1
 147 -337 l 1
EndSplineSet
Colour: ffffff
EndChar

StartChar: lessequal
Encoding: 8804 8804 256
Width: 729
VWidth: 0
Flags: HW
HStem: -267 103<77 672>
VStem: 37 651
LayerCount: 2
Fore
SplineSet
37 428 m 1
 40 455 l 1
 578 973 l 1
 636 900 l 1
 274 454 l 1
 655 -13 l 1
 593 -83 l 1
 37 428 l 1
61 -267 m 1
 77 -164 l 1
 688 -157 l 1
 672 -261 l 1
 61 -267 l 1
EndSplineSet
Colour: ffffff
EndChar

StartChar: logicalnot
Encoding: 172 172 257
Width: 910
VWidth: 0
Flags: HW
HStem: 559 104<86 726>
VStem: 726 106<351 559>
LayerCount: 2
Fore
SplineSet
74 559 m 1
 86 663 l 1
 830 663 l 1
 832 351 l 1
 726 332 l 1
 726 559 l 1
 74 559 l 1
EndSplineSet
Colour: ffffff
EndChar

StartChar: lozenge
Encoding: 9674 9674 258
Width: 943
VWidth: 0
Flags: HW
HStem: 135 664
VStem: 148 648
LayerCount: 2
Fore
SplineSet
148 474 m 1
 472 799 l 1
 796 472 l 1
 474 135 l 1
 148 474 l 1
EndSplineSet
Colour: ffffff
EndChar

StartChar: lslash
Encoding: 322 322 259
Width: 519
VWidth: 0
Flags: HW
HStem: 0 79<3 61.8938 420.007 470>
VStem: 155 167<116 1117>
DStem2: 6 540 -13 411 0.779195 0.626781<0 487.497>
LayerCount: 2
Fore
SplineSet
-8 0 m 5
 3 79 l 1
 155 116 l 1
 155 1117 l 1
 -1 1171 l 1
 10 1247 l 1
 298 1269 l 1
 322 1245 l 1
 322 116 l 1
 482 80 l 1
 470 0 l 1
 -8 0 l 5
-13 411 m 1
 6 540 l 1
 461 906 l 1
 441 777 l 1
 -13 411 l 1
EndSplineSet
Colour: ffffff
EndChar

StartChar: m
Encoding: 109 109 260
Width: 1584
VWidth: 0
Flags: HW
HStem: 0 74<53 106.76 463.749 504 609 655.95 997.957 1041 1137 1181.8 1520.9 1555> 760 136<501.519 685.917 1043.01 1209.75> 770 75<53 87.9757>
VStem: 203 169<114 712.651> 740 163<114 702.783> 1262 168<116 706.189>
LayerCount: 2
Fore
SplineSet
43 0 m 1xdc
 53 74 l 1
 203 114 l 1
 203 719 l 1
 43 770 l 1
 53 845 l 1xbc
 357 887 l 1
 375 866 l 1
 357 740 l 1
 366 740 l 1
 430 819 540 896 666 896 c 0
 756 896 856 853 887 731 c 1
 899 731 l 1
 963 814 1068 888 1194 888 c 0
 1361 888 1430 783 1430 609 c 2
 1430 116 l 1
 1568 80 l 1
 1555 1 l 1
 1130 1 l 1
 1137 74 l 1
 1262 114 l 1
 1262 585 l 2
 1262 681 1202 760 1094 760 c 0
 1005 760 949 709 903 660 c 1
 903 114 l 1
 1051 79 l 1
 1041 0 l 1
 598 0 l 1
 609 74 l 1
 740 114 l 1
 740 585 l 2
 740 690 665 760 569 760 c 0
 495 760 422 730 372 673 c 1
 372 114 l 1
 515 79 l 1
 504 0 l 1
 43 0 l 1xdc
EndSplineSet
Colour: ffffff
EndChar

StartChar: macron
Encoding: 175 175 261
Width: 637
VWidth: 0
Flags: HW
HStem: 1379 100<105 534>
VStem: 92 455
LayerCount: 2
Fore
SplineSet
92 1379 m 1
 105 1479 l 1
 547 1479 l 1
 534 1379 l 1
 92 1379 l 1
EndSplineSet
Colour: ffffff
EndChar

StartChar: uni05DE
Encoding: 1502 1502 262
Width: 885
VWidth: 0
Flags: HW
HStem: -10 160<359 670.976> 6 158<389.024 713.404> 705 168<427.508 602.518>
VStem: 95 119<8 389.708> 724 90<171.894 568.585>
LayerCount: 2
Fore
SplineSet
88 732 m 1x78
 95 887 l 1
 121 907 l 1
 225 845 279 739 300 692 c 1
 300 692 418 873 534 873 c 0
 731 873 809 657 814 455 c 1
 814 274 745 71 708 6 c 1x78
 352 -10 l 1
 326 11 l 1
 359 150 l 1xb8
 704 164 l 1
 715 190 721 254 724 314 c 2
 729 415 l 1
 723 550 623 705 472 705 c 0
 267 705 214 452 214 247 c 0
 214 151 215 78 225 0 c 1
 131 -16 l 1
 95 8 l 1
 98 234 124 448 235 611 c 1
 88 732 l 1x78
EndSplineSet
Colour: ffffff
EndChar

StartChar: uni05DE.fina
Encoding: 65544 -1 263
Width: 821
VWidth: 0
Flags: HW
HStem: 0 160<218.459 705.351> 709 157<247.509 705.784>
VStem: 109 93<163.514 625.822> 715 79<166.587 705.828>
LayerCount: 2
Fore
SplineSet
106 723 m 1
 116 961 l 1
 189 971 l 1
 223 866 l 1
 687 866 l 2
 757 866 794 821 794 673 c 2
 794 189 l 2
 794 23 728 0 679 0 c 2
 147 0 l 1
 121 29 l 1
 121 29 109 413 109 491 c 0
 109 536 131 632 218 692 c 1
 218 705 l 1
 124 705 l 1
 106 723 l 1
202 521 m 0
 202 365 210 231 226 160 c 1
 696 160 l 1
 707 184 715 245 715 294 c 2
 715 305 l 1
 709 632 l 2
 707 695 689 709 653 709 c 2
 284 709 l 1
 218 644 202 579 202 521 c 0
EndSplineSet
Colour: ffffff
EndChar

StartChar: minus
Encoding: 8722 8722 264
Width: 821
VWidth: 0
Flags: HW
HStem: 409 104<116 709>
VStem: 99 627
LayerCount: 2
Fore
SplineSet
99 409 m 1
 116 513 l 1
 726 520 l 1
 709 415 l 1
 99 409 l 1
EndSplineSet
Colour: ffffff
EndChar

StartChar: mu
Encoding: 956 956 265
Width: 1008
VWidth: 0
Flags: HW
HStem: -24 129<380.271 547.823> -6 83<948 985> 773 90<523 568.296>
VStem: 138 133<-362 -147.474> 165 169<154.101 736> 675 164<109.471 129 154.561 731>
LayerCount: 2
Fore
SplineSet
28 790 m 1xac
 40 870 l 1
 309 892 l 1
 334 866 l 1
 334 314 l 2
 334 163 397 105 487 105 c 0xac
 577 105 625 148 675 188 c 1
 675 731 l 1
 513 773 l 1
 523 863 l 1
 818 892 l 1
 839 866 l 1
 839 213 l 2
 839 108 882 102 948 87 c 2
 993 77 l 1
 985 -6 l 1x6c
 923 -21 891 -24 832 -24 c 0
 732 -24 686 38 686 121 c 2
 686 129 l 1
 675 129 l 1
 585 29 500 -24 387 -24 c 0
 325 -24 277 -3 246 37 c 1
 239 37 l 1
 242 19 249 -22 253 -86 c 2
 271 -388 l 1
 138 -362 l 1xb4
 139 -335 165 202 165 494 c 2
 165 736 l 1
 28 790 l 1xac
EndSplineSet
Colour: ffffff
EndChar

StartChar: multiply
Encoding: 215 215 266
Width: 604
VWidth: 0
Flags: HW
HStem: 231 454
VStem: 67 467
DStem2: 151 685 67 619 0.706194 -0.708019<0 208.734 321.026 535.417> 67 310 134 228 0.724909 0.688844<0 217.79 327.396 543.808>
LayerCount: 2
Fore
SplineSet
67 310 m 1
 223 462 l 1
 67 619 l 1
 151 685 l 1
 304 532 l 1
 469 692 l 1
 534 608 l 1
 378 458 l 1
 537 297 l 1
 454 231 l 1
 298 388 l 1
 134 228 l 1
 67 310 l 1
EndSplineSet
Colour: ffffff
EndChar

StartChar: n
Encoding: 110 110 267
Width: 1060
VWidth: 0
Flags: HW
HStem: 0 73<47 99.7984 462.901 501 599 647.253 997.649 1038> 761 138<499.21 685.86>
VStem: 198 168<114 714.047> 737 167<114 708.215>
LayerCount: 2
Fore
SplineSet
37 0 m 1
 47 73 l 1
 198 114 l 1
 198 721 l 1
 44 773 l 1
 54 849 l 1
 352 888 l 1
 369 869 l 1
 352 741 l 1
 362 741 l 1
 429 821 537 899 663 899 c 0
 820 899 904 794 904 616 c 2
 904 114 l 1
 1048 79 l 1
 1038 0 l 1
 589 0 l 1
 599 73 l 1
 737 114 l 1
 737 577 l 2
 737 706 662 761 563 761 c 0
 490 761 416 731 366 675 c 1
 366 114 l 1
 515 79 l 1
 501 0 l 1
 37 0 l 1
EndSplineSet
Colour: ffffff
EndChar

StartChar: nacute
Encoding: 324 324 268
Width: 1060
VWidth: 0
Flags: HW
HStem: 0 73<47 99.7984 462.901 501 599 647.253 997.649 1038> 761 138<499.21 685.86>
VStem: 198 168<114 714.047> 737 167<114 708.215>
LayerCount: 2
Fore
SplineSet
37 0 m 1
 47 73 l 1
 198 114 l 1
 198 721 l 1
 44 773 l 1
 54 849 l 1
 352 888 l 1
 369 869 l 1
 352 741 l 1
 362 741 l 1
 429 821 537 899 663 899 c 0
 820 899 904 794 904 616 c 2
 904 114 l 1
 1048 79 l 1
 1038 0 l 1
 589 0 l 1
 599 73 l 1
 737 114 l 1
 737 577 l 2
 737 706 662 761 563 761 c 0
 490 761 416 731 366 675 c 1
 366 114 l 1
 515 79 l 1
 501 0 l 1
 37 0 l 1
455 1017 m 1
 578 1342 l 1
 690 1302 l 1
 507 985 l 1
 455 1017 l 1
EndSplineSet
Colour: ffffff
EndChar

StartChar: ncaron
Encoding: 328 328 270
Width: 1060
VWidth: 0
Flags: HW
HStem: 0 73<47 99.7984 462.901 501 599 647.253 997.649 1038> 761 138<499.21 685.86>
VStem: 198 168<114 714.047> 737 167<114 708.215>
DStem2: 405 1220 325 1159 0.733231 -0.67998<0 205.755> 563 1077 559 1007 0.690764 0.72308<0 186.195>
LayerCount: 2
Fore
SplineSet
37 0 m 1
 47 73 l 1
 198 114 l 1
 198 721 l 1
 44 773 l 1
 54 849 l 1
 352 888 l 1
 369 869 l 1
 352 741 l 1
 362 741 l 1
 429 821 537 899 663 899 c 0
 820 899 904 794 904 616 c 2
 904 114 l 1
 1048 79 l 1
 1038 0 l 1
 589 0 l 1
 599 73 l 1
 737 114 l 1
 737 577 l 2
 737 706 662 761 563 761 c 0
 490 761 416 731 366 675 c 1
 366 114 l 1
 515 79 l 1
 501 0 l 1
 37 0 l 1
325 1159 m 1
 405 1220 l 1
 553 1077 l 1
 563 1077 l 1
 686 1217 l 1
 730 1186 l 1
 559 1007 l 1
 504 993 l 1
 325 1159 l 1
EndSplineSet
Colour: ffffff
EndChar

StartChar: ncommaaccent
Encoding: 326 326 271
Width: 1060
VWidth: 0
Flags: HW
HStem: -389 52<440.313 483.809> 0 73<47 99.7984 462.901 501 599 647.253 997.649 1038> 761 138<499.21 685.86>
VStem: 198 168<114 714.047> 520 112<-310.444 -185.933> 737 167<114 708.215>
LayerCount: 2
Fore
SplineSet
37 0 m 1
 47 73 l 1
 198 114 l 1
 198 721 l 1
 44 773 l 1
 54 849 l 1
 352 888 l 1
 369 869 l 1
 352 741 l 1
 362 741 l 1
 429 821 537 899 663 899 c 0
 820 899 904 794 904 616 c 2
 904 114 l 1
 1048 79 l 1
 1038 0 l 1
 589 0 l 1
 599 73 l 1
 737 114 l 1
 737 577 l 2
 737 706 662 761 563 761 c 0
 490 761 416 731 366 675 c 1
 366 114 l 1
 515 79 l 1
 501 0 l 1
 37 0 l 1
428 -337 m 1
 498 -319 520 -282 520 -246 c 0
 520 -213 463 -170 441 -168 c 1
 450 -125 483 -85 530 -85 c 0
 570 -85 632 -114 632 -203 c 0
 632 -257 593 -354 445 -389 c 1
 428 -337 l 1
EndSplineSet
Colour: ffffff
EndChar

StartChar: nine
Encoding: 57 57 272
Width: 872
VWidth: 0
Flags: HW
HStem: -27 74<193.544 266.87> 466 109<313.987 505.719> 1130 81<306.572 514.507>
VStem: 40 200<656.316 988.595> 609 204<486.236 991.752>
LayerCount: 2
Fore
SplineSet
40 802 m 0
 40 1046 241 1211 432 1211 c 0
 695 1211 813 998 813 764 c 0
 813 365 574 39 198 -27 c 1
 175 47 l 1
 503 144 578 331 597 575 c 1
 584 575 l 1
 518 502 432 466 340 466 c 0
 149 466 40 585 40 802 c 0
240 845 m 0
 240 710 287 575 429 575 c 0
 499 575 569 612 600 662 c 1
 608 708 609 766 609 806 c 0
 609 970 542 1130 426 1130 c 0
 278 1130 240 1023 240 845 c 0
EndSplineSet
Substitution2: "'sups' Superscript lookup 0 subtable" nine.superior
Colour: ffffff
EndChar

StartChar: nine.osf
Encoding: 65545 -1 273
Width: 778
VWidth: 0
Flags: HW
HStem: -282 74<143.544 189.759> 230 108<269.506 464.214> 891 81<275.987 462.087>
VStem: 25 183<405.683 762.25> 557 187<355.342 769.175>
LayerCount: 2
Fore
SplineSet
25 581 m 0
 25 800 199 972 390 972 c 0
 653 972 744 755 744 521 c 0
 744 186 479 -177 148 -282 c 1
 125 -208 l 1
 417 -84 504 140 544 338 c 1
 532 338 l 1
 483 271 401 230 314 230 c 0
 120 230 25 356 25 581 c 0
208 607 m 0
 208 424 262 338 387 338 c 0
 457 338 519 374 550 424 c 1
 558 470 557 525 557 565 c 0
 557 729 491 891 375 891 c 0
 275 891 208 813 208 607 c 0
EndSplineSet
Colour: ffffff
EndChar

StartChar: notequal
Encoding: 8800 8800 274
Width: 755
VWidth: 0
Flags: HW
HStem: 314 105<29 254 279 362 375 729> 554 105<32 435 443 546 565 731>
LayerCount: 2
Fore
SplineSet
17 314 m 1
 29 419 l 1
 740 419 l 1
 729 314 l 1
 17 314 l 1
20 554 m 1
 32 659 l 1
 742 659 l 1
 731 554 l 1
 20 554 l 1
37 53 m 1
 254 369 l 1
 279 393 l 1
 435 612 l 1
 443 641 l 1
 600 868 l 1
 722 871 l 1
 565 641 l 1
 546 612 l 1
 375 382 l 1
 362 353 l 1
 159 58 l 1
 37 53 l 1
EndSplineSet
Colour: ffffff
EndChar

StartChar: ntilde
Encoding: 241 241 275
Width: 1060
VWidth: 0
Flags: HW
HStem: 0 73<47 99.7984 462.901 501 599 647.253 997.649 1038> 761 138<499.21 685.86> 1023 104<553.914 717.008> 1054 104<348.677 509.042>
VStem: 198 168<114 714.047> 737 167<114 708.215>
DStem2: 438 1157 402 1054 0.99115 -0.132743<-13.8216 215.832>
LayerCount: 2
Fore
SplineSet
37 0 m 1xcc
 47 73 l 1
 198 114 l 1
 198 721 l 1
 44 773 l 1
 54 849 l 1
 352 888 l 1
 369 869 l 1
 352 741 l 1
 362 741 l 1
 429 821 537 899 663 899 c 0
 820 899 904 794 904 616 c 2
 904 114 l 1
 1048 79 l 1
 1038 0 l 1
 589 0 l 1
 599 73 l 1
 737 114 l 1
 737 577 l 2
 737 706 662 761 563 761 c 0
 490 761 416 731 366 675 c 1
 366 114 l 1
 515 79 l 1
 501 0 l 1
 37 0 l 1xcc
302 1015 m 1
 302 1015 335 1158 424 1158 c 0xdc
 428 1158 434 1158 438 1157 c 2
 660 1127 l 1
 664 1127 l 2
 689 1127 721 1169 721 1169 c 1
 768 1167 l 1
 768 1167 730 1023 638 1023 c 0xec
 634 1023 630 1023 626 1024 c 2
 402 1054 l 1
 400 1054 l 2xdc
 372 1054 341 1007 341 1007 c 1
 302 1015 l 1
EndSplineSet
Colour: ffffff
EndChar

StartChar: numbersign
Encoding: 35 35 276
Width: 913
VWidth: 0
Flags: HW
HStem: -26 21G<185.013 299 489.996 604> 326 125<11 886> 711 125<83 961>
DStem2: 182 -26 299 -19 0.147766 0.989022<24.2117 1188.26> 487 -26 604 -19 0.14871 0.988881<24.3213 1188.11>
LayerCount: 2
Back
SplineSet
137.348 476.138 m 5
 158.713 559.563 l 5
 360.154 559.563 l 5
 410.008 866.813 l 5
 209.582 866.813 l 5
 226.877 953.292 l 5
 421.199 953.292 l 5
 462.912 1194.41 l 5
 538.197 1207.64 l 5
 497.502 953.292 l 5
 809.841 953.292 l 5
 848.501 1194.41 l 5
 921.752 1204.59 l 5
 882.075 953.292 l 5
 1095.73 953.292 l 5
 1076.4 866.813 l 5
 873.935 866.813 l 5
 825.101 559.563 l 5
 1023.49 559.563 l 5
 1007.21 476.138 l 5
 810.857 476.138 l 5
 777.283 223.824 l 5
 695.894 214.669 l 5
 737.606 476.138 l 5
 428.32 476.138 l 5
 389.659 223.824 l 5
 307.25 214.669 l 5
 348.963 476.138 l 5
 137.348 476.138 l 5
439.512 559.563 m 5
 748.796 559.563 l 5
 799.666 866.813 l 5
 488.346 866.813 l 5
 439.512 559.563 l 5
EndSplineSet
Fore
SplineSet
182 -26 m 9
 359 1149 l 17
 475 1159 l 9
 299 -19 l 17
 182 -26 l 9
49 711 m 17
 83 836 l 9
 992 836 l 17
 961 711 l 9
 49 711 l 17
-22 326 m 1
 11 451 l 9
 917 451 l 17
 886 326 l 1
 -22 326 l 1
487 -26 m 9
 663 1149 l 17
 781 1158 l 9
 604 -19 l 17
 487 -26 l 9
EndSplineSet
Colour: ffffff
EndChar

StartChar: uni05E0
Encoding: 1504 1504 277
Width: 450
VWidth: 0
Flags: HW
LayerCount: 2
Fore
SplineSet
89 160 m 1
 184 160 l 2
 218 160 255 182 255 232 c 2
 255 394 l 2
 255 428 257 447 262 479 c 1
 275 600 l 1
 275 608 l 2
 275 655 234 680 197 689 c 1
 109 713 l 1
 89 737 l 1
 109 935 l 1
 166 940 l 1
 197 858 l 1
 263 837 l 2
 311 822 344 798 344 689 c 0
 344 679 344 669 343 658 c 2
 334 471 l 2
 333 462 333 453 333 444 c 0
 333 331 366 208 366 130 c 0
 366 73 365 47 337 0 c 1
 83 0 l 1
EndSplineSet
Colour: ffffff
EndChar

StartChar: o
Encoding: 111 111 278
Width: 934
VWidth: 0
Flags: HW
HStem: -27 97<367.686 609.797> 798 105<324.3 564.897>
VStem: 52 178<242.286 641.227> 704 178<226.286 619.183>
LayerCount: 2
Fore
SplineSet
52 426 m 4
 52 730 264 903 487 903 c 4
 733 903 882 716 882 441 c 4
 882 162 696 -27 463 -27 c 4
 199 -27 52 169 52 426 c 4
230 497 m 4
 230 291 300 70 497 70 c 4
 638 70 704 218 704 359 c 4
 704 557 635 798 445 798 c 4
 294 798 230 654 230 497 c 4
EndSplineSet
Colour: ffffff
EndChar

StartChar: oacute
Encoding: 243 243 279
Width: 934
VWidth: 0
Flags: HW
HStem: -27 97<367.686 609.797> 798 105<324.3 564.897>
VStem: 52 178<242.286 641.227> 704 178<226.286 619.183>
LayerCount: 2
Fore
SplineSet
52 426 m 0
 52 730 264 903 487 903 c 0
 733 903 882 716 882 441 c 0
 882 162 696 -27 463 -27 c 0
 199 -27 52 169 52 426 c 0
230 497 m 0
 230 291 300 70 497 70 c 0
 638 70 704 218 704 359 c 0
 704 557 635 798 445 798 c 0
 294 798 230 654 230 497 c 0
389 1017 m 1
 512 1342 l 1
 623 1302 l 1
 440 985 l 1
 389 1017 l 1
EndSplineSet
Colour: ffffff
EndChar

StartChar: ocaron
Encoding: 466 466 280
Width: 934
VWidth: 0
Flags: HW
HStem: -27 97<367.686 609.797> 798 105<324.3 564.897>
VStem: 52 178<242.286 641.227> 704 178<226.286 619.183>
DStem2: 338 1220 257 1159 0.733231 -0.67998<0 206.489> 497 1077 492 1007 0.690764 0.72308<0 186.195>
LayerCount: 2
Fore
SplineSet
52 426 m 0
 52 730 264 903 487 903 c 0
 733 903 882 716 882 441 c 0
 882 162 696 -27 463 -27 c 0
 199 -27 52 169 52 426 c 0
230 497 m 0
 230 291 300 70 497 70 c 0
 638 70 704 218 704 359 c 0
 704 557 635 798 445 798 c 0
 294 798 230 654 230 497 c 0
257 1159 m 1
 338 1220 l 1
 487 1077 l 1
 497 1077 l 1
 620 1217 l 1
 663 1186 l 1
 492 1007 l 1
 436 993 l 1
 257 1159 l 1
EndSplineSet
Colour: ffffff
EndChar

StartChar: ocircumflex
Encoding: 244 244 281
Width: 934
VWidth: 0
Flags: HW
HStem: -27 97<367.686 609.797> 798 105<324.3 564.897>
VStem: 52 178<242.286 641.227> 704 178<226.286 619.183>
LayerCount: 2
Fore
SplineSet
52 426 m 0
 52 730 264 903 487 903 c 0
 733 903 882 716 882 441 c 0
 882 162 696 -27 463 -27 c 0
 199 -27 52 169 52 426 c 0
230 497 m 0
 230 291 300 70 497 70 c 0
 638 70 704 218 704 359 c 0
 704 557 635 798 445 798 c 0
 294 798 230 654 230 497 c 0
271 1024 m 1
 440 1203 l 1
 495 1217 l 1
 673 1032 l 1
 623 995 l 1
 460 1104 l 1
 449 1104 l 1
 310 993 l 1
 271 1024 l 1
EndSplineSet
Colour: ffffff
EndChar

StartChar: odieresis
Encoding: 246 246 282
Width: 934
VWidth: 0
Flags: HW
HStem: -27 97<367.686 609.797> 798 105<324.3 564.897> 1004 159<259.669 410.923 526.862 680.537>
VStem: 52 178<242.286 641.227> 251 169<1013.55 1152.35> 518 172<1014.46 1152.11> 704 178<226.286 619.183>
LayerCount: 2
Fore
SplineSet
52 426 m 0
 52 730 264 903 487 903 c 0
 733 903 882 716 882 441 c 0
 882 162 696 -27 463 -27 c 0
 199 -27 52 169 52 426 c 0
230 497 m 0
 230 291 300 70 497 70 c 0
 638 70 704 218 704 359 c 0
 704 557 635 798 445 798 c 0
 294 798 230 654 230 497 c 0
251 1084 m 0
 251 1131 294 1163 334 1163 c 0
 378 1163 420 1130 420 1084 c 0
 420 1035 378 1004 334 1004 c 0
 291 1004 251 1035 251 1084 c 0
518 1084 m 0
 518 1131 562 1163 602 1163 c 0
 646 1163 690 1130 690 1084 c 0
 690 1035 646 1004 602 1004 c 0
 559 1004 518 1035 518 1084 c 0
EndSplineSet
Colour: ffffff
EndChar

StartChar: oe
Encoding: 339 339 283
Width: 1407
VWidth: 0
Flags: HW
HStem: -30 123<977.147 1237.32> -28 104<360.889 571.038> 801 99<307.703 533.721 920.568 1120.6>
VStem: 54 179<247.468 652.966> 657 179<255.297 444.454> 1158 177<548.992 763.979>
LayerCount: 2
Fore
SplineSet
54 426 m 0x7c
 54 730 242 900 465 900 c 0
 589 900 721 819 755 736 c 1
 817 819 930 899 1068 899 c 0
 1213 899 1335 792 1335 581 c 0
 1335 550 1326 485 1318 451 c 1
 836 445 l 1
 836 281 933 93 1114 93 c 0
 1184 93 1234 101 1338 157 c 1
 1363 104 l 1
 1284 21 1164 -30 1032 -30 c 0xbc
 901 -30 808 39 738 131 c 1
 649 18 562 -28 441 -28 c 0
 177 -28 54 169 54 426 c 0x7c
233 497 m 0
 233 291 311 76 475 76 c 0x7c
 583 76 657 218 657 359 c 0
 657 557 595 801 424 801 c 0
 273 801 233 654 233 497 c 0
837 527 m 5
 1151 549 l 1
 1155 565 1158 599 1158 615 c 0
 1158 734 1115 801 1019 801 c 0
 939 801 847 721 837 527 c 5
EndSplineSet
Colour: ffffff
EndChar

StartChar: ogonek
Encoding: 731 731 284
Width: 455
VWidth: 0
Flags: HW
HStem: -386 51<330.239 340.557>
VStem: 92 148<-266.112 -92.6776>
LayerCount: 2
Fore
SplineSet
92 -208 m 0
 92 -155 110 -102 231 3 c 1
 302 3 l 1
 221 -161 221 -242 365 -335 c 1
 331 -386 l 1
 187 -371 92 -294 92 -208 c 0
EndSplineSet
Colour: ffffff
EndChar

StartChar: ograve
Encoding: 242 242 285
Width: 934
VWidth: 0
Flags: HW
HStem: -27 97<367.686 609.797> 798 105<324.3 564.897>
VStem: 52 178<242.286 641.227> 704 178<226.286 619.183>
LayerCount: 2
Fore
SplineSet
52 426 m 0
 52 730 264 903 487 903 c 0
 733 903 882 716 882 441 c 0
 882 162 696 -27 463 -27 c 0
 199 -27 52 169 52 426 c 0
230 497 m 0
 230 291 300 70 497 70 c 0
 638 70 704 218 704 359 c 0
 704 557 635 798 445 798 c 0
 294 798 230 654 230 497 c 0
314 1296 m 1
 430 1334 l 1
 562 1000 l 1
 504 965 l 1
 314 1296 l 1
EndSplineSet
Colour: ffffff
EndChar

StartChar: ohungarumlaut
Encoding: 337 337 286
Width: 934
VWidth: 0
Flags: HW
HStem: -27 97<367.686 609.797> 798 105<324.3 564.897>
VStem: 52 178<242.286 641.227> 704 178<226.286 619.183>
LayerCount: 2
Fore
SplineSet
52 426 m 0
 52 730 264 903 487 903 c 0
 733 903 882 716 882 441 c 0
 882 162 696 -27 463 -27 c 0
 199 -27 52 169 52 426 c 0
230 497 m 0
 230 291 300 70 497 70 c 0
 638 70 704 218 704 359 c 0
 704 557 635 798 445 798 c 0
 294 798 230 654 230 497 c 0
294 1045 m 1
 547 1253 l 1
 621 1167 l 1
 321 995 l 1
 294 1045 l 1
504 1045 m 1
 751 1245 l 1
 823 1163 l 1
 534 995 l 1
 504 1045 l 1
EndSplineSet
Colour: ffffff
EndChar

StartChar: omacron
Encoding: 333 333 287
Width: 934
VWidth: 0
Flags: HW
HStem: -27 97<367.686 609.797> 798 105<324.3 564.897> 1015 101<257 685>
VStem: 52 178<242.286 641.227> 704 178<226.286 619.183>
LayerCount: 2
Fore
SplineSet
52 426 m 0
 52 730 264 903 487 903 c 0
 733 903 882 716 882 441 c 0
 882 162 696 -27 463 -27 c 0
 199 -27 52 169 52 426 c 0
230 497 m 0
 230 291 300 70 497 70 c 0
 638 70 704 218 704 359 c 0
 704 557 635 798 445 798 c 0
 294 798 230 654 230 497 c 0
244 1015 m 1
 257 1116 l 1
 698 1116 l 1
 685 1015 l 1
 244 1015 l 1
EndSplineSet
Colour: ffffff
EndChar

StartChar: one
Encoding: 49 49 288
Width: 777
VWidth: 0
Flags: HW
HStem: 0 74<47 127.526 683.099 767> 1031 77<67 145.383>
VStem: 311 204<121 1031>
LayerCount: 2
Fore
SplineSet
40 0 m 5
 47 74 l 5
 311 121 l 5
 311 1031 l 5
 61 1031 l 5
 67 1108 l 5
 488 1185 l 5
 515 1185 l 5
 515 114 l 5
 777 83 l 5
 767 0 l 5
 40 0 l 5
EndSplineSet
Substitution2: "'sups' Superscript lookup 0 subtable" one.superior
Colour: ffffff
EndChar

StartChar: one.osf
Encoding: 65546 -1 289
Width: 588
VWidth: 0
Flags: HW
HStem: 0 74<44 100.124 517.262 575> 805 77<64 122.894>
VStem: 228 168<121 802>
LayerCount: 2
Fore
SplineSet
35 0 m 1
 44 74 l 1
 228 121 l 1
 228 802 l 1
 55 805 l 1
 64 882 l 1
 368 956 l 1
 396 956 l 1
 396 114 l 1
 585 80 l 1
 575 0 l 1
 35 0 l 1
EndSplineSet
Colour: ffffff
EndChar

StartChar: onehalf
Encoding: 189 189 290
Width: 1736
VWidth: 0
Flags: HW
LayerCount: 2
Fore
SplineSet
792 109 m 1
 947 232 l 2
 1051 317 1130 401 1130 476 c 0
 1130 548 1115 624 1021 624 c 0
 972 624 932 598 917 566 c 1
 895 437 l 1
 827 442 l 1
 812 612 l 1
 853 689 984 728 1085 728 c 0
 1238 728 1326 660 1326 542 c 0
 1326 389 1178 274 1015 167 c 2
 948 123 l 1
 1218 123 l 1
 1297 276 l 1
 1354 255 l 1
 1335 2 l 5
 784 2 l 1
 792 109 l 1
-52 531 m 1
 -48 605 l 1
 105 630 l 1
 105 1122 l 1
 -40 1122 l 1
 -36 1199 l 1
 266 1245 l 1
 285 1245 l 1
 285 627 l 1
 437 614 l 1
 431 531 l 1
 -52 531 l 1
139 -10 m 1
 546 588 l 1
 937 1210 l 1
 1113 1207 l 1
 1111 1178 l 1
 710 591 l 1
 339 -32 l 1
 139 -10 l 1
EndSplineSet
Colour: ffffff
EndChar

StartChar: onequarter
Encoding: 188 188 291
Width: 1736
VWidth: 0
Flags: HW
LayerCount: 2
Fore
SplineSet
693 270 m 1
 1103 737 l 1
 1160 726 l 1
 1155 655 1151 539 1151 430 c 2
 1151 272 l 1
 1299 272 l 1
 1290 175 l 1
 1151 175 l 1
 1151 83 l 1
 1272 65 l 1
 1266 0 l 1
 852 0 l 1
 856 58 l 1
 993 85 l 1
 993 178 l 1
 706 178 l 1
 693 270 l 1
800 272 m 1
 990 272 l 1
 990 508 l 1
 800 272 l 1
-52 531 m 1
 -48 605 l 1
 105 630 l 1
 105 1122 l 1
 -40 1122 l 1
 -36 1199 l 1
 266 1245 l 1
 285 1245 l 1
 285 627 l 1
 437 614 l 1
 431 531 l 1
 -52 531 l 1
159 -10 m 1
 566 588 l 1
 957 1210 l 1
 1133 1207 l 1
 1131 1178 l 1
 730 591 l 1
 359 -32 l 1
 159 -10 l 1
EndSplineSet
Colour: ffffff
EndChar

StartChar: one.superior
Encoding: 185 185 292
Width: 512
VWidth: 0
Flags: HW
LayerCount: 2
Fore
SplineSet
23 531 m 5
 27 605 l 5
 180 630 l 5
 180 1122 l 5
 35 1122 l 5
 39 1199 l 5
 341 1245 l 5
 360 1245 l 5
 360 627 l 5
 512 614 l 5
 506 531 l 5
 23 531 l 5
EndSplineSet
Colour: ffffff
EndChar

StartChar: ordfeminine
Encoding: 170 170 293
Width: 830
VWidth: 0
Flags: HW
HStem: 565 58<93 426> 684 43<182.577 256.268 402 415> 855 28<231.422 291> 1014 41<189.976 269.697>
VStem: 107 70<728.066 827.726> 123 55<945.651 1009.89> 291 65<734.282 855 876.397 1003.16>
LayerCount: 2
Back
SplineSet
128.2 378.4 m 0xba
 128.2 496 236.2 613.6 497 632 c 1
 497 676 l 2
 497 784 465.8 889.6 355.4 889.6 c 0
 278.6 889.6 277.8 848.8 266.6 717.6 c 1
 224.2 717.6 155.4 720.8 155.4 800 c 0
 155.4 887.2 318.6 964 429 964 c 0
 571.4 964 626.6 887.2 626.6 718.4 c 2
 626.6 428 l 2
 626.6 354.4 641.8 332.8 716.2 320.8 c 2
 756.2 313.6 l 1
 745.8 244.8 l 1x76
 708.2 240 684.2 229.6 637 229.6 c 0
 544.2 229.6 513 289.6 513 336.8 c 2
 513 348.8 l 1
 504.2 348.8 l 1
 482.6 306.4 416.2 224.8 285 224.8 c 0
 201 224.8 128.2 280.8 128.2 378.4 c 0xba
268.2 416 m 0xba
 268.2 376 298.6 323.2 357.8 323.2 c 0
 413.8 323.2 470.6 364.8 497 394.4 c 1
 497 586.4 l 1
 322.6 552 268.2 492.8 268.2 416 c 0xba
EndSplineSet
Fore
SplineSet
125 668 m 0xba
 125 786 212 932 496 932 c 1
 496 966 l 2
 496 1074 488 1170 386 1170 c 0
 316 1170 304 1114 292 978 c 1
 212 970 154 1014 154 1100 c 0
 154 1187 327 1254 444 1254 c 0
 595 1254 654 1177 654 1008 c 2
 654 748 l 2
 654 674 674 648 749 635 c 2
 792 628 l 1
 781 566 l 1x76
 740 529 715 520 665 520 c 0
 566 520 514 580 514 627 c 2
 514 639 l 1
 504 639 l 1
 481 597 430 515 291 515 c 0
 202 515 125 570 125 668 c 0xba
293 716 m 0xba
 293 676 316 627 379 627 c 0
 439 627 468 664 496 694 c 1
 496 873 l 1
 344 846 293 793 293 716 c 0xba
EndSplineSet
Colour: ffffff
EndChar

StartChar: ordmasculine
Encoding: 186 186 294
Width: 934
VWidth: 0
Flags: HW
HStem: 565 58<98 430> 680 39<222.462 309.967> 1009 42<203.332 300.728>
VStem: 101 74<748.077 986.359> 344 73<744.361 981.206>
LayerCount: 2
Fore
SplineSet
114 876 m 4
 114 1119 294 1258 484 1258 c 4
 693 1258 820 1108 820 888 c 4
 820 665 662 514 464 514 c 4
 240 514 114 670 114 876 c 4
286 933 m 4
 286 768 325 592 492 592 c 4
 612 592 648 710 648 823 c 4
 648 981 610 1174 448 1174 c 4
 320 1174 286 1059 286 933 c 4
EndSplineSet
Colour: ffffff
EndChar

StartChar: oslash
Encoding: 248 248 295
Width: 933
VWidth: 0
Flags: HW
HStem: -27 97<306.659 599.232> 798 105<313.77 554.397>
VStem: 40 180<222.414 641.227> 693 179<226.286 644.897>
LayerCount: 2
Fore
SplineSet
24 -46 m 1
 180 141 l 1
 224 157 l 1
 650 727 l 1
 648 765 l 1
 749 897 l 1
 904 904 l 1
 753 705 l 1
 694 670 l 1
 270 109 l 1
 279 78 l 1
 187 -41 l 1
 24 -46 l 1
220 497 m 0
 220 291 290 70 487 70 c 0
 628 70 693 218 693 359 c 0
 693 557 624 798 434 798 c 0
 283 798 220 654 220 497 c 0
40 426 m 0
 40 730 254 903 477 903 c 0
 723 903 872 716 872 441 c 0
 872 162 685 -27 452 -27 c 0
 188 -27 40 169 40 426 c 0
EndSplineSet
Colour: ffffff
EndChar

StartChar: otilde
Encoding: 245 245 296
Width: 934
VWidth: 0
Flags: HW
HStem: -27 97<367.686 609.797> 798 105<324.3 564.897> 1023 104<487.436 650.713> 1054 104<281.971 443.086>
VStem: 52 178<242.286 641.227> 704 178<226.286 619.183>
DStem2: 371 1157 337 1054 0.991072 -0.133328<-13.8211 216.885>
LayerCount: 2
Fore
SplineSet
52 426 m 0xcc
 52 730 264 903 487 903 c 0
 733 903 882 716 882 441 c 0
 882 162 696 -27 463 -27 c 0
 199 -27 52 169 52 426 c 0xcc
230 497 m 0
 230 291 300 70 497 70 c 0
 638 70 704 218 704 359 c 0
 704 557 635 798 445 798 c 0
 294 798 230 654 230 497 c 0
236 1015 m 1
 236 1015 268 1158 357 1158 c 0xdc
 361 1158 367 1158 371 1157 c 2
 594 1127 l 1
 598 1127 l 2
 623 1127 653 1169 653 1169 c 1
 701 1167 l 1
 701 1167 664 1023 572 1023 c 0xec
 568 1023 563 1023 559 1024 c 2
 337 1054 l 1
 334 1054 l 2xdc
 306 1054 274 1007 274 1007 c 1
 236 1015 l 1
EndSplineSet
Colour: ffffff
EndChar

StartChar: overline
Encoding: 8254 8254 297
Width: 517
VWidth: 0
Flags: HW
HStem: 1302 101<46 474>
VStem: 33 454
LayerCount: 2
Fore
SplineSet
33 1302 m 1
 46 1403 l 1
 487 1403 l 1
 474 1302 l 1
 33 1302 l 1
EndSplineSet
Colour: ffffff
EndChar

StartChar: p
Encoding: 112 112 298
Width: 968
VWidth: 0
Flags: HW
HStem: -372 78<19 76.7213 430.556 479> -19 108<374.904 638.6> 768 131<460.046 645.811> 768 77<30 65.9944>
VStem: 172 163<-256 705.717> 731 183<245.768 666.416>
LayerCount: 2
Fore
SplineSet
13 -372 m 1xec
 19 -294 l 1
 172 -256 l 1
 172 722 l 1
 18 768 l 1
 30 845 l 1xdc
 321 882 l 1
 342 863 l 1
 328 734 l 1
 335 734 l 1
 385 804 480 899 611 899 c 0
 782 899 914 771 914 467 c 0
 914 182 726 -19 469 -19 c 0
 439 -19 408 -16 375 -10 c 1
 369 111 l 1
 415 93 443 89 522 89 c 0
 660 89 731 218 731 406 c 0
 731 643 668 768 540 768 c 0
 454 768 379 712 335 666 c 1
 335 -257 l 1
 491 -292 l 1
 479 -372 l 1
 13 -372 l 1xec
EndSplineSet
Colour: ffffff
EndChar

StartChar: paragraph
Encoding: 182 182 299
Width: 1289
VWidth: 0
Flags: HW
HStem: 0 74<434 507.51 1169.13 1224> 448 98<389.495 544> 1154 91<378.885 675> 1168 77<1158.87 1223>
VStem: 44 205<686.027 1010.54> 675 158<121 1152> 912 312<0 80 1168 1245> 912 141<114 1130>
LayerCount: 2
Back
SplineSet
307.25 1058.08 m 0
 307.25 1356.18 593.136 1561.69 904.456 1561.69 c 2
 1133.37 1561.69 l 1
 1133.37 1.01758 l 1
 728.449 1.01758 l 5
 735.57 52.9043 l 5
 1007.21 91.5645 l 1
 1007.21 1486.4 l 1
 955.326 1489.46 926.839 1489.46 915.647 1489.46 c 0
 596.189 1489.46 473.085 1349.05 473.085 1053 c 0
 473.085 838.326 635.867 662.319 905.475 662.319 c 1
 883.092 599.24 l 1
 556.511 599.24 307.25 691.823 307.25 1058.08 c 0
1203.57 1561.69 m 1
 1559.65 1561.69 l 1
 1553.55 1514.89 l 1
 1332.78 1485.38 l 1
 1332.78 80.373 l 1
 1572.88 57.9912 l 1
 1560.67 -2.03418 l 1
 1203.57 1.01758 l 1
 1203.57 1561.69 l 1
EndSplineSet
Fore
SplineSet
44 828 m 0xec
 44 1065 244 1245 487 1245 c 2xec
 833 1245 l 1xdc
 833 0 l 1
 427 0 l 1
 434 74 l 1
 675 121 l 1
 675 1152 l 1
 635 1153 578 1154 568 1154 c 0
 353 1154 249 1041 249 863 c 0
 249 692 344 546 562 546 c 9
 544 448 l 1
 283 448 44 536 44 828 c 0xec
912 0 m 1xde
 912 1245 l 1xde
 1232 1245 l 1
 1223 1168 l 1
 1053 1130 l 1
 1053 114 l 1xdd
 1234 80 l 1
 1224 0 l 1
 912 0 l 1xde
EndSplineSet
Colour: ffffff
EndChar

StartChar: parenleft
Encoding: 40 40 300
Width: 477
VWidth: 0
Flags: HW
VStem: 49 178<106.488 787.766>
LayerCount: 2
Fore
SplineSet
49 445 m 0
 49 970 320 1199 386 1255 c 1
 436 1189 l 1
 350 1076 227 879 227 455 c 0
 227 40 405 -244 449 -317 c 1
 381 -375 l 1
 331 -328 49 -70 49 445 c 0
EndSplineSet
Colour: ffffff
EndChar

StartChar: parenright
Encoding: 41 41 301
Width: 477
VWidth: 0
Flags: HW
VStem: 253 178<106.488 787.766>
LayerCount: 2
Fore
SplineSet
44 1189 m 1
 93 1255 l 1
 159 1199 431 970 431 445 c 0
 431 -70 149 -328 99 -375 c 1
 30 -317 l 1
 74 -244 253 40 253 455 c 0
 253 879 130 1076 44 1189 c 1
EndSplineSet
Colour: ffffff
EndChar

StartChar: partialdiff
Encoding: 8706 8706 302
Width: 897
VWidth: 0
Flags: HW
HStem: -27 97<353.909 585.689> 856 92<317.52 523.25>
VStem: 49 178<233.814 684.196> 664 174<224.809 657.087>
LayerCount: 2
Fore
SplineSet
49 451 m 0
 49 746 229 948 442 948 c 0
 482 948 567 933 597 857 c 1
 604 859 l 1
 583 961 455 1185 317 1302 c 1
 433 1302 l 1
 713 1142 838 796 838 465 c 0
 838 157 658 -27 443 -27 c 0
 166 -27 49 208 49 451 c 0
227 498 m 0
 227 256 328 70 466 70 c 0
 621 70 664 209 664 424 c 0
 664 660 545 856 423 856 c 0
 282 856 227 748 227 498 c 0
EndSplineSet
Colour: ffffff
EndChar

